STARTFONT 2.1
COMMENT
COMMENT Converted from OpenType font "Q:\font stuff\winfont\TeutonWeiss-Bold.otf" by "otf2bdf 3.0".
COMMENT
FONT -FreeType-Teuton Weiss-Bold-R-Normal--84-840-72-72-P-293-ISO10646-1
SIZE 84 72 72
FONTBOUNDINGBOX 73 89 -4 -18
STARTPROPERTIES 19
FOUNDRY "FreeType"
FAMILY_NAME "Teuton Weiss"
WEIGHT_NAME "Bold"
SLANT "R"
SETWIDTH_NAME "Normal"
ADD_STYLE_NAME ""
PIXEL_SIZE 84
POINT_SIZE 840
RESOLUTION_X 72
RESOLUTION_Y 72
SPACING "P"
AVERAGE_WIDTH 293
CHARSET_REGISTRY "ISO10646"
CHARSET_ENCODING "1"
FONT_ASCENT 70
FONT_DESCENT 18
COPYRIGHT "Copyright Copr. 2001, Frantisek Storm, www.stormtype.com. All rights reserved."
_OTF_FONTFILE "Q:\font stuff\winfont\TeutonWeiss-Bold.otf"
_OTF_PSNAME "TeutonWeiss-Bold"
ENDPROPERTIES
CHARS 356
STARTCHAR 0020
ENCODING 32
SWIDTH 261 0
DWIDTH 22 0
BBX 0 0 0 0
BITMAP
ENDCHAR
STARTCHAR 0021
ENCODING 33
SWIDTH 202 0
DWIDTH 17 0
BBX 6 59 5 0
BITMAP
FC
FC
FC
FC
FC
FC
FC
FC
FC
FC
FC
FC
FC
FC
FC
FC
FC
FC
FC
FC
FC
FC
FC
FC
FC
FC
FC
FC
FC
FC
FC
FC
FC
FC
FC
FC
FC
FC
FC
FC
FC
FC
FC
FC
FC
FC
00
00
00
00
00
00
FC
FC
FC
FC
FC
FC
FC
ENDCHAR
STARTCHAR 0022
ENCODING 34
SWIDTH 297 0
DWIDTH 25 0
BBX 14 14 6 44
BITMAP
F87C
F87C
F87C
F87C
F87C
F87C
F87C
F87C
F83C
F03C
F03C
F03C
F03C
F03C
ENDCHAR
STARTCHAR 0023
ENCODING 35
SWIDTH 500 0
DWIDTH 42 0
BBX 38 59 2 0
BITMAP
0007C003F0
000FC003F0
000FC003F0
000FC003F0
000FC003E0
000F8003E0
000F8007E0
001F8007E0
001F8007E0
001F8007E0
001F8007C0
001F0007C0
001F000FC0
003F000FC0
003F000FC0
003F000F80
003E000F80
0FFFFFFFFC
0FFFFFFFFC
0FFFFFFFFC
0FFFFFFFFC
0FFFFFFFFC
007C001F00
007C003F00
00FC003F00
00FC003F00
00FC003F00
00FC003E00
00F8003E00
00F8007E00
01F8007E00
01F8007E00
01F8007C00
01F8007C00
01F0007C00
01F000FC00
03F000FC00
03F000FC00
03F000F800
FFFFFFFFC0
FFFFFFFFC0
FFFFFFFFC0
FFFFFFFFC0
FFFFFFFFC0
07E001F000
07C001F000
07C003F000
0FC003F000
0FC003F000
0FC003F000
0FC003E000
0F8003E000
0F8007E000
1F8007E000
1F8007E000
1F8007C000
1F0007C000
1F0007C000
1F000FC000
ENDCHAR
STARTCHAR 0024
ENCODING 36
SWIDTH 404 0
DWIDTH 34 0
BBX 25 58 5 1
BITMAP
003E0000
003E0000
003E0000
003E0000
003E0000
003E0000
003E0000
003E0000
0FFFFF80
3FFFFF80
7FFFFF80
7FFFFF80
FFFFFF80
FE000000
FC000000
FC000000
FC000000
FC000000
FC000000
FE000000
FF000000
7F800000
7FE00000
3FF00000
0FFC0000
07FE0000
01FF8000
00FFC000
003FF000
001FF800
0007FE00
0003FF00
0000FF00
00007F80
00003F80
00001F80
00001F80
00001F80
00001F80
00001F80
00001F80
00001F80
00001F80
00003F80
FFFFFF80
FFFFFF80
FFFFFF00
FFFFFE00
FFFFF800
003E0000
003E0000
003E0000
003E0000
003E0000
003E0000
003E0000
003E0000
003E0000
ENDCHAR
STARTCHAR 0025
ENCODING 37
SWIDTH 595 0
DWIDTH 50 0
BBX 42 59 4 0
BITMAP
07FC00007E00
1FFE00007E00
3FFF0000FC00
7FFF8000F800
7E1F8001F800
F807C001F000
F003C003F000
F003C007E000
F003C007E000
F003C00FC000
F003C00FC000
F003C01F8000
F003C01F8000
F003C03F0000
F003C03F0000
F003C07E0000
F003C07E0000
F003C0FC0000
F003C0FC0000
F003C1F80000
F003C1F80000
F003C3F00000
F003C3F00000
F807C7E00000
7C0F87E00000
7FFF8FC00000
3FFF0F800000
1FFE1F800000
0FF81F000000
00003F000000
00003E000000
00007E07FC00
0000FC1FFE00
0000FC3FFF00
0001F87FFF80
0001F87C0FC0
0003F0F807C0
0003F0F003C0
0007E0F003C0
0007E0F003C0
000FC0F003C0
000FC0F003C0
001F80F003C0
001F80F003C0
003F00F003C0
003F00F003C0
007E00F003C0
007E00F003C0
00FC00F003C0
00F800F003C0
01F800F003C0
01F000F003C0
03F000F003C0
03E000F807C0
07E000FE1F80
07C0007FFF80
0FC0003FFF00
1F80003FFE00
1F80000FF800
ENDCHAR
STARTCHAR 0026
ENCODING 38
SWIDTH 642 0
DWIDTH 54 0
BBX 45 59 6 0
BITMAP
07FFFFFE0000
1FFFFFFE0000
3FFFFFFE0000
7FFFFFFE0000
7FFFFFFE0000
FFFFFFFE0000
FE0000000000
FC0000000000
FC0000000000
FC0000000000
FC0000000000
FC0000000000
FC0000000000
FC0000000000
FC0000000000
FC0000000000
FC0000000000
FC0000001000
7C0000003000
7C0000007000
3E000000F000
0F000001F000
07FFFFFFFFF8
1FFFFFFFFFF8
3FFFFFFFFFF8
7FFFFFFFFFF8
7FFFFFFFFFF8
FF000003F000
FE000003F000
FC000003F000
FC000003F000
FC000003F000
FC000003F000
FC000003F000
FC000003F000
FC000003F000
FC000003F000
FC000003F000
FC000003F000
FC000003F000
FC000003F000
FC000003F000
FC000003F000
FC000003F000
FC000003F000
FC000003F000
FC000003F000
FC000003F000
FC000003F000
FC000003F000
FC000003F000
FC000003F000
FE000003F000
FF800103FC18
7FFFFF03FFF8
7FFFFF01FFF8
3FFFFF01FFF8
1FFFFF00FFF8
07FFFF003FF8
ENDCHAR
STARTCHAR 0027
ENCODING 39
SWIDTH 202 0
DWIDTH 17 0
BBX 5 14 6 45
BITMAP
F8
F8
F8
F8
F8
F8
F8
F8
F8
F8
F8
F8
F8
F8
ENDCHAR
STARTCHAR 0028
ENCODING 40
SWIDTH 321 0
DWIDTH 27 0
BBX 17 76 6 -17
BITMAP
003F80
01FF80
07FF80
1FFF80
1FFF80
3FF800
7F8000
7F0000
7E0000
FE0000
FC0000
FC0000
FC0000
FC0000
FC0000
FC0000
FC0000
FC0000
FC0000
FC0000
FC0000
FC0000
FC0000
FC0000
FC0000
FC0000
FC0000
FC0000
FC0000
FC0000
FC0000
FC0000
FC0000
FC0000
FC0000
FC0000
FC0000
FC0000
FC0000
FC0000
FC0000
FC0000
FC0000
FC0000
FC0000
FC0000
FC0000
FC0000
FC0000
FC0000
FC0000
FC0000
FC0000
FC0000
FC0000
FC0000
FC0000
FC0000
FC0000
FC0000
FC0000
FC0000
FC0000
FC0000
FC0000
FC0000
FE0000
7E0000
7F0000
7F8000
3FF800
1FFF80
1FFF80
07FF80
01FF80
003F80
ENDCHAR
STARTCHAR 0029
ENCODING 41
SWIDTH 321 0
DWIDTH 27 0
BBX 17 76 4 -17
BITMAP
FE0000
FFE000
FFF000
FFFC00
FFFE00
0FFE00
00FF00
007F00
003F00
003F80
001F80
001F80
001F80
001F80
001F80
001F80
001F80
001F80
001F80
001F80
001F80
001F80
001F80
001F80
001F80
001F80
001F80
001F80
001F80
001F80
001F80
001F80
001F80
001F80
001F80
001F80
001F80
001F80
001F80
001F80
001F80
001F80
001F80
001F80
001F80
001F80
001F80
001F80
001F80
001F80
001F80
001F80
001F80
001F80
001F80
001F80
001F80
001F80
001F80
001F80
001F80
001F80
001F80
001F80
001F80
001F80
003F80
003F00
007F00
00FF00
0FFE00
FFFC00
FFF800
FFF000
FFC000
FE0000
ENDCHAR
STARTCHAR 002A
ENCODING 42
SWIDTH 428 0
DWIDTH 36 0
BBX 27 26 5 33
BITMAP
001F0000
001F0000
001F0000
001F0000
001F0000
001E0000
000E0000
600E00C0
780E03C0
7F0E1FC0
FFCE7FE0
FFFFFFE0
1FFFFE00
01FFE000
001F0000
003F8000
007BC000
00FBE000
01F1F000
03F1F800
03E0F800
07C07C00
0FC07E00
07803C00
03001800
00001000
ENDCHAR
STARTCHAR 002B
ENCODING 43
SWIDTH 464 0
DWIDTH 39 0
BBX 29 29 5 10
BITMAP
000F8000
000F8000
000F8000
000F8000
000F8000
000F8000
000F8000
000F8000
000F8000
000F8000
000F8000
000F8000
FFFFFFF8
FFFFFFF8
FFFFFFF8
FFFFFFF8
FFFFFFF8
000F8000
000F8000
000F8000
000F8000
000F8000
000F8000
000F8000
000F8000
000F8000
000F8000
000F8000
000F8000
ENDCHAR
STARTCHAR 002C
ENCODING 44
SWIDTH 202 0
DWIDTH 17 0
BBX 9 19 3 -12
BITMAP
1F80
1F80
1F80
1F80
1F80
1F80
1F80
1F80
3F00
3F00
3F00
3E00
7E00
7E00
7C00
7C00
FC00
F800
F800
ENDCHAR
STARTCHAR 002D
ENCODING 45
SWIDTH 297 0
DWIDTH 25 0
BBX 16 5 4 22
BITMAP
FFFF
FFFF
FFFF
FFFF
FFFF
ENDCHAR
STARTCHAR 002E
ENCODING 46
SWIDTH 190 0
DWIDTH 16 0
BBX 6 7 5 0
BITMAP
FC
FC
FC
FC
FC
FC
FC
ENDCHAR
STARTCHAR 002F
ENCODING 47
SWIDTH 440 0
DWIDTH 37 0
BBX 36 76 0 -17
BITMAP
00000003F0
00000007F0
00000007E0
0000000FE0
0000000FE0
0000000FC0
0000001FC0
0000001F80
0000003F80
0000003F80
0000003F00
0000007F00
0000007E00
000000FE00
000000FE00
000000FC00
000001FC00
000001FC00
000003F800
000003F800
000003F000
000007F000
000007F000
000007E000
00000FE000
00000FC000
00001FC000
00001FC000
00001F8000
00003F8000
00003F0000
00007F0000
00007F0000
00007E0000
0000FE0000
0000FC0000
0001FC0000
0001FC0000
0001F80000
0003F80000
0003F80000
0007F00000
0007F00000
0007E00000
000FE00000
000FE00000
000FC00000
001FC00000
001F800000
003F800000
003F800000
003F000000
007F000000
007E000000
00FE000000
00FE000000
00FC000000
01FC000000
01F8000000
03F8000000
03F8000000
03F0000000
07F0000000
07F0000000
0FE0000000
0FE0000000
0FC0000000
1FC0000000
1FC0000000
3F80000000
3F80000000
3F00000000
7F00000000
7F00000000
7E00000000
FE00000000
ENDCHAR
STARTCHAR 0030
ENCODING 48
SWIDTH 511 0
DWIDTH 43 0
BBX 30 59 7 0
BITMAP
07FFFF80
1FFFFFE0
3FFFFFF0
7FFFFFF8
7FFFFFF8
FF800FFC
FE0001FC
FC0000FC
FC0000FC
FC0000FC
FC0000FC
FC0000FC
FC0000FC
FC0000FC
FC0000FC
FC0000FC
FC0000FC
FC0000FC
FC0000FC
FC0000FC
FC0000FC
FC0000FC
FC0000FC
FC0000FC
FC0000FC
FC0000FC
FC0000FC
FC0000FC
FC0000FC
FC0000FC
FC0000FC
FC0000FC
FC0000FC
FC0000FC
FC0000FC
FC0000FC
FC0000FC
FC0000FC
FC0000FC
FC0000FC
FC0000FC
FC0000FC
FC0000FC
FC0000FC
FC0000FC
FC0000FC
FC0000FC
FC0000FC
FC0000FC
FC0000FC
FC0000FC
FC0000FC
FE0001FC
FFC007FC
7FFFFFF8
7FFFFFF8
3FFFFFF0
1FFFFFE0
07FFFF80
ENDCHAR
STARTCHAR 0031
ENCODING 49
SWIDTH 511 0
DWIDTH 43 0
BBX 28 60 8 1
BITMAP
0000C000
0001C000
0007C000
000FC000
003FC000
007FC000
01FFC000
03FFC000
0FFFC000
3FFFC000
7FCFC000
FF8FC000
FE0FC000
FC0FC000
F00FC000
E00FC000
800FC000
000FC000
000FC000
000FC000
000FC000
000FC000
000FC000
000FC000
000FC000
000FC000
000FC000
000FC000
000FC000
000FC000
000FC000
000FC000
000FC000
000FC000
000FC000
000FC000
000FC000
000FC000
000FC000
000FC000
000FC000
000FC000
000FC000
000FC000
000FC000
000FC000
000FC000
000FC000
000FC000
000FC000
000FC000
000FC000
000FC000
000FC000
000FC000
3FFFFFF0
3FFFFFF0
3FFFFFF0
3FFFFFF0
3FFFFFF0
ENDCHAR
STARTCHAR 0032
ENCODING 50
SWIDTH 511 0
DWIDTH 43 0
BBX 30 59 7 0
BITMAP
FFFFFF80
FFFFFFE0
FFFFFFF0
FFFFFFF8
FFFFFFF8
E0000FFC
000001FC
000000FC
000000FC
000000FC
000000FC
000000FC
000000FC
000000FC
000000FC
000000FC
000001FC
000001FC
000003F8
000007F8
00001FF0
00003FE0
00007FC0
0000FF80
0001FF00
0003FE00
0007F800
000FF000
003FE000
007FC000
00FF8000
01FF0000
03FE0000
07F80000
0FF00000
1FE00000
3FC00000
7F800000
7F000000
FE000000
FC000000
FC000000
FC000000
FC000000
FC000000
FC000000
FC000000
FC000000
FC000000
FC000000
FC000000
FC000000
FC000000
FC00001C
FFFFFFFC
FFFFFFFC
FFFFFFFC
FFFFFFFC
FFFFFFFC
ENDCHAR
STARTCHAR 0033
ENCODING 51
SWIDTH 511 0
DWIDTH 43 0
BBX 31 59 6 0
BITMAP
FFFFFFC0
FFFFFFF0
FFFFFFF8
FFFFFFFC
FFFFFFFC
E00007FE
000000FE
0000007E
0000007E
0000007E
0000007E
0000007E
0000007E
0000007E
0000007E
0000007E
0000007E
0000007E
0000007E
0000007E
0000007E
0000007E
0000007E
0000007E
000000FC
000001FC
0FFFFFF8
0FFFFFE0
0FFFFF00
0FFFFFE0
0FFFFFF8
000001FC
000000FC
0000007E
0000007E
0000007E
0000007E
0000007E
0000007E
0000007E
0000007E
0000007E
0000007E
0000007E
0000007E
0000007E
0000007E
0000007E
0000007E
0000007E
0000007E
0000007E
000000FE
C00007FE
FFFFFFFC
FFFFFFFC
FFFFFFF8
FFFFFFF0
FFFFFFC0
ENDCHAR
STARTCHAR 0034
ENCODING 52
SWIDTH 511 0
DWIDTH 43 0
BBX 37 59 4 0
BITMAP
000007F000
000007F000
00000FF000
00001FF000
00001FF000
00003FF000
00003FF000
00007FF000
00007FF000
0000FBF000
0000FBF000
0001F3F000
0003F3F000
0003E3F000
0007E3F000
0007C3F000
000F83F000
000F83F000
001F03F000
001F03F000
003E03F000
007E03F000
007C03F000
00F803F000
00F803F000
01F003F000
01F003F000
03E003F000
07E003F000
07C003F000
0FC003F000
0F8003F000
1F0003F000
1F0003F000
3E0003F000
3E0003F000
7C0003F000
FC0003F000
FFFFFFFFF8
FFFFFFFFF8
FFFFFFFFF8
FFFFFFFFF8
FFFFFFFFF8
000003F000
000003F000
000003F000
000003F000
000003F000
000003F000
000003F000
000003F000
000003F000
000003F000
000003F000
000003F000
000003F000
000003F000
000003F000
000003F000
ENDCHAR
STARTCHAR 0035
ENCODING 53
SWIDTH 511 0
DWIDTH 43 0
BBX 30 59 7 0
BITMAP
FFFFFFFC
FFFFFFFC
FFFFFFFC
FFFFFFFC
FFFFFFFC
FC00000C
FC000000
FC000000
FC000000
FC000000
FC000000
FC000000
FC000000
FC000000
FC000000
FC000000
FC000000
FC000000
FC000000
FC000000
FC000000
FC000000
FC000000
FC000000
FC000000
FC000000
FFFFFF80
FFFFFFE0
FFFFFFF0
FFFFFFF8
FFFFFFF8
000003FC
000001FC
000000FC
000000FC
000000FC
000000FC
000000FC
000000FC
000000FC
000000FC
000000FC
000000FC
000000FC
000000FC
000000FC
000000FC
000000FC
000000FC
000000FC
000000FC
000000FC
000001FC
E00007FC
FFFFFFF8
FFFFFFF8
FFFFFFF0
FFFFFFE0
FFFFFF80
ENDCHAR
STARTCHAR 0036
ENCODING 54
SWIDTH 511 0
DWIDTH 43 0
BBX 30 59 7 0
BITMAP
07FFFFFC
1FFFFFFC
3FFFFFFC
7FFFFFFC
7FFFFFFC
FFC0000C
FE000000
FC000000
FC000000
FC000000
FC000000
FC000000
FC000000
FC000000
FC000000
FC000000
FC000000
FC000000
FC000000
FC000000
FC000000
FC000000
FC000000
FC000000
FC000000
FC000000
FFFFFF80
FFFFFFE0
FFFFFFF0
FFFFFFF8
FFFFFFF8
FC0003FC
FC0001FC
FC0000FC
FC0000FC
FC0000FC
FC0000FC
FC0000FC
FC0000FC
FC0000FC
FC0000FC
FC0000FC
FC0000FC
FC0000FC
FC0000FC
FC0000FC
FC0000FC
FC0000FC
FC0000FC
FC0000FC
FC0000FC
FC0000FC
FE0001FC
FFC007FC
7FFFFFF8
7FFFFFF8
3FFFFFF0
1FFFFFE0
07FFFF80
ENDCHAR
STARTCHAR 0037
ENCODING 55
SWIDTH 511 0
DWIDTH 43 0
BBX 33 59 5 0
BITMAP
FFFFFFFF80
FFFFFFFF80
FFFFFFFF80
FFFFFFFF80
FFFFFFFF80
8000001F80
0000003F00
0000003F00
0000003F00
0000007E00
0000007E00
0000007C00
000000FC00
000000FC00
000001F800
000001F800
000001F800
000003F000
000003F000
000003F000
000007E000
000007E000
00000FC000
00000FC000
00000FC000
00001F8000
00001F8000
00003F8000
00003F0000
00003F0000
00007F0000
00007E0000
00007E0000
0000FC0000
0000FC0000
0001FC0000
0001F80000
0001F80000
0003F80000
0003F00000
0003F00000
0007F00000
0007E00000
000FE00000
000FC00000
000FC00000
001FC00000
001F800000
001F800000
003F800000
003F000000
007F000000
007F000000
007E000000
00FE000000
00FC000000
00FC000000
01FC000000
01F8000000
ENDCHAR
STARTCHAR 0038
ENCODING 56
SWIDTH 511 0
DWIDTH 43 0
BBX 30 59 7 0
BITMAP
07FFFF80
1FFFFFE0
3FFFFFF0
7FFFFFF8
7FFFFFF8
FF0003FC
FE0001FC
FC0000FC
FC0000FC
FC0000FC
FC0000FC
FC0000FC
FC0000FC
FC0000FC
FC0000FC
FC0000FC
FC0000FC
FC0000FC
FC0000FC
FC0000FC
FC0000FC
FC0000FC
FC0000FC
7C0000FC
7E0001F8
7F0003F8
3FFFFFF0
1FFFFFC0
01FFFE00
0FFFFFC0
3FFFFFF0
3F0003F8
7E0001F8
7C0000FC
FC0000FC
FC0000FC
FC0000FC
FC0000FC
FC0000FC
FC0000FC
FC0000FC
FC0000FC
FC0000FC
FC0000FC
FC0000FC
FC0000FC
FC0000FC
FC0000FC
FC0000FC
FC0000FC
FC0000FC
FC0000FC
FE0001FC
FF0003FC
7FFFFFF8
7FFFFFF8
3FFFFFF0
1FFFFFE0
07FFFF80
ENDCHAR
STARTCHAR 0039
ENCODING 57
SWIDTH 511 0
DWIDTH 43 0
BBX 30 59 6 0
BITMAP
07FFFF80
1FFFFFE0
3FFFFFF0
7FFFFFF8
7FFFFFF8
FF800FFC
FE0001FC
FC0000FC
FC0000FC
FC0000FC
FC0000FC
FC0000FC
FC0000FC
FC0000FC
FC0000FC
FC0000FC
FC0000FC
FC0000FC
FC0000FC
FC0000FC
FC0000FC
FC0000FC
FC0000FC
FC0000FC
FE0000FC
FF0000FC
7FFFFFFC
7FFFFFFC
3FFFFFFC
1FFFFFFC
07FFFFFC
000000FC
000000FC
000000FC
000000FC
000000FC
000000FC
000000FC
000000FC
000000FC
000000FC
000000FC
000000FC
000000FC
000000FC
000000FC
000000FC
000000FC
000000FC
000000FC
000000FC
000000FC
000001FC
C0000FFC
FFFFFFF8
FFFFFFF8
FFFFFFF0
FFFFFFE0
FFFFFF80
ENDCHAR
STARTCHAR 003A
ENCODING 58
SWIDTH 202 0
DWIDTH 17 0
BBX 6 42 5 0
BITMAP
FC
FC
FC
FC
FC
FC
FC
00
00
00
00
00
00
00
00
00
00
00
00
00
00
00
00
00
00
00
00
00
00
00
00
00
00
00
00
FC
FC
FC
FC
FC
FC
FC
ENDCHAR
STARTCHAR 003B
ENCODING 59
SWIDTH 202 0
DWIDTH 17 0
BBX 9 54 3 -12
BITMAP
1F80
1F80
1F80
1F80
1F80
1F80
1F80
0000
0000
0000
0000
0000
0000
0000
0000
0000
0000
0000
0000
0000
0000
0000
0000
0000
0000
0000
0000
0000
0000
0000
0000
0000
0000
0000
0000
1F80
1F80
1F80
1F80
1F80
1F80
1F80
1F80
1F00
3F00
3F00
3E00
3E00
7E00
7C00
7C00
7C00
F800
F800
ENDCHAR
STARTCHAR 003C
ENCODING 60
SWIDTH 464 0
DWIDTH 39 0
BBX 30 36 5 9
BITMAP
0000000C
0000001C
0000007C
000001FC
000007FC
00001FF0
00007FE0
0001FF80
0003FE00
000FF800
003FF000
00FFC000
03FF0000
0FFC0000
3FF80000
FFE00000
FF800000
FE000000
FF000000
FFC00000
7FF00000
1FFC0000
07FE0000
01FF8000
00FFE000
003FF000
000FFC00
0003FF00
0000FFC0
00003FE0
00000FF8
000007FC
000001FC
0000007C
0000001C
00000004
ENDCHAR
STARTCHAR 003D
ENCODING 61
SWIDTH 464 0
DWIDTH 39 0
BBX 30 23 5 14
BITMAP
FFFFFFFC
FFFFFFFC
FFFFFFFC
FFFFFFFC
FFFFFFFC
00000000
00000000
00000000
00000000
00000000
00000000
00000000
00000000
00000000
00000000
00000000
00000000
00000000
FFFFFFFC
FFFFFFFC
FFFFFFFC
FFFFFFFC
FFFFFFFC
ENDCHAR
STARTCHAR 003E
ENCODING 62
SWIDTH 464 0
DWIDTH 39 0
BBX 30 36 5 9
BITMAP
C0000000
E0000000
F8000000
FE000000
FF800000
7FE00000
1FF80000
07FE0000
03FF8000
00FFC000
003FF000
000FFC00
0007FF00
0001FFC0
00007FF0
00001FFC
00000FFC
000003FC
000003FC
000007FC
00001FF8
00007FE0
0001FF80
0003FE00
000FFC00
003FF000
00FFC000
01FF0000
07FC0000
1FF00000
7FC00000
FF800000
FE000000
F8000000
E0000000
80000000
ENDCHAR
STARTCHAR 003F
ENCODING 63
SWIDTH 404 0
DWIDTH 34 0
BBX 28 59 4 0
BITMAP
FFFFFF00
FFFFFFC0
FFFFFFE0
FFFFFFE0
FFFFFFF0
80000FF0
000007F0
000003F0
000003F0
000003F0
000003F0
000003F0
000003F0
000003F0
000007E0
00000FE0
00001FE0
00003FC0
00007F80
0000FF00
0001FE00
0003FC00
0007F800
000FF000
001FE000
003FC000
003F8000
003F0000
007E0000
007E0000
007E0000
007E0000
007E0000
007E0000
007E0000
007E0000
007E0000
007E0000
007E0000
007E0000
007E0000
007E0000
007E0000
007E0000
007E0000
007E0000
00000000
00000000
00000000
00000000
00000000
00000000
007E0000
007E0000
007E0000
007E0000
007E0000
007E0000
007E0000
ENDCHAR
STARTCHAR 0040
ENCODING 64
SWIDTH 738 0
DWIDTH 62 0
BBX 50 59 7 -9
BITMAP
07FFFFFF000000
1FFFFFFFC00000
3FFFFFFFE00000
7FFFFFFFF00000
7FFFFFFFF00000
FF000007F80000
FE000003F80000
FC000001F80000
FC000001F80000
FC000001F80000
FC000001F80000
FC000001F80000
FC000001F80000
FC000001F80000
FC000001F80000
FC000001F80000
FC003FFFF807C0
FC00FFFFF807C0
FC01FFFFF807C0
FC01FFFFF807C0
FC03F801F807C0
FC03F001F807C0
FC03E001F807C0
FC03E001F807C0
FC03E001F807C0
FC03E001F807C0
FC03E001F807C0
FC03E001F807C0
FC03E001F807C0
FC03E001F807C0
FC03E001F807C0
FC03E001F807C0
FC03E001F807C0
FC03E001F807C0
FC03E001F807C0
FC03E001F807C0
FC03F001F807C0
FC03F801F807C0
FC03FFFFF807C0
FC01FFFFF807C0
FC01FFFFF807C0
FC00FFFFF807C0
FC003FFFF807C0
FC0000000007C0
FC0000000007C0
FC0000000007C0
FC0000000007C0
FC0000000007C0
FC0000000007C0
FC0000000007C0
FC0000000007C0
FC0000000007C0
FE000000000FC0
FF000000001FC0
7FFFFFFFFFFF80
7FFFFFFFFFFF80
3FFFFFFFFFFF00
1FFFFFFFFFFE00
07FFFFFFFFF800
ENDCHAR
STARTCHAR 0041
ENCODING 65
SWIDTH 500 0
DWIDTH 42 0
BBX 41 58 1 1
BITMAP
0000FF800000
0000FF800000
0000FF800000
0000FFC00000
0001FFC00000
0001FFC00000
0001FFE00000
0003F7E00000
0003F7E00000
0003F7E00000
0003E7F00000
0007E3F00000
0007E3F00000
0007E3F80000
000FC3F80000
000FC1F80000
000FC1F80000
000F81FC0000
001F80FC0000
001F80FC0000
001F80FC0000
003F00FE0000
003F007E0000
003F007E0000
003F007F0000
007E007F0000
007E003F0000
007E003F0000
00FC003F8000
00FC001F8000
00FC001F8000
00FC001FC000
01F8001FC000
01F8000FC000
01F8000FC000
03F8000FE000
03F0000FE000
03F00007E000
03F00007F000
07FFFFFFF000
07FFFFFFF000
07FFFFFFF000
0FFFFFFFF800
0FE00003F800
0FC00003F800
0FC00001FC00
1FC00001FC00
1FC00001FC00
1F800001FC00
3F800000FE00
3F800000FE00
3F800000FE00
3F0000007E00
7F0000007F00
7F0000007F00
7E0000007F00
FE0000003F80
FE0000003F80
ENDCHAR
STARTCHAR 0042
ENCODING 66
SWIDTH 559 0
DWIDTH 47 0
BBX 34 59 6 0
BITMAP
FFFFFFF800
FFFFFFFE00
FFFFFFFF00
FFFFFFFF80
FFFFFFFF80
FC00003FC0
FC00001FC0
FC00000FC0
FC00000FC0
FC00000FC0
FC00000FC0
FC00000FC0
FC00000FC0
FC00000FC0
FC00000FC0
FC00000FC0
FC00000FC0
FC00000FC0
FC00000FC0
FC00000FC0
FC00000FC0
FC00000FC0
FC00000FC0
FC00001FC0
FC00003FC0
FFFFFFFF80
FFFFFFFF80
FFFFFFFF00
FFFFFFFF80
FFFFFFFF80
FC00003FC0
FC00001FC0
FC00000FC0
FC00000FC0
FC00000FC0
FC00000FC0
FC00000FC0
FC00000FC0
FC00000FC0
FC00000FC0
FC00000FC0
FC00000FC0
FC00000FC0
FC00000FC0
FC00000FC0
FC00000FC0
FC00000FC0
FC00000FC0
FC00000FC0
FC00000FC0
FC00000FC0
FC00000FC0
FC00001FC0
FC00003F80
FFFFFFFF80
FFFFFFFF80
FFFFFFFF00
FFFFFFFE00
FFFFFFF800
ENDCHAR
STARTCHAR 0043
ENCODING 67
SWIDTH 476 0
DWIDTH 40 0
BBX 31 59 6 0
BITMAP
07FFFFFE
1FFFFFFE
3FFFFFFE
7FFFFFFE
7FFFFFFE
FF80000E
FE000000
FC000000
FC000000
FC000000
FC000000
FC000000
FC000000
FC000000
FC000000
FC000000
FC000000
FC000000
FC000000
FC000000
FC000000
FC000000
FC000000
FC000000
FC000000
FC000000
FC000000
FC000000
FC000000
FC000000
FC000000
FC000000
FC000000
FC000000
FC000000
FC000000
FC000000
FC000000
FC000000
FC000000
FC000000
FC000000
FC000000
FC000000
FC000000
FC000000
FC000000
FC000000
FC000000
FC000000
FC000000
FC000000
FE000000
FFC00006
7FFFFFFE
7FFFFFFE
3FFFFFFE
1FFFFFFE
07FFFFFE
ENDCHAR
STARTCHAR 0044
ENCODING 68
SWIDTH 547 0
DWIDTH 46 0
BBX 34 59 6 0
BITMAP
FFFFFFF800
FFFFFFFE00
FFFFFFFF00
FFFFFFFF80
FFFFFFFF80
FC0000FFC0
FC00001FC0
FC00000FC0
FC00000FC0
FC00000FC0
FC00000FC0
FC00000FC0
FC00000FC0
FC00000FC0
FC00000FC0
FC00000FC0
FC00000FC0
FC00000FC0
FC00000FC0
FC00000FC0
FC00000FC0
FC00000FC0
FC00000FC0
FC00000FC0
FC00000FC0
FC00000FC0
FC00000FC0
FC00000FC0
FC00000FC0
FC00000FC0
FC00000FC0
FC00000FC0
FC00000FC0
FC00000FC0
FC00000FC0
FC00000FC0
FC00000FC0
FC00000FC0
FC00000FC0
FC00000FC0
FC00000FC0
FC00000FC0
FC00000FC0
FC00000FC0
FC00000FC0
FC00000FC0
FC00000FC0
FC00000FC0
FC00000FC0
FC00000FC0
FC00000FC0
FC00000FC0
FC00001FC0
FC0000FFC0
FFFFFFFF80
FFFFFFFF80
FFFFFFFF00
FFFFFFFE00
FFFFFFF800
ENDCHAR
STARTCHAR 0045
ENCODING 69
SWIDTH 476 0
DWIDTH 40 0
BBX 32 59 6 0
BITMAP
FFFFFFFC
FFFFFFFC
FFFFFFFC
FFFFFFFC
FFFFFFFC
FC000004
FC000000
FC000000
FC000000
FC000000
FC000000
FC000000
FC000000
FC000000
FC000000
FC000000
FC000000
FC000000
FC000000
FC000000
FC000000
FC000000
FC000000
FC000000
FC000000
FC000000
FFFFFF80
FFFFFF80
FFFFFF80
FFFFFF80
FFFFFF80
FC000000
FC000000
FC000000
FC000000
FC000000
FC000000
FC000000
FC000000
FC000000
FC000000
FC000000
FC000000
FC000000
FC000000
FC000000
FC000000
FC000000
FC000000
FC000000
FC000000
FC000000
FC000000
FC000001
FFFFFFFF
FFFFFFFF
FFFFFFFF
FFFFFFFF
FFFFFFFF
ENDCHAR
STARTCHAR 0046
ENCODING 70
SWIDTH 440 0
DWIDTH 37 0
BBX 30 59 6 0
BITMAP
FFFFFFFC
FFFFFFFC
FFFFFFFC
FFFFFFFC
FFFFFFFC
FC000004
FC000000
FC000000
FC000000
FC000000
FC000000
FC000000
FC000000
FC000000
FC000000
FC000000
FC000000
FC000000
FC000000
FC000000
FC000000
FC000000
FC000000
FC000000
FC000000
FC000000
FFFFFF80
FFFFFF80
FFFFFF80
FFFFFF80
FFFFFF80
FC000000
FC000000
FC000000
FC000000
FC000000
FC000000
FC000000
FC000000
FC000000
FC000000
FC000000
FC000000
FC000000
FC000000
FC000000
FC000000
FC000000
FC000000
FC000000
FC000000
FC000000
FC000000
FC000000
FC000000
FC000000
FC000000
FC000000
FC000000
ENDCHAR
STARTCHAR 0047
ENCODING 71
SWIDTH 547 0
DWIDTH 46 0
BBX 34 59 6 0
BITMAP
07FFFFFFC0
1FFFFFFFC0
3FFFFFFFC0
7FFFFFFFC0
7FFFFFFFC0
FFC00001C0
FE00000000
FC00000000
FC00000000
FC00000000
FC00000000
FC00000000
FC00000000
FC00000000
FC00000000
FC00000000
FC00000000
FC00000000
FC00000000
FC00000000
FC00000000
FC00000000
FC00000000
FC00000000
FC00000000
FC00000000
FC007FFFC0
FC007FFFC0
FC007FFFC0
FC007FFFC0
FC007FFFC0
FC00000FC0
FC00000FC0
FC00000FC0
FC00000FC0
FC00000FC0
FC00000FC0
FC00000FC0
FC00000FC0
FC00000FC0
FC00000FC0
FC00000FC0
FC00000FC0
FC00000FC0
FC00000FC0
FC00000FC0
FC00000FC0
FC00000FC0
FC00000FC0
FC00000FC0
FC00000FC0
FC00000FC0
FE00001FC0
FFC000FFC0
7FFFFFFF80
7FFFFFFF80
3FFFFFFF00
1FFFFFFE00
07FFFFF800
ENDCHAR
STARTCHAR 0048
ENCODING 72
SWIDTH 547 0
DWIDTH 46 0
BBX 34 58 6 1
BITMAP
FC00000FC0
FC00000FC0
FC00000FC0
FC00000FC0
FC00000FC0
FC00000FC0
FC00000FC0
FC00000FC0
FC00000FC0
FC00000FC0
FC00000FC0
FC00000FC0
FC00000FC0
FC00000FC0
FC00000FC0
FC00000FC0
FC00000FC0
FC00000FC0
FC00000FC0
FC00000FC0
FC00000FC0
FC00000FC0
FC00000FC0
FC00000FC0
FC00000FC0
FFFFFFFFC0
FFFFFFFFC0
FFFFFFFFC0
FFFFFFFFC0
FFFFFFFFC0
FC00000FC0
FC00000FC0
FC00000FC0
FC00000FC0
FC00000FC0
FC00000FC0
FC00000FC0
FC00000FC0
FC00000FC0
FC00000FC0
FC00000FC0
FC00000FC0
FC00000FC0
FC00000FC0
FC00000FC0
FC00000FC0
FC00000FC0
FC00000FC0
FC00000FC0
FC00000FC0
FC00000FC0
FC00000FC0
FC00000FC0
FC00000FC0
FC00000FC0
FC00000FC0
FC00000FC0
FC00000FC0
ENDCHAR
STARTCHAR 0049
ENCODING 73
SWIDTH 226 0
DWIDTH 19 0
BBX 6 59 6 0
BITMAP
FC
FC
FC
FC
FC
FC
FC
FC
FC
FC
FC
FC
FC
FC
FC
FC
FC
FC
FC
FC
FC
FC
FC
FC
FC
FC
FC
FC
FC
FC
FC
FC
FC
FC
FC
FC
FC
FC
FC
FC
FC
FC
FC
FC
FC
FC
FC
FC
FC
FC
FC
FC
FC
FC
FC
FC
FC
FC
FC
ENDCHAR
STARTCHAR 004A
ENCODING 74
SWIDTH 333 0
DWIDTH 28 0
BBX 20 59 1 0
BITMAP
0003F0
0003F0
0003F0
0003F0
0003F0
0003F0
0003F0
0003F0
0003F0
0003F0
0003F0
0003F0
0003F0
0003F0
0003F0
0003F0
0003F0
0003F0
0003F0
0003F0
0003F0
0003F0
0003F0
0003F0
0003F0
0003F0
0003F0
0003F0
0003F0
0003F0
0003F0
0003F0
0003F0
0003F0
0003F0
0003F0
0003F0
0003F0
0003F0
0003F0
0003F0
0003F0
0003F0
0003F0
0003F0
0003F0
0003F0
0003F0
0003F0
0003F0
0003F0
0003F0
0007F0
C01FF0
FFFFE0
FFFFE0
FFFFC0
FFFF80
FFFE00
ENDCHAR
STARTCHAR 004B
ENCODING 75
SWIDTH 523 0
DWIDTH 44 0
BBX 35 58 6 1
BITMAP
FC00001FC0
FC00001F80
FC00003F80
FC00003F00
FC00007F00
FC00007F00
FC0000FE00
FC0000FE00
FC0001FC00
FC0001FC00
FC0001F800
FC0003F800
FC0003F000
FC0007F000
FC0007E000
FC000FE000
FC000FC000
FC001FC000
FC001FC000
FC001F8000
FC003F8000
FC003F0000
FC007F0000
FC00FE0000
FC01FE0000
FFFFFC0000
FFFFF80000
FFFFE00000
FFFFF80000
FFFFFC0000
FC01FE0000
FC007F0000
FC007F0000
FC003F0000
FC003F8000
FC001F8000
FC001FC000
FC001FC000
FC000FE000
FC000FE000
FC0007F000
FC0007F000
FC0003F000
FC0003F800
FC0003F800
FC0001FC00
FC0001FC00
FC0000FE00
FC0000FE00
FC00007F00
FC00007F00
FC00003F80
FC00003F80
FC00003F80
FC00001FC0
FC00001FC0
FC00000FE0
FC00000FE0
ENDCHAR
STARTCHAR 004C
ENCODING 76
SWIDTH 452 0
DWIDTH 38 0
BBX 31 59 6 0
BITMAP
FC000000
FC000000
FC000000
FC000000
FC000000
FC000000
FC000000
FC000000
FC000000
FC000000
FC000000
FC000000
FC000000
FC000000
FC000000
FC000000
FC000000
FC000000
FC000000
FC000000
FC000000
FC000000
FC000000
FC000000
FC000000
FC000000
FC000000
FC000000
FC000000
FC000000
FC000000
FC000000
FC000000
FC000000
FC000000
FC000000
FC000000
FC000000
FC000000
FC000000
FC000000
FC000000
FC000000
FC000000
FC000000
FC000000
FC000000
FC000000
FC000000
FC000000
FC000000
FC000000
FC000000
FC000002
FFFFFFFE
FFFFFFFE
FFFFFFFE
FFFFFFFE
FFFFFFFE
ENDCHAR
STARTCHAR 004D
ENCODING 77
SWIDTH 654 0
DWIDTH 55 0
BBX 43 59 6 0
BITMAP
FFC000003FE0
FFC000007FE0
FFC000007FE0
FFE000007FE0
FFE00000FFE0
FFE00000FFE0
FFF00000FFE0
FFF00001FFE0
FFF00001FFE0
FDF80001F7E0
FDF80003F7E0
FDF80003F7E0
FCFC0003E7E0
FCFC0007E7E0
FCFC0007E7E0
FC7E0007C7E0
FC7E000FC7E0
FC7E000FC7E0
FC3F000F87E0
FC3F001F87E0
FC3F001F87E0
FC1F801F07E0
FC1F803F07E0
FC1F803E07E0
FC0FC03E07E0
FC0FC07E07E0
FC0FC07C07E0
FC07E07C07E0
FC07E0FC07E0
FC07E0F807E0
FC03F0F807E0
FC03F1F807E0
FC03F1F007E0
FC01F9F007E0
FC01FBF007E0
FC01FBE007E0
FC00FFE007E0
FC00FFE007E0
FC00FFC007E0
FC007FC007E0
FC007FC007E0
FC007F8007E0
FC003F8007E0
FC003F8007E0
FC00000007E0
FC00000007E0
FC00000007E0
FC00000007E0
FC00000007E0
FC00000007E0
FC00000007E0
FC00000007E0
FC00000007E0
FC00000007E0
FC00000007E0
FC00000007E0
FC00000007E0
FC00000007E0
FC00000007E0
ENDCHAR
STARTCHAR 004E
ENCODING 78
SWIDTH 559 0
DWIDTH 47 0
BBX 35 59 6 0
BITMAP
FE000007E0
FF000007E0
FF000007E0
FF800007E0
FF800007E0
FFC00007E0
FFC00007E0
FFC00007E0
FFE00007E0
FFE00007E0
FFF00007E0
FFF00007E0
FDF80007E0
FDF80007E0
FCFC0007E0
FCFC0007E0
FC7E0007E0
FC7E0007E0
FC3E0007E0
FC3F0007E0
FC3F0007E0
FC1F8007E0
FC1F8007E0
FC0FC007E0
FC0FC007E0
FC07E007E0
FC07E007E0
FC03E007E0
FC03F007E0
FC03F007E0
FC01F807E0
FC01F807E0
FC00FC07E0
FC00FC07E0
FC007E07E0
FC007E07E0
FC003F07E0
FC003F07E0
FC001F07E0
FC001F87E0
FC001F87E0
FC000FC7E0
FC000FC7E0
FC0007E7E0
FC0007E7E0
FC0003F7E0
FC0003F7E0
FC0001FFE0
FC0001FFE0
FC0000FFE0
FC0000FFE0
FC0000FFE0
FC00007FE0
FC00007FE0
FC00003FE0
FC00003FE0
FC00001FE0
FC00001FE0
FC00000FE0
ENDCHAR
STARTCHAR 004F
ENCODING 79
SWIDTH 547 0
DWIDTH 46 0
BBX 34 59 6 0
BITMAP
07FFFFF800
1FFFFFFE00
3FFFFFFF00
7FFFFFFF80
7FFFFFFF80
FFC000FFC0
FE00001FC0
FC00000FC0
FC00000FC0
FC00000FC0
FC00000FC0
FC00000FC0
FC00000FC0
FC00000FC0
FC00000FC0
FC00000FC0
FC00000FC0
FC00000FC0
FC00000FC0
FC00000FC0
FC00000FC0
FC00000FC0
FC00000FC0
FC00000FC0
FC00000FC0
FC00000FC0
FC00000FC0
FC00000FC0
FC00000FC0
FC00000FC0
FC00000FC0
FC00000FC0
FC00000FC0
FC00000FC0
FC00000FC0
FC00000FC0
FC00000FC0
FC00000FC0
FC00000FC0
FC00000FC0
FC00000FC0
FC00000FC0
FC00000FC0
FC00000FC0
FC00000FC0
FC00000FC0
FC00000FC0
FC00000FC0
FC00000FC0
FC00000FC0
FC00000FC0
FC00000FC0
FE00001FC0
FFC000FFC0
7FFFFFFF80
7FFFFFFF80
3FFFFFFF00
1FFFFFFE00
07FFFFF800
ENDCHAR
STARTCHAR 0050
ENCODING 80
SWIDTH 523 0
DWIDTH 44 0
BBX 34 59 6 0
BITMAP
FFFFFFF800
FFFFFFFE00
FFFFFFFF00
FFFFFFFF80
FFFFFFFF80
FC0000FFC0
FC00001FC0
FC00000FC0
FC00000FC0
FC00000FC0
FC00000FC0
FC00000FC0
FC00000FC0
FC00000FC0
FC00000FC0
FC00000FC0
FC00000FC0
FC00000FC0
FC00000FC0
FC00000FC0
FC00000FC0
FC00000FC0
FC00000FC0
FC00000FC0
FC00000FC0
FC00001FC0
FC00003FC0
FFFFFFFF80
FFFFFFFF80
FFFFFFFF00
FFFFFFFE00
FFFFFFF800
FC00000000
FC00000000
FC00000000
FC00000000
FC00000000
FC00000000
FC00000000
FC00000000
FC00000000
FC00000000
FC00000000
FC00000000
FC00000000
FC00000000
FC00000000
FC00000000
FC00000000
FC00000000
FC00000000
FC00000000
FC00000000
FC00000000
FC00000000
FC00000000
FC00000000
FC00000000
FC00000000
ENDCHAR
STARTCHAR 0051
ENCODING 81
SWIDTH 547 0
DWIDTH 46 0
BBX 34 76 6 -17
BITMAP
07FFFFF800
1FFFFFFE00
3FFFFFFF00
7FFFFFFF80
7FFFFFFF80
FFC000FFC0
FE00001FC0
FC00000FC0
FC00000FC0
FC00000FC0
FC00000FC0
FC00000FC0
FC00000FC0
FC00000FC0
FC00000FC0
FC00000FC0
FC00000FC0
FC00000FC0
FC00000FC0
FC00000FC0
FC00000FC0
FC00000FC0
FC00000FC0
FC00000FC0
FC00000FC0
FC00000FC0
FC00000FC0
FC00000FC0
FC00000FC0
FC00000FC0
FC00000FC0
FC00000FC0
FC00000FC0
FC00000FC0
FC00000FC0
FC00000FC0
FC00000FC0
FC00000FC0
FC00000FC0
FC00000FC0
FC00000FC0
FC00000FC0
FC00000FC0
FC00000FC0
FC00000FC0
FC01C00FC0
FC01E00FC0
FC01E00FC0
FC00E00FC0
FC00F00FC0
FC00F00FC0
FC00780FC0
FE00781FC0
FFC078FFC0
7FFFFFFF80
7FFFFFFF80
3FFFFFFF00
1FFFFFFE00
07FFFFF800
00001F0000
00001F0000
00000F0000
00000F8000
00000F8000
000007C000
000007C000
000007C000
000003E000
000003E000
000003E000
000001F000
000001F000
000001F800
000000F800
000000F800
000000FC00
ENDCHAR
STARTCHAR 0052
ENCODING 82
SWIDTH 559 0
DWIDTH 47 0
BBX 37 59 6 0
BITMAP
FFFFFFF800
FFFFFFFE00
FFFFFFFF00
FFFFFFFF80
FFFFFFFF80
FC0000FFC0
FC00001FC0
FC00000FC0
FC00000FC0
FC00000FC0
FC00000FC0
FC00000FC0
FC00000FC0
FC00000FC0
FC00000FC0
FC00000FC0
FC00000FC0
FC00000FC0
FC00000FC0
FC00000FC0
FC00000FC0
FC00000FC0
FC00000FC0
FC00000FC0
FC00001FC0
FC00003FC0
FFFFFFFF80
FFFFFFFF80
FFFFFFFF00
FFFFFFFE00
FFFFFFFC00
FC000FC000
FC0007E000
FC0007E000
FC0007F000
FC0003F000
FC0003F000
FC0001F800
FC0001F800
FC0001F800
FC0000FC00
FC0000FC00
FC0000FE00
FC00007E00
FC00007E00
FC00007F00
FC00003F00
FC00003F80
FC00001F80
FC00001F80
FC00001FC0
FC00000FC0
FC00000FC0
FC00000FE0
FC000007E0
FC000007F0
FC000007F0
FC000003F0
FC000003F8
ENDCHAR
STARTCHAR 0053
ENCODING 83
SWIDTH 500 0
DWIDTH 42 0
BBX 31 59 5 0
BITMAP
07FFFFFE
1FFFFFFE
3FFFFFFE
7FFFFFFE
7FFFFFFE
FFC0000E
FE000000
FC000000
FC000000
FC000000
FC000000
FC000000
FC000000
FC000000
FC000000
FC000000
FC000000
FE000000
7F000000
7F800000
3FC00000
3FE00000
1FF80000
0FFC0000
03FE0000
01FF0000
00FFC000
007FE000
003FF000
000FF800
0007FC00
0003FF00
0001FF80
00007FC0
00003FE0
00001FF0
00000FF8
000007FC
000001FC
000000FE
000000FE
0000007E
0000007E
0000007E
0000007E
0000007E
0000007E
0000007E
0000007E
0000007E
0000007E
0000007E
000000FE
E00003FE
FFFFFFFC
FFFFFFFC
FFFFFFF8
FFFFFFF0
FFFFFFC0
ENDCHAR
STARTCHAR 0054
ENCODING 84
SWIDTH 464 0
DWIDTH 39 0
BBX 34 59 2 0
BITMAP
FFFFFFFFC0
FFFFFFFFC0
FFFFFFFFC0
FFFFFFFFC0
FFFFFFFFC0
C003F000C0
0003F00000
0003F00000
0003F00000
0003F00000
0003F00000
0003F00000
0003F00000
0003F00000
0003F00000
0003F00000
0003F00000
0003F00000
0003F00000
0003F00000
0003F00000
0003F00000
0003F00000
0003F00000
0003F00000
0003F00000
0003F00000
0003F00000
0003F00000
0003F00000
0003F00000
0003F00000
0003F00000
0003F00000
0003F00000
0003F00000
0003F00000
0003F00000
0003F00000
0003F00000
0003F00000
0003F00000
0003F00000
0003F00000
0003F00000
0003F00000
0003F00000
0003F00000
0003F00000
0003F00000
0003F00000
0003F00000
0003F00000
0003F00000
0003F00000
0003F00000
0003F00000
0003F00000
0003F00000
ENDCHAR
STARTCHAR 0055
ENCODING 85
SWIDTH 547 0
DWIDTH 46 0
BBX 34 59 6 0
BITMAP
FC00000FC0
FC00000FC0
FC00000FC0
FC00000FC0
FC00000FC0
FC00000FC0
FC00000FC0
FC00000FC0
FC00000FC0
FC00000FC0
FC00000FC0
FC00000FC0
FC00000FC0
FC00000FC0
FC00000FC0
FC00000FC0
FC00000FC0
FC00000FC0
FC00000FC0
FC00000FC0
FC00000FC0
FC00000FC0
FC00000FC0
FC00000FC0
FC00000FC0
FC00000FC0
FC00000FC0
FC00000FC0
FC00000FC0
FC00000FC0
FC00000FC0
FC00000FC0
FC00000FC0
FC00000FC0
FC00000FC0
FC00000FC0
FC00000FC0
FC00000FC0
FC00000FC0
FC00000FC0
FC00000FC0
FC00000FC0
FC00000FC0
FC00000FC0
FC00000FC0
FC00000FC0
FC00000FC0
FC00000FC0
FC00000FC0
FC00000FC0
FC00000FC0
FC00000FC0
FE00001FC0
FFC000FFC0
7FFFFFFF80
7FFFFFFF80
3FFFFFFF00
1FFFFFFE00
07FFFFF800
ENDCHAR
STARTCHAR 0056
ENCODING 86
SWIDTH 500 0
DWIDTH 42 0
BBX 41 59 1 0
BITMAP
FE0000001F80
FE0000003F80
7E0000003F00
7F0000003F00
7F0000003F00
7F0000007E00
3F0000007E00
3F8000007E00
3F800000FE00
1F800000FC00
1F800000FC00
1FC00000FC00
1FC00001FC00
0FC00001F800
0FC00001F800
0FE00001F800
07E00003F000
07E00003F000
07F00003F000
07F00007F000
03F00007E000
03F00007E000
03F80007E000
03F8000FC000
01F8000FC000
01F8000FC000
01FC000FC000
00FC001F8000
00FC001F8000
00FE001F8000
00FE003F0000
007E003F0000
007E003F0000
007F003F0000
003F007E0000
003F007E0000
003F007E0000
003F807C0000
001F80FC0000
001F80FC0000
001F80FC0000
001FC1F80000
000FC1F80000
000FC1F80000
000FE1F00000
0007E3F00000
0007E3F00000
0007E3F00000
0007F3E00000
0003F7E00000
0003F7E00000
0003F7C00000
0001FFC00000
0001FFC00000
0001FFC00000
0001FF800000
0000FF800000
0000FF800000
0000FF000000
ENDCHAR
STARTCHAR 0057
ENCODING 87
SWIDTH 761 0
DWIDTH 64 0
BBX 61 59 2 0
BITMAP
FC00000FC00001F8
FE00000FC00001F8
7E00001FC00001F0
7E00001FC00003F0
7E00001FC00003F0
7E00001FE00003F0
7F00001FE00003F0
3F00003FE00007E0
3F00003FE00007E0
3F00003FE00007E0
3F80003FF00007E0
1F80003DF00007C0
1F80007DF0000FC0
1F80007DF0000FC0
1F80007DF0000FC0
0FC0007DF8000F80
0FC00078F8001F80
0FC000F8F8001F80
0FC000F8F8001F80
0FE000F8F8001F00
07E000F8FC003F00
07E000F07C003F00
07E001F07C003F00
07E001F07C003E00
03F001F07C003E00
03F001F07E007E00
03F001E07E007E00
03F003E03E007E00
01F803E03E007C00
01F803E03E00FC00
01F803E03F00FC00
01F803C03F00FC00
01F807C01F00F800
00FC07C01F00F800
00FC07C01F01F800
00FC07C01F81F800
00FC07801F81F000
007E0F800F81F000
007E0F800F83F000
007E0F800F83F000
007E0F800FC3E000
003E0F000FC3E000
003F1F0007C3E000
003F1F0007C7E000
003F1F0007C7E000
003F1F0007E7C000
001F9E0007E7C000
001FBE0003EFC000
001FBE0003EFC000
001FBE0003EF8000
000FBE0003EF8000
000FFC0003FF8000
000FFC0001FF8000
000FFC0001FF0000
0007FC0001FF0000
0007FC0001FF0000
0007F80001FF0000
0007F80000FE0000
0003F80000FE0000
ENDCHAR
STARTCHAR 0058
ENCODING 88
SWIDTH 535 0
DWIDTH 45 0
BBX 43 59 1 0
BITMAP
1FC000007F00
1FC000007F00
0FE00000FE00
0FE00000FE00
07F00001FC00
07F00001FC00
03F80003F800
03F80003F000
01FC0007F000
00FC0007E000
00FE000FE000
007E000FC000
007F001FC000
003F801F8000
003F803F8000
001FC03F0000
001FC07E0000
000FE07E0000
0007E0FC0000
0007F0FC0000
0003F1F80000
0003F9F80000
0001FBF00000
0001FFF00000
0000FFE00000
0000FFC00000
00007FC00000
00003F800000
00007FC00000
00007FC00000
0000FFE00000
0001FFF00000
0001FFF00000
0003FBF80000
0003F1F80000
0007F1FC0000
0007E0FC0000
000FE0FE0000
000FC07E0000
001F807F0000
003F803F8000
003F003F8000
007F001FC000
007E001FC000
00FE000FE000
00FC000FE000
01FC0007F000
03F80003F800
03F80003F800
07F00001FC00
07F00001FC00
0FE00000FE00
0FC00000FE00
1FC000007F00
1F8000007F00
3F8000003F80
7F0000003FC0
7F0000001FC0
FE0000001FE0
ENDCHAR
STARTCHAR 0059
ENCODING 89
SWIDTH 523 0
DWIDTH 44 0
BBX 43 59 0 0
BITMAP
FF0000000FE0
7F0000000FE0
7F8000001FC0
3F8000001FC0
3FC000003F80
1FC000003F80
0FE000007F00
0FE000007F00
07F00000FE00
07F00000FC00
03F80001FC00
03F80001F800
01FC0003F800
01FE0007F000
00FE0007F000
007F000FE000
007F000FE000
003F801FC000
003F801F8000
001FC03F8000
001FC03F0000
000FE07F0000
0007E07E0000
0007F0FE0000
0003F9FC0000
0003F9FC0000
0001FFF80000
0001FFF00000
0000FFF00000
00007FE00000
00007FE00000
00003FC00000
00003FC00000
00001F800000
00001F800000
00001F800000
00001F800000
00001F800000
00001F800000
00001F800000
00001F800000
00001F800000
00001F800000
00001F800000
00001F800000
00001F800000
00001F800000
00001F800000
00001F800000
00001F800000
00001F800000
00001F800000
00001F800000
00001F800000
00001F800000
00001F800000
00001F800000
00001F800000
00001F800000
ENDCHAR
STARTCHAR 005A
ENCODING 90
SWIDTH 500 0
DWIDTH 42 0
BBX 35 59 4 0
BITMAP
FFFFFFFFE0
FFFFFFFFE0
FFFFFFFFE0
FFFFFFFFC0
FFFFFFFFC0
E000001F80
0000001F80
0000003F00
0000003F00
0000007E00
0000007E00
000000FC00
000000FC00
000001F800
000001F800
000003F000
000007F000
000007E000
00000FC000
00000FC000
00001F8000
00001F8000
00003F0000
00003F0000
00007E0000
00007E0000
0000FC0000
0000FC0000
0001F80000
0003F80000
0003F00000
0007F00000
0007E00000
000FE00000
000FC00000
001F800000
001F800000
003F000000
003F000000
007E000000
007E000000
00FC000000
01FC000000
01F8000000
03F8000000
03F0000000
07F0000000
07E0000000
0FE0000000
0FC0000000
1F80000000
1F80000000
3F00000000
3F00000020
7FFFFFFFE0
FFFFFFFFE0
FFFFFFFFE0
FFFFFFFFE0
FFFFFFFFE0
ENDCHAR
STARTCHAR 005B
ENCODING 91
SWIDTH 380 0
DWIDTH 32 0
BBX 17 76 7 -17
BITMAP
FFFF80
FFFF80
FFFF80
FFFF80
FFFF80
FC0000
FC0000
FC0000
FC0000
FC0000
FC0000
FC0000
FC0000
FC0000
FC0000
FC0000
FC0000
FC0000
FC0000
FC0000
FC0000
FC0000
FC0000
FC0000
FC0000
FC0000
FC0000
FC0000
FC0000
FC0000
FC0000
FC0000
FC0000
FC0000
FC0000
FC0000
FC0000
FC0000
FC0000
FC0000
FC0000
FC0000
FC0000
FC0000
FC0000
FC0000
FC0000
FC0000
FC0000
FC0000
FC0000
FC0000
FC0000
FC0000
FC0000
FC0000
FC0000
FC0000
FC0000
FC0000
FC0000
FC0000
FC0000
FC0000
FC0000
FC0000
FC0000
FC0000
FC0000
FC0000
FC0000
FFFF80
FFFF80
FFFF80
FFFF80
FFFF80
ENDCHAR
STARTCHAR 005C
ENCODING 92
SWIDTH 428 0
DWIDTH 36 0
BBX 35 59 0 0
BITMAP
FE00000000
7E00000000
7F00000000
3F00000000
3F80000000
1F80000000
1FC0000000
0FC0000000
0FE0000000
07E0000000
07F0000000
03F0000000
03F8000000
01F8000000
01FC000000
00FC000000
00FE000000
007E000000
007F000000
003F000000
003F800000
001F800000
001FC00000
000FC00000
000FE00000
0007E00000
0007F00000
0003F00000
0003F80000
0001F80000
0001FC0000
0000FC0000
0000FE0000
00007E0000
00007F0000
00003F0000
00003F8000
00001F8000
00001FC000
00000FC000
00000FE000
000007E000
000007F000
000003F000
000003F800
000001F800
000001FC00
000000FC00
000000FC00
0000007E00
0000007E00
0000003F00
0000003F00
0000001F80
0000001F80
0000000FC0
0000000FC0
00000007E0
00000007E0
ENDCHAR
STARTCHAR 005D
ENCODING 93
SWIDTH 345 0
DWIDTH 29 0
BBX 17 76 5 -17
BITMAP
FFFF80
FFFF80
FFFF80
FFFF80
FFFF80
001F80
001F80
001F80
001F80
001F80
001F80
001F80
001F80
001F80
001F80
001F80
001F80
001F80
001F80
001F80
001F80
001F80
001F80
001F80
001F80
001F80
001F80
001F80
001F80
001F80
001F80
001F80
001F80
001F80
001F80
001F80
001F80
001F80
001F80
001F80
001F80
001F80
001F80
001F80
001F80
001F80
001F80
001F80
001F80
001F80
001F80
001F80
001F80
001F80
001F80
001F80
001F80
001F80
001F80
001F80
001F80
001F80
001F80
001F80
001F80
001F80
001F80
001F80
001F80
001F80
001F80
FFFF80
FFFF80
FFFF80
FFFF80
FFFF80
ENDCHAR
STARTCHAR 005E
ENCODING 94
SWIDTH 357 0
DWIDTH 30 0
BBX 29 23 1 36
BITMAP
00070000
000F8000
001FC000
001FC000
003FE000
003FE000
007DF000
0079F000
00F8F800
01F0FC00
01F07C00
03E03E00
03C03E00
07C01F00
07801F00
0F800F80
0F000780
1E0007C0
3E0003E0
3C0001E0
7C0001F0
780000F0
F00000F8
ENDCHAR
STARTCHAR 005F
ENCODING 95
SWIDTH 726 0
DWIDTH 61 0
BBX 51 5 5 -11
BITMAP
FFFFFFFFFFFFE0
FFFFFFFFFFFFE0
FFFFFFFFFFFFE0
FFFFFFFFFFFFE0
FFFFFFFFFFFFE0
ENDCHAR
STARTCHAR 0060
ENCODING 96
SWIDTH 333 0
DWIDTH 28 0
BBX 14 12 7 47
BITMAP
FC00
7E00
3F00
1F00
0F80
07C0
07E0
03E0
01F0
00F8
007C
003C
ENDCHAR
STARTCHAR 0061
ENCODING 97
SWIDTH 464 0
DWIDTH 39 0
BBX 28 42 5 0
BITMAP
FFFFFE00
FFFFFF80
FFFFFFC0
FFFFFFE0
FFFFFFE0
00000FF0
000007F0
000003F0
000003F0
000003F0
000003F0
000003F0
000003F0
000003F0
000003F0
000003F0
07FFFFF0
1FFFFFF0
3FFFFFF0
7FFFFFF0
7F0003F0
FE0003F0
FC0003F0
FC0003F0
FC0003F0
FC0003F0
FC0003F0
FC0003F0
FC0003F0
FC0003F0
FC0003F0
FC0003F0
FC0003F0
FC0003F0
FC0003F0
FE0003F0
FF0003F0
7FFFFFF0
7FFFFFF0
3FFFFFF0
1FFFFFF0
07FFFFF0
ENDCHAR
STARTCHAR 0062
ENCODING 98
SWIDTH 464 0
DWIDTH 39 0
BBX 28 59 6 0
BITMAP
FC000000
FC000000
FC000000
FC000000
FC000000
FC000000
FC000000
FC000000
FC000000
FC000000
FC000000
FC000000
FC000000
FC000000
FC000000
FC000000
FC000000
FFFFFE00
FFFFFF80
FFFFFFC0
FFFFFFE0
FFFFFFE0
FC000FF0
FC0007F0
FC0003F0
FC0003F0
FC0003F0
FC0003F0
FC0003F0
FC0003F0
FC0003F0
FC0003F0
FC0003F0
FC0003F0
FC0003F0
FC0003F0
FC0003F0
FC0003F0
FC0003F0
FC0003F0
FC0003F0
FC0003F0
FC0003F0
FC0003F0
FC0003F0
FC0003F0
FC0003F0
FC0003F0
FC0003F0
FC0003F0
FC0003F0
FC0003F0
FC0007F0
FC0007F0
FFFFFFE0
FFFFFFE0
FFFFFFC0
FFFFFF80
FFFFFE00
ENDCHAR
STARTCHAR 0063
ENCODING 99
SWIDTH 392 0
DWIDTH 33 0
BBX 24 42 6 0
BITMAP
07FFFF
1FFFFF
3FFFFF
7FFFFF
7FFFFF
FF0000
FE0000
FC0000
FC0000
FC0000
FC0000
FC0000
FC0000
FC0000
FC0000
FC0000
FC0000
FC0000
FC0000
FC0000
FC0000
FC0000
FC0000
FC0000
FC0000
FC0000
FC0000
FC0000
FC0000
FC0000
FC0000
FC0000
FC0000
FC0000
FC0000
FE0000
FF0000
7FFFFF
7FFFFF
3FFFFF
1FFFFF
07FFFF
ENDCHAR
STARTCHAR 0064
ENCODING 100
SWIDTH 464 0
DWIDTH 39 0
BBX 28 59 6 0
BITMAP
000003F0
000003F0
000003F0
000003F0
000003F0
000003F0
000003F0
000003F0
000003F0
000003F0
000003F0
000003F0
000003F0
000003F0
000003F0
000003F0
000003F0
07FFFFF0
1FFFFFF0
3FFFFFF0
7FFFFFF0
7FFFFFF0
FF0003F0
FE0003F0
FC0003F0
FC0003F0
FC0003F0
FC0003F0
FC0003F0
FC0003F0
FC0003F0
FC0003F0
FC0003F0
FC0003F0
FC0003F0
FC0003F0
FC0003F0
FC0003F0
FC0003F0
FC0003F0
FC0003F0
FC0003F0
FC0003F0
FC0003F0
FC0003F0
FC0003F0
FC0003F0
FC0003F0
FC0003F0
FC0003F0
FC0003F0
FC0003F0
FE0003F0
FF0003F0
7FFFFFF0
7FFFFFF0
3FFFFFF0
1FFFFFF0
07FFFFF0
ENDCHAR
STARTCHAR 0065
ENCODING 101
SWIDTH 452 0
DWIDTH 38 0
BBX 28 42 6 0
BITMAP
07FFFE00
1FFFFF80
3FFFFFC0
7FFFFFE0
7FFFFFE0
FE0007F0
FE0007F0
FC0003F0
FC0003F0
FC0003F0
FC0003F0
FC0003F0
FC0003F0
FC0003F0
FC0003F0
FC0003F0
FFFFFFF0
FFFFFFF0
FFFFFFF0
FFFFFFF0
FC000000
FC000000
FC000000
FC000000
FC000000
FC000000
FC000000
FC000000
FC000000
FC000000
FC000000
FC000000
FC000000
FC000000
FC000000
FE000000
FF000000
7FFFFFF0
7FFFFFF0
3FFFFFF0
1FFFFFF0
07FFFFF0
ENDCHAR
STARTCHAR 0066
ENCODING 102
SWIDTH 273 0
DWIDTH 23 0
BBX 17 59 6 0
BITMAP
07FF80
1FFF80
3FFF80
7FFF80
7FFF80
FF0000
FE0000
FC0000
FC0000
FC0000
FC0000
FC0000
FC0000
FC0000
FC0000
FC0000
FC0000
FFFF80
FFFF80
FFFF80
FFFF80
FFFF80
FC0000
FC0000
FC0000
FC0000
FC0000
FC0000
FC0000
FC0000
FC0000
FC0000
FC0000
FC0000
FC0000
FC0000
FC0000
FC0000
FC0000
FC0000
FC0000
FC0000
FC0000
FC0000
FC0000
FC0000
FC0000
FC0000
FC0000
FC0000
FC0000
FC0000
FC0000
FC0000
FC0000
FC0000
FC0000
FC0000
FC0000
ENDCHAR
STARTCHAR 0067
ENCODING 103
SWIDTH 464 0
DWIDTH 39 0
BBX 28 59 6 -17
BITMAP
07FFFFF0
1FFFFFF0
3FFFFFF0
7FFFFFF0
7FFFFFF0
FF0003F0
FE0003F0
FC0003F0
FC0003F0
FC0003F0
FC0003F0
FC0003F0
FC0003F0
FC0003F0
FC0003F0
FC0003F0
FC0003F0
FC0003F0
FC0003F0
FC0003F0
FC0003F0
FC0003F0
FC0003F0
FC0003F0
FC0003F0
FC0003F0
FC0003F0
FC0003F0
FC0003F0
FC0003F0
FC0003F0
FC0003F0
FC0003F0
FC0003F0
FC0003F0
FE0003F0
FF0003F0
7FFFFFF0
7FFFFFF0
3FFFFFF0
1FFFFFF0
07FFFFF0
000003F0
000003F0
000003F0
000003F0
000003F0
000003F0
000003F0
000003F0
000003F0
000003F0
000007F0
00000FF0
FFFFFFE0
FFFFFFE0
FFFFFFC0
FFFFFF80
FFFFFC00
ENDCHAR
STARTCHAR 0068
ENCODING 104
SWIDTH 464 0
DWIDTH 39 0
BBX 28 59 6 0
BITMAP
FC000000
FC000000
FC000000
FC000000
FC000000
FC000000
FC000000
FC000000
FC000000
FC000000
FC000000
FC000000
FC000000
FC000000
FC000000
FC000000
FC000000
FFFFFE00
FFFFFF80
FFFFFFC0
FFFFFFE0
FFFFFFE0
FC000FF0
FC0007F0
FC0003F0
FC0003F0
FC0003F0
FC0003F0
FC0003F0
FC0003F0
FC0003F0
FC0003F0
FC0003F0
FC0003F0
FC0003F0
FC0003F0
FC0003F0
FC0003F0
FC0003F0
FC0003F0
FC0003F0
FC0003F0
FC0003F0
FC0003F0
FC0003F0
FC0003F0
FC0003F0
FC0003F0
FC0003F0
FC0003F0
FC0003F0
FC0003F0
FC0003F0
FC0003F0
FC0003F0
FC0003F0
FC0003F0
FC0003F0
FC0003F0
ENDCHAR
STARTCHAR 0069
ENCODING 105
SWIDTH 202 0
DWIDTH 17 0
BBX 6 54 6 0
BITMAP
FC
FC
FC
FC
FC
FC
00
00
00
00
00
00
FC
FC
FC
FC
FC
FC
FC
FC
FC
FC
FC
FC
FC
FC
FC
FC
FC
FC
FC
FC
FC
FC
FC
FC
FC
FC
FC
FC
FC
FC
FC
FC
FC
FC
FC
FC
FC
FC
FC
FC
FC
FC
ENDCHAR
STARTCHAR 006A
ENCODING 106
SWIDTH 202 0
DWIDTH 17 0
BBX 9 71 3 -17
BITMAP
1F80
1F80
1F80
1F80
1F80
1F80
0000
0000
0000
0000
0000
0000
1F80
1F80
1F80
1F80
1F80
1F80
1F80
1F80
1F80
1F80
1F80
1F80
1F80
1F80
1F80
1F80
1F80
1F80
1F80
1F80
1F80
1F80
1F80
1F80
1F80
1F80
1F80
1F80
1F80
1F80
1F80
1F80
1F80
1F80
1F80
1F80
1F80
1F80
1F80
1F80
1F80
1F80
1F80
1F80
1F80
1F80
1F80
1F80
1F80
3F00
3F00
3F00
3F00
3F00
7F00
7E00
7E00
FE00
FC00
ENDCHAR
STARTCHAR 006B
ENCODING 107
SWIDTH 440 0
DWIDTH 37 0
BBX 29 59 6 1
BITMAP
FC000000
FC000000
FC000000
FC000000
FC000000
FC000000
FC000000
FC000000
FC000000
FC000000
FC000000
FC000000
FC000000
FC000000
FC000000
FC000000
FC000000
FC0003F0
FC0007E0
FC0007E0
FC000FC0
FC000FC0
FC001FC0
FC001F80
FC003F80
FC003F00
FC003F00
FC007E00
FC007E00
FC00FC00
FC00FC00
FC01F800
FC03F800
FFFFF000
FFFFE000
FFFFC000
FFFFF000
FFFFF000
FC03F800
FC01F800
FC00FC00
FC00FC00
FC00FE00
FC007E00
FC007E00
FC003F00
FC003F00
FC003F80
FC001F80
FC001F80
FC001FC0
FC000FC0
FC000FE0
FC0007E0
FC0007E0
FC0007F0
FC0003F0
FC0003F8
FC0001F8
ENDCHAR
STARTCHAR 006C
ENCODING 108
SWIDTH 202 0
DWIDTH 17 0
BBX 6 59 6 0
BITMAP
FC
FC
FC
FC
FC
FC
FC
FC
FC
FC
FC
FC
FC
FC
FC
FC
FC
FC
FC
FC
FC
FC
FC
FC
FC
FC
FC
FC
FC
FC
FC
FC
FC
FC
FC
FC
FC
FC
FC
FC
FC
FC
FC
FC
FC
FC
FC
FC
FC
FC
FC
FC
FC
FC
FC
FC
FC
FC
FC
ENDCHAR
STARTCHAR 006D
ENCODING 109
SWIDTH 678 0
DWIDTH 57 0
BBX 45 42 6 0
BITMAP
FFFFE01FFF00
FFFFF87FFFC0
FFFFFC7FFFE0
FFFFFEFFFFF0
FFFFFEFFFFF0
FC003FF007F8
FC001FE003F8
FC000FC001F8
FC000FC001F8
FC000FC001F8
FC000FC001F8
FC000FC001F8
FC000FC001F8
FC000FC001F8
FC000FC001F8
FC000FC001F8
FC000FC001F8
FC000FC001F8
FC000FC001F8
FC000FC001F8
FC000FC001F8
FC000FC001F8
FC000FC001F8
FC000FC001F8
FC000FC001F8
FC000FC001F8
FC000FC001F8
FC000FC001F8
FC000FC001F8
FC000FC001F8
FC000FC001F8
FC000FC001F8
FC000FC001F8
FC000FC001F8
FC000FC001F8
FC000FC001F8
FC000FC001F8
FC000FC001F8
FC000FC001F8
FC000FC001F8
FC000FC001F8
FC000FC001F8
ENDCHAR
STARTCHAR 006E
ENCODING 110
SWIDTH 464 0
DWIDTH 39 0
BBX 28 42 6 0
BITMAP
FFFFFE00
FFFFFF80
FFFFFFC0
FFFFFFE0
FFFFFFE0
FC000FF0
FC0007F0
FC0003F0
FC0003F0
FC0003F0
FC0003F0
FC0003F0
FC0003F0
FC0003F0
FC0003F0
FC0003F0
FC0003F0
FC0003F0
FC0003F0
FC0003F0
FC0003F0
FC0003F0
FC0003F0
FC0003F0
FC0003F0
FC0003F0
FC0003F0
FC0003F0
FC0003F0
FC0003F0
FC0003F0
FC0003F0
FC0003F0
FC0003F0
FC0003F0
FC0003F0
FC0003F0
FC0003F0
FC0003F0
FC0003F0
FC0003F0
FC0003F0
ENDCHAR
STARTCHAR 006F
ENCODING 111
SWIDTH 464 0
DWIDTH 39 0
BBX 28 42 6 0
BITMAP
07FFFE00
1FFFFF80
3FFFFFC0
7FFFFFE0
7FFFFFE0
FF000FF0
FE0007F0
FC0003F0
FC0003F0
FC0003F0
FC0003F0
FC0003F0
FC0003F0
FC0003F0
FC0003F0
FC0003F0
FC0003F0
FC0003F0
FC0003F0
FC0003F0
FC0003F0
FC0003F0
FC0003F0
FC0003F0
FC0003F0
FC0003F0
FC0003F0
FC0003F0
FC0003F0
FC0003F0
FC0003F0
FC0003F0
FC0003F0
FC0003F0
FC0003F0
FE0007F0
FF0007F0
7FFFFFE0
7FFFFFE0
3FFFFFC0
1FFFFF80
07FFFE00
ENDCHAR
STARTCHAR 0070
ENCODING 112
SWIDTH 464 0
DWIDTH 39 0
BBX 28 59 6 -17
BITMAP
FFFFFE00
FFFFFF80
FFFFFFC0
FFFFFFE0
FFFFFFE0
FC000FF0
FC0007F0
FC0003F0
FC0003F0
FC0003F0
FC0003F0
FC0003F0
FC0003F0
FC0003F0
FC0003F0
FC0003F0
FC0003F0
FC0003F0
FC0003F0
FC0003F0
FC0003F0
FC0003F0
FC0003F0
FC0003F0
FC0003F0
FC0003F0
FC0003F0
FC0003F0
FC0003F0
FC0003F0
FC0003F0
FC0003F0
FC0003F0
FC0003F0
FC0003F0
FC0007F0
FC0007F0
FFFFFFE0
FFFFFFE0
FFFFFFC0
FFFFFF80
FFFFFE00
FC000000
FC000000
FC000000
FC000000
FC000000
FC000000
FC000000
FC000000
FC000000
FC000000
FC000000
FC000000
FC000000
FC000000
FC000000
FC000000
FC000000
ENDCHAR
STARTCHAR 0071
ENCODING 113
SWIDTH 464 0
DWIDTH 39 0
BBX 28 59 6 -17
BITMAP
07FFFFF0
1FFFFFF0
3FFFFFF0
7FFFFFF0
7FFFFFF0
FF0003F0
FE0003F0
FC0003F0
FC0003F0
FC0003F0
FC0003F0
FC0003F0
FC0003F0
FC0003F0
FC0003F0
FC0003F0
FC0003F0
FC0003F0
FC0003F0
FC0003F0
FC0003F0
FC0003F0
FC0003F0
FC0003F0
FC0003F0
FC0003F0
FC0003F0
FC0003F0
FC0003F0
FC0003F0
FC0003F0
FC0003F0
FC0003F0
FC0003F0
FC0003F0
FE0003F0
FF0003F0
7FFFFFF0
7FFFFFF0
3FFFFFF0
1FFFFFF0
07FFFFF0
000003F0
000003F0
000003F0
000003F0
000003F0
000003F0
000003F0
000003F0
000003F0
000003F0
000003F0
000003F0
000003F0
000003F0
000003F0
000003F0
000003F0
ENDCHAR
STARTCHAR 0072
ENCODING 114
SWIDTH 297 0
DWIDTH 25 0
BBX 19 42 6 0
BITMAP
FC7FE0
FCFFE0
FDFFE0
FFFFE0
FFFFE0
FFC060
FE0000
FE0000
FC0000
FC0000
FC0000
FC0000
FC0000
FC0000
FC0000
FC0000
FC0000
FC0000
FC0000
FC0000
FC0000
FC0000
FC0000
FC0000
FC0000
FC0000
FC0000
FC0000
FC0000
FC0000
FC0000
FC0000
FC0000
FC0000
FC0000
FC0000
FC0000
FC0000
FC0000
FC0000
FC0000
FC0000
ENDCHAR
STARTCHAR 0073
ENCODING 115
SWIDTH 404 0
DWIDTH 34 0
BBX 26 42 4 0
BITMAP
03FFFFC0
1FFFFFC0
3FFFFFC0
7FFFFFC0
7FFFFFC0
FF000000
FE000000
FC000000
FC000000
FC000000
FC000000
FC000000
FE000000
7F000000
7F800000
3FE00000
3FF00000
1FFC0000
07FE0000
03FF8000
00FFE000
003FF000
001FFC00
0007FE00
0003FF00
0000FF80
00003F80
00001FC0
00001FC0
00000FC0
00000FC0
00000FC0
00000FC0
00000FC0
00000FC0
00001FC0
00003FC0
FFFFFF80
FFFFFF80
FFFFFF00
FFFFFE00
FFFFF800
ENDCHAR
STARTCHAR 0074
ENCODING 116
SWIDTH 297 0
DWIDTH 25 0
BBX 17 53 6 1
BITMAP
0C0000
1C0000
7C0000
FC0000
FC0000
FC0000
FC0000
FC0000
FC0000
FC0000
FC0000
FFFF80
FFFF80
FFFF80
FFFF80
FFFF80
FC0000
FC0000
FC0000
FC0000
FC0000
FC0000
FC0000
FC0000
FC0000
FC0000
FC0000
FC0000
FC0000
FC0000
FC0000
FC0000
FC0000
FC0000
FC0000
FC0000
FC0000
FC0000
FC0000
FC0000
FC0000
FC0000
FC0000
FC0000
FC0000
FC0000
FE0000
FF0000
7FFF80
7FFF80
3FFF80
1FFF80
07FF80
ENDCHAR
STARTCHAR 0075
ENCODING 117
SWIDTH 464 0
DWIDTH 39 0
BBX 28 42 6 0
BITMAP
FC0003F0
FC0003F0
FC0003F0
FC0003F0
FC0003F0
FC0003F0
FC0003F0
FC0003F0
FC0003F0
FC0003F0
FC0003F0
FC0003F0
FC0003F0
FC0003F0
FC0003F0
FC0003F0
FC0003F0
FC0003F0
FC0003F0
FC0003F0
FC0003F0
FC0003F0
FC0003F0
FC0003F0
FC0003F0
FC0003F0
FC0003F0
FC0003F0
FC0003F0
FC0003F0
FC0003F0
FC0003F0
FC0003F0
FC0003F0
FC0003F0
FE0003F0
FF0003F0
7FFFFFF0
7FFFFFF0
3FFFFFF0
1FFFFFF0
07FFFFF0
ENDCHAR
STARTCHAR 0076
ENCODING 118
SWIDTH 404 0
DWIDTH 34 0
BBX 32 42 1 0
BITMAP
FE00003F
FE00007F
7E00007E
7E00007E
7F00007E
3F0000FC
3F0000FC
3F8000FC
1F8000F8
1F8001F8
1F8001F8
1FC001F8
0FC003F0
0FC003F0
0FC003F0
07E003E0
07E007E0
07E007E0
03E007C0
03F007C0
03F00FC0
03F00FC0
01F80F80
01F80F80
01F81F80
00F81F00
00FC1F00
00FC3F00
00FC3E00
007C3E00
007E3E00
007E7E00
003E7C00
003F7C00
003F7C00
001FF800
001FF800
001FF800
001FF000
000FF000
000FF000
000FF000
ENDCHAR
STARTCHAR 0077
ENCODING 119
SWIDTH 642 0
DWIDTH 54 0
BBX 50 42 2 0
BITMAP
FE0003F0000FC0
FE0003F8001FC0
7E0003F8001F80
7E0007F8001F80
7F0007F8001F80
7F0007F8003F80
3F0007FC003F00
3F0007FC003F00
3F000FFC003F00
1F800FFC003E00
1F800F7C007E00
1F800F3E007E00
1F800F3E007E00
0FC01F3E007C00
0FC01F3E00FC00
0FC01E3E00FC00
0FC01E1F00FC00
07E01E1F00F800
07E03E1F01F800
07E03E1F01F800
07E03C1F01F000
03F03C0F81F000
03F03C0F83F000
03F07C0F83F000
01F07C0F83E000
01F0780F83E000
01F87807C3E000
01F87807C7E000
00F8F807C7C000
00F8F807C7C000
00FCF007C7C000
00FCF003CF8000
007CF003EF8000
007DF003EF8000
007FF003EF8000
007FE003FF0000
003FE001FF0000
003FE001FF0000
003FE001FF0000
003FE001FE0000
001FC001FE0000
001FC000FE0000
ENDCHAR
STARTCHAR 0078
ENCODING 120
SWIDTH 428 0
DWIDTH 36 0
BBX 33 42 2 0
BITMAP
FE00003F80
7F00007F00
3F00007E00
3F8000FE00
1FC000FC00
1FC001FC00
0FE001F800
07E003F000
07F007F000
03F807E000
01F80FC000
01FC0FC000
00FC1F8000
00FE3F8000
007E3F0000
003F7E0000
003FFE0000
001FFC0000
000FF80000
000FF80000
0007F00000
0007F00000
000FF80000
000FF80000
001FFC0000
003FFE0000
003F7E0000
007E3F0000
007E3F8000
00FC1F8000
01FC1FC000
01F80FC000
03F007E000
07F007F000
07E003F000
0FE003F800
0FC001FC00
1F8000FC00
3F8000FE00
3F00007E00
7F00007F00
FE00003F80
ENDCHAR
STARTCHAR 0079
ENCODING 121
SWIDTH 404 0
DWIDTH 34 0
BBX 32 59 1 -17
BITMAP
FE00003F
FE00007F
7E00007E
7E00007E
7F00007E
3F0000FC
3F0000FC
3F0000FC
1F8000F8
1F8001F8
1F8001F8
1FC001F8
0FC003F0
0FC003F0
0FC003F0
07E003E0
07E007E0
07E007E0
03E007C0
03F007C0
03F00FC0
03F00FC0
01F80F80
01F80F80
01F81F80
00F81F00
00FC1F00
00FC1F00
00FC3E00
007C3E00
007E3E00
007E7E00
003E7C00
003E7C00
003F7C00
001FF800
001FF800
001FF800
001FF000
000FF000
000FF000
000FE000
0007E000
0007E000
0007E000
000FC000
000FC000
000FC000
001F8000
001F8000
001F8000
003F0000
003F0000
003F0000
007F0000
007E0000
007E0000
00FE0000
00FC0000
ENDCHAR
STARTCHAR 007A
ENCODING 122
SWIDTH 404 0
DWIDTH 34 0
BBX 28 42 3 0
BITMAP
FFFFFFF0
FFFFFFF0
FFFFFFF0
FFFFFFE0
FFFFFFE0
000007C0
00000FC0
00001F80
00001F00
00003F00
00003E00
00007E00
0000FC00
0000F800
0001F800
0001F000
0003F000
0007E000
0007C000
000FC000
001F8000
001F8000
003F0000
003E0000
007E0000
00FC0000
00FC0000
01F80000
01F00000
03F00000
07E00000
07E00000
0FC00000
0F800000
1F800000
3F000000
3F000000
7FFFFFF0
FFFFFFF0
FFFFFFF0
FFFFFFF0
FFFFFFF0
ENDCHAR
STARTCHAR 007B
ENCODING 123
SWIDTH 333 0
DWIDTH 28 0
BBX 22 76 2 -17
BITMAP
0001FC
000FFC
003FFC
007FFC
00FFFC
01FFC0
03FC00
03F800
03F000
03F000
07E000
07E000
07E000
07E000
07E000
07E000
07E000
07E000
07E000
07E000
07E000
07E000
07E000
07E000
07E000
07E000
07E000
07E000
07E000
07E000
07E000
07E000
07E000
0FC000
1FC000
FF8000
FF0000
FF0000
FF8000
3FC000
0FE000
0FE000
07E000
07E000
07E000
07E000
07E000
07E000
07E000
07E000
07E000
07E000
07E000
07E000
07E000
07E000
07E000
07E000
07E000
07E000
07E000
07E000
07E000
07E000
07E000
07E000
07F000
03F000
03F800
03FC00
01FF80
00FFFC
00FFFC
003FFC
000FFC
0001FC
ENDCHAR
STARTCHAR 007C
ENCODING 124
SWIDTH 214 0
DWIDTH 18 0
BBX 6 76 6 -17
BITMAP
FC
FC
FC
FC
FC
FC
FC
FC
FC
FC
FC
FC
FC
FC
FC
FC
FC
FC
FC
FC
FC
FC
FC
FC
FC
FC
FC
FC
FC
FC
FC
FC
FC
FC
FC
FC
FC
FC
FC
FC
FC
FC
FC
FC
FC
FC
FC
FC
FC
FC
FC
FC
FC
FC
FC
FC
FC
FC
FC
FC
FC
FC
FC
FC
FC
FC
FC
FC
FC
FC
FC
FC
FC
FC
FC
FC
ENDCHAR
STARTCHAR 007D
ENCODING 125
SWIDTH 333 0
DWIDTH 28 0
BBX 22 76 4 -17
BITMAP
FE0000
FFE000
FFF000
FFFC00
FFFE00
0FFE00
00FF00
007F00
003F00
003F80
001F80
001F80
001F80
001F80
001F80
001F80
001F80
001F80
001F80
001F80
001F80
001F80
001F80
001F80
001F80
001F80
001F80
001F80
001F80
001F80
001F80
001F80
001FC0
000FC0
000FF0
0007FC
0003FC
0003FC
0007FC
000FF0
000FC0
001FC0
001F80
001F80
001F80
001F80
001F80
001F80
001F80
001F80
001F80
001F80
001F80
001F80
001F80
001F80
001F80
001F80
001F80
001F80
001F80
001F80
001F80
001F80
001F80
001F80
003F80
003F00
007F00
00FF00
07FE00
FFFC00
FFFC00
FFF000
FFC000
FE0000
ENDCHAR
STARTCHAR 007E
ENCODING 126
SWIDTH 476 0
DWIDTH 40 0
BBX 32 13 4 36
BITMAP
07E0000F
0FF8000F
3FFE000F
3FFF000F
7FFF800F
7C1FC01F
780FF01F
F803FC3F
F001FFFE
F000FFFE
F0003FFC
F0001FF8
F00007E0
ENDCHAR
STARTCHAR 00A0
ENCODING 160
SWIDTH 261 0
DWIDTH 22 0
BBX 0 0 0 0
BITMAP
ENDCHAR
STARTCHAR 00A1
ENCODING 161
SWIDTH 202 0
DWIDTH 17 0
BBX 6 59 5 -17
BITMAP
FC
FC
FC
FC
FC
FC
FC
00
00
00
00
00
00
FC
FC
FC
FC
FC
FC
FC
FC
FC
FC
FC
FC
FC
FC
FC
FC
FC
FC
FC
FC
FC
FC
FC
FC
FC
FC
FC
FC
FC
FC
FC
FC
FC
FC
FC
FC
FC
FC
FC
FC
FC
FC
FC
FC
FC
FC
ENDCHAR
STARTCHAR 00A2
ENCODING 162
SWIDTH 380 0
DWIDTH 32 0
BBX 24 59 4 1
BITMAP
001F00
001F00
001F00
001F00
001F00
001F00
001F00
001F00
07FFFF
1FFFFF
3FFFFF
7FFFFF
7FFFFF
FF0000
FE0000
FC0000
FC0000
FC0000
FC0000
FC0000
FC0000
FC0000
FC0000
FC0000
FC0000
FC0000
FC0000
FC0000
FC0000
FC0000
FC0000
FC0000
FC0000
FC0000
FC0000
FC0000
FC0000
FC0000
FC0000
FC0000
FC0000
FC0000
FC0000
FE0000
FF0000
7FFFFF
7FFFFF
3FFFFF
1FFFFF
07FFFF
001F00
001F00
001F00
001F00
001F00
001F00
001F00
001F00
001F00
ENDCHAR
STARTCHAR 00A3
ENCODING 163
SWIDTH 464 0
DWIDTH 39 0
BBX 34 59 3 0
BITMAP
00FFFE0000
03FFFE0000
07FFFE0000
0FFFFE0000
0FFFFE0000
1FF80E0000
1FC0000000
1F80000000
1F80000000
1F80000000
1F80000000
1F80000000
1F80000000
1F80000000
1F80000000
1F80000000
1F80000000
1F80000000
1F80000000
1F80000000
1F80000000
1F80000000
1F80000000
1F80000000
1F80000000
1F80000000
1F80000000
FFFFFC0000
FFFFFC0000
FFFFFC0000
FFFFFC0000
FFFFFC0000
1F80000000
1F80000000
1F80000000
1F80000000
1F80000000
1F80000000
1F80000000
1F80000000
1F80000000
1F80000000
1F80000000
1F80000000
1F80000000
1F80000000
1F80000000
1F80000000
1F80000000
1F80000000
1F80000000
1F80000000
1F80000000
1F80000040
1FFFFFFFC0
1FFFFFFFC0
1FFFFFFFC0
1FFFFFFFC0
1FFFFFFFC0
ENDCHAR
STARTCHAR 00A4
ENCODING 164
SWIDTH 511 0
DWIDTH 43 0
BBX 40 59 2 1
BITMAP
FC0000003F
7E0000003F
7F0000007E
3F000000FE
3F800000FC
1FC00001FC
1FC00003F8
0FE00003F8
0FE00007F0
07F0000FF0
07FFFFFFE0
03FFFFFFE0
03FFFFFFC0
03FFFFFFC0
03FFFFFFC0
03FC003FC0
03F8001FC0
03F0000FC0
03F0000FC0
03F0000FC0
03F0000FC0
03F0000FC0
03F0000FC0
03F0000FC0
03F0000FC0
03F0000FC0
03F0000FC0
03F0000FC0
03F0000FC0
03F0000FC0
03F0000FC0
03F0000FC0
03F0000FC0
03F0000FC0
03F0000FC0
03F0000FC0
03F0000FC0
03F0000FC0
03F0000FC0
03F0000FC0
03F0000FC0
03F0000FC0
03F8001FC0
03FC003FC0
03FFFFFFC0
03FFFFFFC0
03FFFFFFC0
03FFFFFFE0
07FFFFFFE0
07F00007F0
0FE00007F0
0FE00003F8
1FC00001F8
1F800001FC
3F800000FC
3F000000FE
7F0000007E
7E0000003F
FC0000003F
ENDCHAR
STARTCHAR 00A5
ENCODING 165
SWIDTH 523 0
DWIDTH 44 0
BBX 44 59 0 0
BITMAP
FE00000007F0
FF0000000FE0
7F0000000FE0
7F8000001FC0
3FC000003FC0
1FC000003F80
1FE000007F00
0FE000007F00
0FF00000FE00
07F00000FE00
03F80001FC00
03F80001FC00
01FC0003F800
01FC0003F800
00FE0007F000
00FF000FE000
007F000FE000
003F801FC000
003F801FC000
001FC03F8000
001FC03F8000
000FE07F0000
000FE07E0000
0007F0FE0000
0003F0FC0000
0003F9FC0000
0001FDF80000
0001FFF80000
0000FFF00000
0000FFE00000
00007FE00000
00003FC00000
00003FC00000
00001F800000
00001F800000
00001F800000
00001F800000
00001F800000
0007FFFE0000
0007FFFE0000
0007FFFE0000
0007FFFE0000
00001F800000
00001F800000
00001F800000
00001F800000
00001F800000
00001F800000
00001F800000
00001F800000
00001F800000
00001F800000
00001F800000
00001F800000
00001F800000
00001F800000
00001F800000
00001F800000
00001F800000
ENDCHAR
STARTCHAR 00A7
ENCODING 167
SWIDTH 428 0
DWIDTH 36 0
BBX 28 76 4 -17
BITMAP
03FFFFF0
0FFFFFF0
3FFFFFF0
7FFFFFF0
7FFFFFF0
7F000000
FE000000
FC000000
FC000000
FC000000
FC000000
FC000000
FC000000
FE000000
FF000000
FF800000
FFC00000
FFE00000
FFF00000
FFFC0000
FDFE0000
FCFF0000
FC7FC000
FC3FE000
FC0FF000
FC07F800
FC03FE00
FC00FF00
FC007F80
FC003FC0
FC001FE0
FC000FE0
FC0007F0
FC0003F0
FC0003F0
FC0003F0
FC0003F0
FC0003F0
FC0003F0
FC0003F0
FE0003F0
7E0003F0
7F0003F0
3FC003F0
1FE003F0
0FF003F0
07F803F0
03FE03F0
00FF03F0
007F83F0
003FE3F0
001FF3F0
0007FBF0
0003FFF0
0001FFF0
0000FFF0
00003FF0
00001FF0
00000FF0
000007F0
000003F0
000003F0
000003F0
000003F0
000003F0
000003F0
000003F0
000003F0
000003F0
000007F0
00000FF0
FFFFFFE0
FFFFFFE0
FFFFFFC0
FFFFFF80
FFFFFE00
ENDCHAR
STARTCHAR 00A8
ENCODING 168
SWIDTH 357 0
DWIDTH 30 0
BBX 16 6 7 50
BITMAP
F81F
F81F
F81F
F81F
F81F
F81F
ENDCHAR
STARTCHAR 00A9
ENCODING 169
SWIDTH 666 0
DWIDTH 56 0
BBX 43 59 7 0
BITMAP
07FFFFFFFC00
1FFFFFFFFF00
3FFFFFFFFF80
7FFFFFFFFFC0
7E0000000FC0
FC00000007E0
F800000003E0
F800000003E0
F800000003E0
F80FFFFF83E0
F83FFFFF83E0
F83FFFFF83E0
F87FFFFF83E0
F87C000003E0
F878000003E0
F878000003E0
F878000003E0
F878000003E0
F878000003E0
F878000003E0
F878000003E0
F878000003E0
F878000003E0
F878000003E0
F878000003E0
F878000003E0
F878000003E0
F878000003E0
F878000003E0
F878000003E0
F878000003E0
F878000003E0
F878000003E0
F878000003E0
F878000003E0
F878000003E0
F878000003E0
F878000003E0
F878000003E0
F878000003E0
F878000003E0
F878000003E0
F878000003E0
F878000003E0
F878000003E0
F87C000003E0
F87FFFFF83E0
F83FFFFF83E0
F83FFFFF83E0
F80FFFFF83E0
F800000003E0
F800000003E0
F800000003E0
FC00000007E0
7E0000000FC0
7FFFFFFFFFC0
3FFFFFFFFF80
1FFFFFFFFF00
07FFFFFFFC00
ENDCHAR
STARTCHAR 00AA
ENCODING 170
SWIDTH 464 0
DWIDTH 39 0
BBX 28 59 5 0
BITMAP
FFFFFE00
FFFFFF80
FFFFFFC0
FFFFFFE0
FFFFFFE0
00000FF0
000007F0
000003F0
000003F0
000003F0
000003F0
000003F0
000003F0
000003F0
000003F0
000003F0
07FFFFF0
1FFFFFF0
3FFFFFF0
7FFFFFF0
7F0003F0
FE0003F0
FC0003F0
FC0003F0
FC0003F0
FC0003F0
FC0003F0
FC0003F0
FC0003F0
FC0003F0
FC0003F0
FC0003F0
FC0003F0
FC0003F0
FC0003F0
FE0003F0
FF0003F0
7FFFFFF0
7FFFFFF0
3FFFFFF0
1FFFFFF0
07FFFFF0
00000000
00000000
00000000
00000000
00000000
00000000
00000000
00000000
00000000
00000000
00000000
00000000
FFFFFFF0
FFFFFFF0
FFFFFFF0
FFFFFFF0
FFFFFFF0
ENDCHAR
STARTCHAR 00AB
ENCODING 171
SWIDTH 595 0
DWIDTH 50 0
BBX 44 38 3 6
BITMAP
000002000010
000006000030
00001E000070
00003E0001F0
00007E0003F0
0001FE0007F0
0003FC001FE0
0007F0003FC0
001FE0007F00
003FC001FE00
007F8003FC00
01FE000FF800
03FC001FE000
07F8003FC000
1FF000FF8000
3FC001FF0000
7F8003FC0000
FF0007F80000
FE0007F00000
FE0007F00000
FF0007F80000
FF8007FC0000
7FC003FF0000
1FE000FF8000
0FF8007FC000
07FC001FE000
01FE000FF000
00FF0007FC00
007FC001FE00
001FE000FF00
000FF0007F80
0007F8001FE0
0001FE000FF0
0000FE0007F0
00007E0001F0
00001E0000F0
00000E000070
000006000010
ENDCHAR
STARTCHAR 00AC
ENCODING 172
SWIDTH 464 0
DWIDTH 39 0
BBX 30 27 4 0
BITMAP
FFFFFFFC
FFFFFFFC
FFFFFFFC
FFFFFFFC
FFFFFFFC
000000FC
000000FC
000000FC
000000FC
000000FC
000000FC
000000FC
000000FC
000000FC
000000FC
000000FC
000000FC
000000FC
000000FC
000000FC
000000FC
000000FC
000000FC
000000FC
000000FC
000000FC
000000FC
ENDCHAR
STARTCHAR 00AE
ENCODING 174
SWIDTH 666 0
DWIDTH 56 0
BBX 43 59 7 0
BITMAP
07FFFFFFFC00
1FFFFFFFFF00
3FFFFFFFFF80
7FFFFFFFFFC0
7E0000000FC0
FC00000007E0
F800000003E0
F800000003E0
F800000003E0
F87FFFF803E0
F87FFFFE03E0
F87FFFFE03E0
F87FFFFF03E0
F878001F03E0
F878000F03E0
F878000F03E0
F878000F03E0
F878000F03E0
F878000F03E0
F878000F03E0
F878000F03E0
F878000F03E0
F878000F03E0
F878000F03E0
F878000F03E0
F878000F03E0
F878001F03E0
F87FFFFF03E0
F87FFFFE03E0
F87FFFFE03E0
F87FFFFC03E0
F87801E003E0
F87801E003E0
F87801F003E0
F87800F003E0
F87800F803E0
F878007803E0
F878007803E0
F878007C03E0
F878003C03E0
F878003E03E0
F878001E03E0
F878001F03E0
F878001F03E0
F878000F03E0
F878000F83E0
F878000783E0
F8780007C3E0
F8780007C3E0
F8780003E3E0
F800000003E0
F800000003E0
F800000003E0
FC00000007E0
7E0000000FC0
7FFFFFFFFFC0
3FFFFFFFFF80
1FFFFFFFFF00
07FFFFFFFC00
ENDCHAR
STARTCHAR 00AF
ENCODING 175
SWIDTH 369 0
DWIDTH 31 0
BBX 18 4 7 50
BITMAP
FFFFC0
FFFFC0
FFFFC0
FFFFC0
ENDCHAR
STARTCHAR 00B0
ENCODING 176
SWIDTH 333 0
DWIDTH 28 0
BBX 20 29 4 30
BITMAP
07FE00
1FFF80
3FFFC0
7FFFE0
7F0FE0
FC03F0
F801F0
F801F0
F801F0
F801F0
F801F0
F801F0
F801F0
F801F0
F801F0
F801F0
F801F0
F801F0
F801F0
F801F0
F801F0
F801F0
F801F0
FC03F0
7E07E0
7FFFE0
3FFFC0
1FFF80
07FE00
ENDCHAR
STARTCHAR 00B1
ENCODING 177
SWIDTH 464 0
DWIDTH 39 0
BBX 29 41 5 1
BITMAP
000F8000
000F8000
000F8000
000F8000
000F8000
000F8000
000F8000
000F8000
000F8000
000F8000
000F8000
000F8000
FFFFFFF8
FFFFFFF8
FFFFFFF8
FFFFFFF8
FFFFFFF8
000F8000
000F8000
000F8000
000F8000
000F8000
000F8000
000F8000
000F8000
000F8000
000F8000
000F8000
000F8000
00000000
00000000
00000000
00000000
00000000
00000000
00000000
FFFFFFF8
FFFFFFF8
FFFFFFF8
FFFFFFF8
FFFFFFF8
ENDCHAR
STARTCHAR 00B4
ENCODING 180
SWIDTH 333 0
DWIDTH 28 0
BBX 14 12 7 47
BITMAP
007C
00F8
01F8
03F0
03E0
07C0
0F80
1F00
1E00
3E00
7C00
F800
ENDCHAR
STARTCHAR 00B5
ENCODING 181
SWIDTH 464 0
DWIDTH 39 0
BBX 28 59 6 -17
BITMAP
FC0003F0
FC0003F0
FC0003F0
FC0003F0
FC0003F0
FC0003F0
FC0003F0
FC0003F0
FC0003F0
FC0003F0
FC0003F0
FC0003F0
FC0003F0
FC0003F0
FC0003F0
FC0003F0
FC0003F0
FC0003F0
FC0003F0
FC0003F0
FC0003F0
FC0003F0
FC0003F0
FC0003F0
FC0003F0
FC0003F0
FC0003F0
FC0003F0
FC0003F0
FC0003F0
FC0003F0
FC0003F0
FC0003F0
FC0003F0
FC0003F0
FE0003F0
FF0003F0
FFFFFFF0
FFFFFFF0
FFFFFFF0
FFFFFFF0
FFFFFFF0
FC000000
FC000000
FC000000
FC000000
FC000000
FC000000
FC000000
FC000000
FC000000
FC000000
FC000000
FC000000
FC000000
FC000000
FC000000
FC000000
FC000000
ENDCHAR
STARTCHAR 00B6
ENCODING 182
SWIDTH 523 0
DWIDTH 44 0
BBX 33 59 7 0
BITMAP
0FFFFFFF80
3FFFFFFF80
7FFFFFFF80
7FFFFFFF80
FFFFFFFF80
FFFFFFFF80
FFFFFFFF80
FFFFFFFF80
FFFFFFFF80
FFFFFFFF80
FFFFFFFF80
FFFFFFFF80
FFFFFFFF80
FFFFFFFF80
FFFFFFFF80
FFFFFFFF80
FFFFFFFF80
FFFFFFFF80
FFFFFFFF80
FFFFFFFF80
FFFFFFFF80
FFFFFFFF80
FFFFFFFF80
FFFFFFFF80
FFFFFFFF80
FFFFFFFF80
FFFFFFFF80
FFFFFFFF80
FFFFFFFF80
7FFFFFFF80
3FFFFFFF80
0FFFFFFF80
0000001F80
0000001F80
0000001F80
0000001F80
0000001F80
0000001F80
0000001F80
0000001F80
0000001F80
0000001F80
0000001F80
0000001F80
0000001F80
0000001F80
0000001F80
0000001F80
0000001F80
0000001F80
0000001F80
0000001F80
0000001F80
0000001F80
0000001F80
0000001F80
0000001F80
0000001F80
0000001F80
ENDCHAR
STARTCHAR 00B7
ENCODING 183
SWIDTH 202 0
DWIDTH 17 0
BBX 7 7 5 21
BITMAP
FE
FE
FE
FE
FE
FE
FE
ENDCHAR
STARTCHAR 00B8
ENCODING 184
SWIDTH 345 0
DWIDTH 29 0
BBX 17 18 6 -17
BITMAP
03C000
038000
078000
070000
07FC00
0FFE00
0FFF00
001F80
000F80
000F80
000F80
000F80
000F80
000F80
003F80
7FFF00
7FFE00
FFFC00
ENDCHAR
STARTCHAR 00BA
ENCODING 186
SWIDTH 464 0
DWIDTH 39 0
BBX 28 59 6 0
BITMAP
07FFFE00
1FFFFF80
3FFFFFC0
7FFFFFE0
7FFFFFE0
FF000FF0
FE0007F0
FC0003F0
FC0003F0
FC0003F0
FC0003F0
FC0003F0
FC0003F0
FC0003F0
FC0003F0
FC0003F0
FC0003F0
FC0003F0
FC0003F0
FC0003F0
FC0003F0
FC0003F0
FC0003F0
FC0003F0
FC0003F0
FC0003F0
FC0003F0
FC0003F0
FC0003F0
FC0003F0
FC0003F0
FC0003F0
FC0003F0
FC0003F0
FC0003F0
FE0007F0
FF000FF0
7FFFFFE0
7FFFFFE0
3FFFFFC0
1FFFFF80
07FFFE00
00000000
00000000
00000000
00000000
00000000
00000000
00000000
00000000
00000000
00000000
00000000
00000000
FFFFFFF0
FFFFFFF0
FFFFFFF0
FFFFFFF0
FFFFFFF0
ENDCHAR
STARTCHAR 00BB
ENCODING 187
SWIDTH 595 0
DWIDTH 50 0
BBX 44 38 3 6
BITMAP
800004000000
C00006000000
E00007800000
F80007C00000
FC0007E00000
FF0007F80000
7F8003FC0000
3FC001FE0000
1FF0007F8000
0FF8003FC000
03FC001FE000
01FF000FF800
00FF8007FC00
007FC001FE00
001FF000FF80
000FF8007FC0
0007FC003FF0
0003FE000FF0
0000FE0007F0
00007E0003F0
0001FE0007F0
0003FE001FF0
0007F8003FE0
000FF0007F80
003FE000FF00
007F8003FE00
00FF0007F800
01FE000FF000
07F8001FE000
0FF0003F8000
1FE000FF0000
3F8001FE0000
7F0003F80000
FE0007F00000
F80007E00000
F00007800000
E00007000000
800006000000
ENDCHAR
STARTCHAR 00BF
ENCODING 191
SWIDTH 404 0
DWIDTH 34 0
BBX 28 59 4 -17
BITMAP
0007E000
0007E000
0007E000
0007E000
0007E000
0007E000
0007E000
00000000
00000000
00000000
00000000
00000000
00000000
0007E000
0007E000
0007E000
0007E000
0007E000
0007E000
0007E000
0007E000
0007E000
0007E000
0007E000
0007E000
0007E000
0007E000
0007E000
0007E000
0007E000
0007E000
000FE000
001FC000
003FC000
007F8000
00FF0000
01FE0000
03FC0000
07F80000
0FF00000
1FE00000
3FC00000
3F800000
7F000000
7E000000
FC000000
FC000000
FC000000
FC000000
FC000000
FC000000
FC000000
FE000000
FF000010
FFFFFFF0
7FFFFFF0
7FFFFFF0
3FFFFFF0
0FFFFFF0
ENDCHAR
STARTCHAR 00C0
ENCODING 192
SWIDTH 500 0
DWIDTH 42 0
BBX 41 68 1 0
BITMAP
000FFFFC0000
000FFFFC0000
000FFFFC0000
000FFFFC0000
000000000000
000000000000
000000000000
000000000000
000000000000
00007F800000
00007FC00000
0000FFC00000
0000FFC00000
0000FFC00000
0000FFE00000
0001FFE00000
0001FFE00000
0001F7E00000
0003F7F00000
0003F3F00000
0003F3F00000
0003E3F00000
0007E1F80000
0007E1F80000
0007E1F80000
000FC1FC0000
000FC0FC0000
000FC0FC0000
001FC0FC0000
001F80FE0000
001F807E0000
001F807E0000
003F007E0000
003F007F0000
003F003F0000
007F003F0000
007E003F8000
007E001F8000
007E001F8000
00FE001F8000
00FC001FC000
00FC000FC000
01FC000FC000
01FC000FC000
01F8000FE000
01F80007E000
03F80007E000
03F00007E000
03F00007F000
07FFFFFFF000
07FFFFFFF000
07FFFFFFF800
07FFFFFFF800
0FE00001F800
0FE00001F800
0FE00001FC00
1FC00001FC00
1FC00000FC00
1FC00000FC00
3F800000FE00
3F800000FE00
3F8000007E00
3F8000007F00
7F0000007F00
7F0000007F00
7F0000003F00
FE0000003F80
FE0000003F80
ENDCHAR
STARTCHAR 00C1
ENCODING 193
SWIDTH 500 0
DWIDTH 42 0
BBX 41 69 1 1
BITMAP
001E001E0000
001E001E0000
001E001E0000
001F001E0000
001F803E0000
000FFFFC0000
0007FFF80000
0001FFE00000
000000000000
000000000000
00007F800000
0000FF800000
0000FF800000
0000FF800000
0001FFC00000
0001FFC00000
0001FFC00000
0001FFE00000
0003F7E00000
0003F7E00000
0003F7E00000
0007E7F00000
0007E3F00000
0007E3F00000
0007C3F80000
000FC3F80000
000FC1F80000
000FC1F80000
000F81FC0000
001F80FC0000
001F80FC0000
001F80FC0000
003F00FE0000
003F007E0000
003F007E0000
003E007F0000
007E007F0000
007E003F0000
007E003F0000
00FC003F8000
00FC003F8000
00FC001F8000
00FC001FC000
01F8001FC000
01F8000FC000
01F8000FC000
03F0000FE000
03F0000FE000
03F00007E000
03F00007F000
07FFFFFFF000
07FFFFFFF000
07FFFFFFF000
0FFFFFFFF800
0FE00003F800
0FC00003F800
0FC00003FC00
1FC00001FC00
1F800001FC00
1F800001FC00
3F800000FE00
3F800000FE00
3F000000FE00
3F000000FE00
7F0000007F00
7F0000007F00
7E0000007F00
FE0000007F80
FE0000003F80
ENDCHAR
STARTCHAR 00C2
ENCODING 194
SWIDTH 500 0
DWIDTH 42 0
BBX 41 68 1 0
BITMAP
000F80F80000
000F80F80000
000F80F80000
000F80F80000
000F80F80000
000000000000
000000000000
000000000000
000000000000
00007F000000
00007F800000
0000FF800000
0000FF800000
0000FFC00000
0001FFC00000
0001FFC00000
0001FFC00000
0001F7E00000
0003F7E00000
0003F7E00000
0003E7F00000
0007E3F00000
0007E3F00000
0007C3F00000
0007C1F80000
000FC1F80000
000FC1F80000
000F81FC0000
001F80FC0000
001F80FC0000
001F80FC0000
003F00FE0000
003F007E0000
003F007E0000
003F007F0000
007E003F0000
007E003F0000
007E003F0000
00FC003F8000
00FC001F8000
00FC001F8000
00FC001FC000
01F8001FC000
01F8000FC000
01F8000FC000
03F8000FE000
03F00007E000
03F00007E000
03F00007F000
07FFFFFFF000
07FFFFFFF000
07FFFFFFF000
0FFFFFFFF800
0FE00003F800
0FC00003F800
0FC00001F800
1FC00001FC00
1FC00001FC00
1F800000FC00
3F800000FE00
3F800000FE00
3F800000FE00
3F0000007E00
7F0000007F00
7F0000007F00
7E0000007F00
FE0000003F80
FE0000003F80
ENDCHAR
STARTCHAR 00C3
ENCODING 195
SWIDTH 392 0
DWIDTH 33 0
BBX 25 59 6 0
BITMAP
00003F00
00007E00
00007C00
0000F800
0001F800
0003F000
0003E000
0007C000
000F8000
001F0000
001E0000
003C0000
00000000
00000000
00000000
00000000
00000000
07FFFF80
1FFFFF80
3FFFFF80
7FFFFF80
7FFFFF80
FF000080
FE000000
FC000000
FC000000
FC000000
FC000000
FC000000
FC000000
FC000000
FC000000
FC000000
FC000000
FC000000
FC000000
FC000000
FC000000
FC000000
FC000000
FC000000
FC000000
FC000000
FC000000
FC000000
FC000000
FC000000
FC000000
FC000000
FC000000
FC000000
FC000000
FE000000
FF000000
7FFFFF80
7FFFFF80
3FFFFF80
1FFFFF80
07FFFF80
ENDCHAR
STARTCHAR 00C4
ENCODING 196
SWIDTH 500 0
DWIDTH 42 0
BBX 41 69 1 1
BITMAP
000FC0000000
0007E0000000
0003F0000000
0001F8000000
0000FC000000
00003E000000
00001F000000
00000F800000
000000000000
000000000000
000000000000
00007F800000
0000FF800000
0000FFC00000
0000FFC00000
0001FFC00000
0001FFC00000
0001FFE00000
0001F7E00000
0003F7E00000
0003F7E00000
0003F3F00000
0007E3F00000
0007E3F00000
0007E3F80000
0007C1F80000
000FC1F80000
000FC1F80000
000FC1FC0000
001F80FC0000
001F80FC0000
001F80FE0000
001F80FE0000
003F007E0000
003F007E0000
003F007F0000
007E003F0000
007E003F0000
007E003F8000
007E003F8000
00FC001F8000
00FC001F8000
00FC001FC000
01FC001FC000
01F8000FC000
01F8000FC000
01F8000FE000
03F00007E000
03F00007E000
03F00007F000
07FFFFFFF000
07FFFFFFF000
07FFFFFFF000
0FFFFFFFF800
0FE00003F800
0FE00003F800
0FC00001FC00
1FC00001FC00
1FC00001FC00
1F800000FC00
3F800000FE00
3F800000FE00
3F800000FE00
3F0000007E00
7F0000007F00
7F0000007F00
7F0000007F00
FE0000003F80
FE0000003F80
ENDCHAR
STARTCHAR 00C5
ENCODING 197
SWIDTH 500 0
DWIDTH 42 0
BBX 41 69 1 0
BITMAP
000FC0038000
003FF0038000
007FF8038000
00707E038000
00F01F878000
00E00FFF0000
00E003FE0000
00E000FC0000
000000000000
000000000000
00007F800000
0000FF800000
0000FF800000
0000FFC00000
0000FFC00000
0001FFC00000
0001FFC00000
0001FFE00000
0003F7E00000
0003F7E00000
0003F7F00000
0003E3F00000
0007E3F00000
0007E3F00000
0007C3F80000
000FC1F80000
000FC1F80000
000FC1F80000
000F81FC0000
001F80FC0000
001F80FC0000
001F80FE0000
003F00FE0000
003F007E0000
003F007E0000
003F007F0000
007E003F0000
007E003F0000
007E003F8000
00FC003F8000
00FC001F8000
00FC001F8000
00FC001FC000
01F8001FC000
01F8000FC000
01F8000FC000
03F8000FE000
03F0000FE000
03F00007E000
03F00007F000
07FFFFFFF000
07FFFFFFF000
07FFFFFFF000
0FFFFFFFF800
0FE00003F800
0FC00003F800
0FC00001FC00
1FC00001FC00
1FC00001FC00
1F800001FC00
3F800000FE00
3F800000FE00
3F000000FE00
3F000000FE00
7F0000007F00
7F0000007F00
7E0000007F00
FE0000003F80
FE0000003F80
ENDCHAR
STARTCHAR 00C6
ENCODING 198
SWIDTH 773 0
DWIDTH 65 0
BBX 65 59 -3 0
BITMAP
00000001FFFFFFFF00
00000003FFFFFFFF00
00000003FFFFFFFF00
00000007FFFFFFFF00
00000007FFFFFFFF00
0000000FFF00000100
0000000FFF00000000
0000001FFF00000000
0000001FBF00000000
0000003FBF00000000
0000003F3F00000000
0000007F3F00000000
000000FE3F00000000
000000FC3F00000000
000001FC3F00000000
000001F83F00000000
000003F83F00000000
000003F03F00000000
000007F03F00000000
000007E03F00000000
00000FE03F00000000
00000FC03F00000000
00001FC03F00000000
00001F803F00000000
00003F803F00000000
00007F003F00000000
00007F003FFFFFE000
0000FE003FFFFFE000
0000FE003FFFFFE000
0001FC003FFFFFE000
0001F8003FFFFFE000
0003F8003F00000000
0003F0003F00000000
0007F0003F00000000
0007E0003F00000000
000FE0003F00000000
000FC0003F00000000
001FC0003F00000000
003F80003F00000000
003F80003F00000000
007FFFFFFF00000000
007FFFFFFF00000000
00FFFFFFFF00000000
00FFFFFFFF00000000
01FC00003F00000000
01FC00003F00000000
03F800003F00000000
03F800003F00000000
07F000003F00000000
07F000003F00000000
0FE000003F00000000
1FE000003F00000000
1FC000003F00000000
3FC000003F00000000
3F8000003FFFFFFF80
7F0000003FFFFFFF80
7F0000003FFFFFFF80
FE0000003FFFFFFF80
FE0000003FFFFFFF80
ENDCHAR
STARTCHAR 00C7
ENCODING 199
SWIDTH 476 0
DWIDTH 40 0
BBX 31 70 6 0
BITMAP
0001F000
0003F800
0007FC00
000FBE00
001F1F00
003E0F80
007C07C0
00F801E0
01F000F0
00000000
00000000
07FFFFFE
1FFFFFFE
3FFFFFFE
7FFFFFFE
7FFFFFFE
FF80000E
FE000000
FC000000
FC000000
FC000000
FC000000
FC000000
FC000000
FC000000
FC000000
FC000000
FC000000
FC000000
FC000000
FC000000
FC000000
FC000000
FC000000
FC000000
FC000000
FC000000
FC000000
FC000000
FC000000
FC000000
FC000000
FC000000
FC000000
FC000000
FC000000
FC000000
FC000000
FC000000
FC000000
FC000000
FC000000
FC000000
FC000000
FC000000
FC000000
FC000000
FC000000
FC000000
FC000000
FC000000
FC000000
FC000000
FE000000
FFC0000E
7FFFFFFE
7FFFFFFE
3FFFFFFE
1FFFFFFE
07FFFFFE
ENDCHAR
STARTCHAR 00C8
ENCODING 200
SWIDTH 476 0
DWIDTH 40 0
BBX 30 70 6 0
BITMAP
01F00000
00F80000
007C0000
003E0000
001F0000
000F8000
0003C000
0001E000
0000F000
00000000
00000000
FFFFFFF0
FFFFFFF0
FFFFFFF0
FFFFFFF0
FFFFFFF0
FC000000
FC000000
FC000000
FC000000
FC000000
FC000000
FC000000
FC000000
FC000000
FC000000
FC000000
FC000000
FC000000
FC000000
FC000000
FC000000
FC000000
FC000000
FC000000
FC000000
FC000000
FFFFFF00
FFFFFF00
FFFFFF00
FFFFFF00
FFFFFF00
FC000000
FC000000
FC000000
FC000000
FC000000
FC000000
FC000000
FC000000
FC000000
FC000000
FC000000
FC000000
FC000000
FC000000
FC000000
FC000000
FC000000
FC000000
FC000000
FC000000
FC000000
FC000000
FC000004
FFFFFFFC
FFFFFFFC
FFFFFFFC
FFFFFFFC
FFFFFFFC
ENDCHAR
STARTCHAR 00C9
ENCODING 201
SWIDTH 476 0
DWIDTH 40 0
BBX 32 70 6 0
BITMAP
00000FC0
00001F00
00003E00
00007C00
0000F800
0001F000
0003E000
00078000
000F0000
00000000
00000000
FFFFFFFC
FFFFFFFC
FFFFFFFC
FFFFFFFC
FFFFFFFC
FC000000
FC000000
FC000000
FC000000
FC000000
FC000000
FC000000
FC000000
FC000000
FC000000
FC000000
FC000000
FC000000
FC000000
FC000000
FC000000
FC000000
FC000000
FC000000
FC000000
FC000000
FFFFFFC0
FFFFFFC0
FFFFFFC0
FFFFFFC0
FFFFFFC0
FC000000
FC000000
FC000000
FC000000
FC000000
FC000000
FC000000
FC000000
FC000000
FC000000
FC000000
FC000000
FC000000
FC000000
FC000000
FC000000
FC000000
FC000000
FC000000
FC000000
FC000000
FC000000
FC000001
FFFFFFFF
FFFFFFFF
FFFFFFFF
FFFFFFFF
FFFFFFFF
ENDCHAR
STARTCHAR 00CA
ENCODING 202
SWIDTH 476 0
DWIDTH 40 0
BBX 30 70 6 0
BITMAP
0003F000
0007F000
000FF800
001F7C00
007E3E00
00FC0F00
01F00700
03E00380
07C001C0
00000000
00000000
FFFFFFF0
FFFFFFF0
FFFFFFF0
FFFFFFF0
FFFFFFF0
FC000010
FC000000
FC000000
FC000000
FC000000
FC000000
FC000000
FC000000
FC000000
FC000000
FC000000
FC000000
FC000000
FC000000
FC000000
FC000000
FC000000
FC000000
FC000000
FC000000
FC000000
FFFFFFF0
FFFFFFF0
FFFFFFF0
FFFFFFF0
FFFFFFF0
FC000000
FC000000
FC000000
FC000000
FC000000
FC000000
FC000000
FC000000
FC000000
FC000000
FC000000
FC000000
FC000000
FC000000
FC000000
FC000000
FC000000
FC000000
FC000000
FC000000
FC000000
FC000000
FC000004
FFFFFFFC
FFFFFFFC
FFFFFFFC
FFFFFFFC
FFFFFFFC
ENDCHAR
STARTCHAR 00CB
ENCODING 203
SWIDTH 476 0
DWIDTH 40 0
BBX 32 68 6 0
BITMAP
007C07C0
007C07C0
007C07C0
007C07C0
007C07C0
00000000
00000000
00000000
00000000
FFFFFFFC
FFFFFFFC
FFFFFFFC
FFFFFFFC
FFFFFFFC
FC000000
FC000000
FC000000
FC000000
FC000000
FC000000
FC000000
FC000000
FC000000
FC000000
FC000000
FC000000
FC000000
FC000000
FC000000
FC000000
FC000000
FC000000
FC000000
FC000000
FC000000
FFFFFFC0
FFFFFFC0
FFFFFFC0
FFFFFFC0
FFFFFFC0
FC000000
FC000000
FC000000
FC000000
FC000000
FC000000
FC000000
FC000000
FC000000
FC000000
FC000000
FC000000
FC000000
FC000000
FC000000
FC000000
FC000000
FC000000
FC000000
FC000000
FC000000
FC000000
FC000001
FFFFFFFF
FFFFFFFF
FFFFFFFF
FFFFFFFF
FFFFFFFF
ENDCHAR
STARTCHAR 00CC
ENCODING 204
SWIDTH 226 0
DWIDTH 19 0
BBX 14 70 -1 0
BITMAP
FC00
7E00
3F00
1F80
07C0
03E0
01F0
00F8
007C
0000
0000
00FC
00FC
00FC
00FC
00FC
00FC
00FC
00FC
00FC
00FC
00FC
00FC
00FC
00FC
00FC
00FC
00FC
00FC
00FC
00FC
00FC
00FC
00FC
00FC
00FC
00FC
00FC
00FC
00FC
00FC
00FC
00FC
00FC
00FC
00FC
00FC
00FC
00FC
00FC
00FC
00FC
00FC
00FC
00FC
00FC
00FC
00FC
00FC
00FC
00FC
00FC
00FC
00FC
00FC
00FC
00FC
00FC
00FC
00FC
ENDCHAR
STARTCHAR 00CD
ENCODING 205
SWIDTH 226 0
DWIDTH 19 0
BBX 14 70 5 0
BITMAP
00FC
01F8
03E0
07C0
0F80
1F00
3E00
7800
F000
0000
0000
7E00
7E00
7E00
7E00
7E00
7E00
7E00
7E00
7E00
7E00
7E00
7E00
7E00
7E00
7E00
7E00
7E00
7E00
7E00
7E00
7E00
7E00
7E00
7E00
7E00
7E00
7E00
7E00
7E00
7E00
7E00
7E00
7E00
7E00
7E00
7E00
7E00
7E00
7E00
7E00
7E00
7E00
7E00
7E00
7E00
7E00
7E00
7E00
7E00
7E00
7E00
7E00
7E00
7E00
7E00
7E00
7E00
7E00
7E00
ENDCHAR
STARTCHAR 00CE
ENCODING 206
SWIDTH 226 0
DWIDTH 19 0
BBX 21 70 -1 0
BITMAP
00F000
01F800
03FE00
07FF00
0F9F80
1F0FC0
3E03E0
7801F0
F000F8
000000
000000
01F800
01F800
01F800
01F800
01F800
01F800
01F800
01F800
01F800
01F800
01F800
01F800
01F800
01F800
01F800
01F800
01F800
01F800
01F800
01F800
01F800
01F800
01F800
01F800
01F800
01F800
01F800
01F800
01F800
01F800
01F800
01F800
01F800
01F800
01F800
01F800
01F800
01F800
01F800
01F800
01F800
01F800
01F800
01F800
01F800
01F800
01F800
01F800
01F800
01F800
01F800
01F800
01F800
01F800
01F800
01F800
01F800
01F800
01F800
ENDCHAR
STARTCHAR 00CF
ENCODING 207
SWIDTH 226 0
DWIDTH 19 0
BBX 17 68 1 0
BITMAP
F80F80
F80F80
F80F80
F80F80
F80F80
000000
000000
000000
000000
07E000
07E000
07E000
07E000
07E000
07E000
07E000
07E000
07E000
07E000
07E000
07E000
07E000
07E000
07E000
07E000
07E000
07E000
07E000
07E000
07E000
07E000
07E000
07E000
07E000
07E000
07E000
07E000
07E000
07E000
07E000
07E000
07E000
07E000
07E000
07E000
07E000
07E000
07E000
07E000
07E000
07E000
07E000
07E000
07E000
07E000
07E000
07E000
07E000
07E000
07E000
07E000
07E000
07E000
07E000
07E000
07E000
07E000
07E000
ENDCHAR
STARTCHAR 00D1
ENCODING 209
SWIDTH 559 0
DWIDTH 47 0
BBX 35 69 6 0
BITMAP
003F000E00
00FFC00E00
01FFE00E00
01C1F80E00
03C07E1E00
03803FFC00
03800FF800
038003F000
0000000000
0000000000
FE00000FE0
FF00000FE0
FF00000FE0
FF00000FE0
FF80000FE0
FF80000FE0
FFC0000FE0
FFC0000FE0
FFE0000FE0
FFE0000FE0
FFF0000FE0
FFF0000FE0
FDF0000FE0
FDF8000FE0
FCF8000FE0
FCFC000FE0
FC7C000FE0
FC7E000FE0
FC7E000FE0
FC3E000FE0
FC3F000FE0
FC1F000FE0
FC1F800FE0
FC0F800FE0
FC0FC00FE0
FC07C00FE0
FC07C00FE0
FC03E00FE0
FC03E00FE0
FC03F00FE0
FC01F00FE0
FC01F80FE0
FC00F80FE0
FC00FC0FE0
FC007C0FE0
FC007C0FE0
FC003E0FE0
FC003E0FE0
FC001F0FE0
FC001F0FE0
FC001F8FE0
FC000F8FE0
FC000F8FE0
FC0007CFE0
FC0007CFE0
FC0003EFE0
FC0003EFE0
FC0001FFE0
FC0001FFE0
FC0000FFE0
FC0000FFE0
FC0000FFE0
FC00007FE0
FC00007FE0
FC00003FE0
FC00003FE0
FC00001FE0
FC00001FE0
FC00000FE0
ENDCHAR
STARTCHAR 00D2
ENCODING 210
SWIDTH 547 0
DWIDTH 46 0
BBX 34 70 6 0
BITMAP
00FC000000
007E000000
003F000000
000F800000
0007C00000
0003E00000
0001F00000
0000780000
00003E0000
0000000000
0000000000
07FFFFF800
1FFFFFFE00
3FFFFFFF00
7FFFFFFF80
7FFFFFFF80
FFC000FFC0
FE00001FC0
FC00000FC0
FC00000FC0
FC00000FC0
FC00000FC0
FC00000FC0
FC00000FC0
FC00000FC0
FC00000FC0
FC00000FC0
FC00000FC0
FC00000FC0
FC00000FC0
FC00000FC0
FC00000FC0
FC00000FC0
FC00000FC0
FC00000FC0
FC00000FC0
FC00000FC0
FC00000FC0
FC00000FC0
FC00000FC0
FC00000FC0
FC00000FC0
FC00000FC0
FC00000FC0
FC00000FC0
FC00000FC0
FC00000FC0
FC00000FC0
FC00000FC0
FC00000FC0
FC00000FC0
FC00000FC0
FC00000FC0
FC00000FC0
FC00000FC0
FC00000FC0
FC00000FC0
FC00000FC0
FC00000FC0
FC00000FC0
FC00000FC0
FC00000FC0
FC00000FC0
FE00001FC0
FFC000FFC0
7FFFFFFF80
7FFFFFFF80
3FFFFFFF00
1FFFFFFE00
07FFFFF800
ENDCHAR
STARTCHAR 00D3
ENCODING 211
SWIDTH 547 0
DWIDTH 46 0
BBX 34 70 6 0
BITMAP
000003E000
000007C000
00000F8000
00001F0000
00003E0000
0000780000
0000F00000
0001E00000
0003C00000
0000000000
0000000000
07FFFFF800
1FFFFFFE00
3FFFFFFF00
7FFFFFFF80
7FFFFFFF80
FFC000FFC0
FE00001FC0
FC00000FC0
FC00000FC0
FC00000FC0
FC00000FC0
FC00000FC0
FC00000FC0
FC00000FC0
FC00000FC0
FC00000FC0
FC00000FC0
FC00000FC0
FC00000FC0
FC00000FC0
FC00000FC0
FC00000FC0
FC00000FC0
FC00000FC0
FC00000FC0
FC00000FC0
FC00000FC0
FC00000FC0
FC00000FC0
FC00000FC0
FC00000FC0
FC00000FC0
FC00000FC0
FC00000FC0
FC00000FC0
FC00000FC0
FC00000FC0
FC00000FC0
FC00000FC0
FC00000FC0
FC00000FC0
FC00000FC0
FC00000FC0
FC00000FC0
FC00000FC0
FC00000FC0
FC00000FC0
FC00000FC0
FC00000FC0
FC00000FC0
FC00000FC0
FC00000FC0
FE00001FC0
FFC000FFC0
7FFFFFFF80
7FFFFFFF80
3FFFFFFF00
1FFFFFFE00
07FFFFF800
ENDCHAR
STARTCHAR 00D4
ENCODING 212
SWIDTH 547 0
DWIDTH 46 0
BBX 34 70 6 0
BITMAP
0001F00000
0003F80000
0007FC0000
000FBE0000
001F1F0000
003E0F8000
007C07C000
00F803E000
01E001F000
0000000000
0000000000
07FFFFF800
1FFFFFFE00
3FFFFFFF00
7FFFFFFF80
7FFFFFFF80
FFC000FFC0
FE00001FC0
FC00000FC0
FC00000FC0
FC00000FC0
FC00000FC0
FC00000FC0
FC00000FC0
FC00000FC0
FC00000FC0
FC00000FC0
FC00000FC0
FC00000FC0
FC00000FC0
FC00000FC0
FC00000FC0
FC00000FC0
FC00000FC0
FC00000FC0
FC00000FC0
FC00000FC0
FC00000FC0
FC00000FC0
FC00000FC0
FC00000FC0
FC00000FC0
FC00000FC0
FC00000FC0
FC00000FC0
FC00000FC0
FC00000FC0
FC00000FC0
FC00000FC0
FC00000FC0
FC00000FC0
FC00000FC0
FC00000FC0
FC00000FC0
FC00000FC0
FC00000FC0
FC00000FC0
FC00000FC0
FC00000FC0
FC00000FC0
FC00000FC0
FC00000FC0
FC00000FC0
FE00001FC0
FFC000FFC0
7FFFFFFF80
7FFFFFFF80
3FFFFFFF00
1FFFFFFE00
07FFFFF800
ENDCHAR
STARTCHAR 00D5
ENCODING 213
SWIDTH 547 0
DWIDTH 46 0
BBX 34 69 6 0
BITMAP
00FC001C00
03FF001C00
07FFC01C00
070FE01C00
0E03F83C00
0C00FFF800
0C003FF000
0C000FC000
0000000000
0000000000
07FFFFF800
1FFFFFFE00
3FFFFFFF00
7FFFFFFF80
7FFFFFFF80
FF8000FFC0
FE00003FC0
FC00001FC0
FC00001FC0
FC00001FC0
FC00001FC0
FC00001FC0
FC00001FC0
FC00001FC0
FC00001FC0
FC00001FC0
FC00001FC0
FC00001FC0
FC00001FC0
FC00001FC0
FC00001FC0
FC00001FC0
FC00001FC0
FC00001FC0
FC00001FC0
FC00001FC0
FC00001FC0
FC00001FC0
FC00001FC0
FC00001FC0
FC00001FC0
FC00001FC0
FC00001FC0
FC00001FC0
FC00001FC0
FC00001FC0
FC00001FC0
FC00001FC0
FC00001FC0
FC00001FC0
FC00001FC0
FC00001FC0
FC00001FC0
FC00001FC0
FC00001FC0
FC00001FC0
FC00001FC0
FC00001FC0
FC00001FC0
FC00001FC0
FC00001FC0
FC00001FC0
FE00003FC0
FF8000FFC0
7FFFFFFF80
7FFFFFFF80
3FFFFFFF00
1FFFFFFE00
07FFFFF800
ENDCHAR
STARTCHAR 00D6
ENCODING 214
SWIDTH 547 0
DWIDTH 46 0
BBX 34 68 6 0
BITMAP
007C07C000
007C07C000
007C07C000
007C07C000
007C07C000
0000000000
0000000000
0000000000
0000000000
07FFFFF800
1FFFFFFE00
3FFFFFFF00
7FFFFFFF80
7FFFFFFF80
FFC000FFC0
FE00001FC0
FC00000FC0
FC00000FC0
FC00000FC0
FC00000FC0
FC00000FC0
FC00000FC0
FC00000FC0
FC00000FC0
FC00000FC0
FC00000FC0
FC00000FC0
FC00000FC0
FC00000FC0
FC00000FC0
FC00000FC0
FC00000FC0
FC00000FC0
FC00000FC0
FC00000FC0
FC00000FC0
FC00000FC0
FC00000FC0
FC00000FC0
FC00000FC0
FC00000FC0
FC00000FC0
FC00000FC0
FC00000FC0
FC00000FC0
FC00000FC0
FC00000FC0
FC00000FC0
FC00000FC0
FC00000FC0
FC00000FC0
FC00000FC0
FC00000FC0
FC00000FC0
FC00000FC0
FC00000FC0
FC00000FC0
FC00000FC0
FC00000FC0
FC00000FC0
FC00000FC0
FE00001FC0
FFC000FFC0
7FFFFFFF80
7FFFFFFF80
3FFFFFFF00
1FFFFFFE00
07FFFFF800
ENDCHAR
STARTCHAR 00D8
ENCODING 216
SWIDTH 559 0
DWIDTH 47 0
BBX 47 59 0 0
BITMAP
000FFFFFE01E
003FFFFFF83C
007FFFFFFC78
00FFFFFFFCF0
00FFFFFFFEF0
01FF0001FFE0
01FC00007FC0
01F800003F80
01F800003F80
01F800003F00
01F800003F00
01F800003F00
01F800003F00
01F800007F00
01F80000FF00
01F80000FF00
01F80001FF00
01F80003FF00
01F80007FF00
01F80007BF00
01F8000F3F00
01F8001E3F00
01F8001E3F00
01F8003C3F00
01F800783F00
01F800F03F00
01F800F03F00
01F801E03F00
01F803C03F00
01F803C03F00
01F807803F00
01F80F003F00
01F81E003F00
01F81E003F00
01F83C003F00
01F878003F00
01F8F8003F00
01F8F0003F00
01F9E0003F00
01FBC0003F00
01FBC0003F00
01FF80003F00
01FF00003F00
01FE00003F00
01FE00003F00
01FC00003F00
01F800003F00
01F800003F00
01F800003F00
01F800003F00
03F800003F00
03F800003F00
07FC00007F00
0FFF0001FF00
1FFFFFFFFE00
1E7FFFFFFE00
3C7FFFFFFC00
783FFFFFF800
F80FFFFFE000
ENDCHAR
STARTCHAR 00D9
ENCODING 217
SWIDTH 547 0
DWIDTH 46 0
BBX 34 70 6 0
BITMAP
01F8000000
00FC000000
003E000000
001F800000
000FC00000
0007E00000
0001F00000
0000F80000
00007C0000
0000000000
0000000000
FC00000FC0
FC00000FC0
FC00000FC0
FC00000FC0
FC00000FC0
FC00000FC0
FC00000FC0
FC00000FC0
FC00000FC0
FC00000FC0
FC00000FC0
FC00000FC0
FC00000FC0
FC00000FC0
FC00000FC0
FC00000FC0
FC00000FC0
FC00000FC0
FC00000FC0
FC00000FC0
FC00000FC0
FC00000FC0
FC00000FC0
FC00000FC0
FC00000FC0
FC00000FC0
FC00000FC0
FC00000FC0
FC00000FC0
FC00000FC0
FC00000FC0
FC00000FC0
FC00000FC0
FC00000FC0
FC00000FC0
FC00000FC0
FC00000FC0
FC00000FC0
FC00000FC0
FC00000FC0
FC00000FC0
FC00000FC0
FC00000FC0
FC00000FC0
FC00000FC0
FC00000FC0
FC00000FC0
FC00000FC0
FC00000FC0
FC00000FC0
FC00000FC0
FC00000FC0
FE00001FC0
FFC000FFC0
7FFFFFFF80
7FFFFFFF80
3FFFFFFF00
1FFFFFFE00
07FFFFF800
ENDCHAR
STARTCHAR 00DA
ENCODING 218
SWIDTH 547 0
DWIDTH 46 0
BBX 34 70 6 0
BITMAP
000003E000
000007C000
00000F8000
00001F0000
00007C0000
0000F80000
0001F00000
0003E00000
0007C00000
0000000000
0000000000
FC00000FC0
FC00000FC0
FC00000FC0
FC00000FC0
FC00000FC0
FC00000FC0
FC00000FC0
FC00000FC0
FC00000FC0
FC00000FC0
FC00000FC0
FC00000FC0
FC00000FC0
FC00000FC0
FC00000FC0
FC00000FC0
FC00000FC0
FC00000FC0
FC00000FC0
FC00000FC0
FC00000FC0
FC00000FC0
FC00000FC0
FC00000FC0
FC00000FC0
FC00000FC0
FC00000FC0
FC00000FC0
FC00000FC0
FC00000FC0
FC00000FC0
FC00000FC0
FC00000FC0
FC00000FC0
FC00000FC0
FC00000FC0
FC00000FC0
FC00000FC0
FC00000FC0
FC00000FC0
FC00000FC0
FC00000FC0
FC00000FC0
FC00000FC0
FC00000FC0
FC00000FC0
FC00000FC0
FC00000FC0
FC00000FC0
FC00000FC0
FC00000FC0
FC00000FC0
FE00001FC0
FFC000FFC0
7FFFFFFF80
7FFFFFFF80
3FFFFFFF00
1FFFFFFE00
07FFFFF800
ENDCHAR
STARTCHAR 00DB
ENCODING 219
SWIDTH 547 0
DWIDTH 46 0
BBX 34 70 6 0
BITMAP
0001F00000
0003F80000
0007FC0000
000FBE0000
001F1F0000
003E0F8000
007C07C000
00F803E000
01F001F000
0000000000
0000000000
FC00000FC0
FC00000FC0
FC00000FC0
FC00000FC0
FC00000FC0
FC00000FC0
FC00000FC0
FC00000FC0
FC00000FC0
FC00000FC0
FC00000FC0
FC00000FC0
FC00000FC0
FC00000FC0
FC00000FC0
FC00000FC0
FC00000FC0
FC00000FC0
FC00000FC0
FC00000FC0
FC00000FC0
FC00000FC0
FC00000FC0
FC00000FC0
FC00000FC0
FC00000FC0
FC00000FC0
FC00000FC0
FC00000FC0
FC00000FC0
FC00000FC0
FC00000FC0
FC00000FC0
FC00000FC0
FC00000FC0
FC00000FC0
FC00000FC0
FC00000FC0
FC00000FC0
FC00000FC0
FC00000FC0
FC00000FC0
FC00000FC0
FC00000FC0
FC00000FC0
FC00000FC0
FC00000FC0
FC00000FC0
FC00000FC0
FC00000FC0
FC00000FC0
FC00000FC0
FE00001FC0
FFC000FFC0
7FFFFFFF80
7FFFFFFF80
3FFFFFFF00
1FFFFFFE00
07FFFFF800
ENDCHAR
STARTCHAR 00DC
ENCODING 220
SWIDTH 547 0
DWIDTH 46 0
BBX 34 68 6 0
BITMAP
007C07C000
007C07C000
007C07C000
007C07C000
007C07C000
0000000000
0000000000
0000000000
0000000000
FC00000FC0
FC00000FC0
FC00000FC0
FC00000FC0
FC00000FC0
FC00000FC0
FC00000FC0
FC00000FC0
FC00000FC0
FC00000FC0
FC00000FC0
FC00000FC0
FC00000FC0
FC00000FC0
FC00000FC0
FC00000FC0
FC00000FC0
FC00000FC0
FC00000FC0
FC00000FC0
FC00000FC0
FC00000FC0
FC00000FC0
FC00000FC0
FC00000FC0
FC00000FC0
FC00000FC0
FC00000FC0
FC00000FC0
FC00000FC0
FC00000FC0
FC00000FC0
FC00000FC0
FC00000FC0
FC00000FC0
FC00000FC0
FC00000FC0
FC00000FC0
FC00000FC0
FC00000FC0
FC00000FC0
FC00000FC0
FC00000FC0
FC00000FC0
FC00000FC0
FC00000FC0
FC00000FC0
FC00000FC0
FC00000FC0
FC00000FC0
FC00000FC0
FC00000FC0
FE00001FC0
FFC000FFC0
7FFFFFFF80
7FFFFFFF80
3FFFFFFF00
1FFFFFFE00
07FFFFF800
ENDCHAR
STARTCHAR 00DD
ENCODING 221
SWIDTH 523 0
DWIDTH 44 0
BBX 43 70 0 0
BITMAP
0000001F0000
0000003E0000
0000007C0000
000001F80000
000003E00000
000007C00000
00000F800000
00001F000000
00003E000000
000000000000
000000000000
FF0000000FE0
7F0000000FE0
7F8000001FC0
3F8000001FC0
3FC000003F80
1FC000003F80
1FE000007F00
0FE000007F00
07F00000FE00
07F00000FC00
03F80001FC00
03F80001F800
01FC0003F800
01FE0007F000
00FE0007F000
007F000FE000
007F000FE000
003F801FC000
003F801F8000
001FC03F8000
001FC03F0000
000FE07F0000
0007E07E0000
0007F0FE0000
0003F9FC0000
0003F9FC0000
0001FFF80000
0001FFF00000
0000FFF00000
00007FE00000
00007FE00000
00003FC00000
00003FC00000
00001F800000
00001F800000
00001F800000
00001F800000
00001F800000
00001F800000
00001F800000
00001F800000
00001F800000
00001F800000
00001F800000
00001F800000
00001F800000
00001F800000
00001F800000
00001F800000
00001F800000
00001F800000
00001F800000
00001F800000
00001F800000
00001F800000
00001F800000
00001F800000
00001F800000
00001F800000
ENDCHAR
STARTCHAR 00DF
ENCODING 223
SWIDTH 488 0
DWIDTH 41 0
BBX 31 59 6 0
BITMAP
07FFFFC0
1FFFFFF0
3FFFFFF8
7FFFFFFC
7FFFFFFC
FF0001FE
FE0000FE
FC00007E
FC00007E
FC00007E
FC00007E
FC00007E
FC00007E
FC00007E
FC0000FE
FC0001FC
FC0003FC
FC0007F8
FC000FF8
FC003FF0
FC007FC0
FC00FF80
FC01FF00
FC03FC00
FC03F800
FC07F000
FC07E000
FC07E000
FC07E000
FC07E000
FC07E000
FC07F000
FC03F800
FC03FC00
FC01FE00
FC01FF80
FC00FFC0
FC003FF0
FC001FF8
FC000FFC
FC0003FC
FC0001FC
FC0000FE
FC00007E
FC00007E
FC00007E
FC00007E
FC00007E
FC00007E
FC00007E
FC00007E
FC00007E
FC00007E
FC0000FE
FC07FFFC
FC07FFFC
FC07FFF8
FC07FFF0
FC07FFC0
ENDCHAR
STARTCHAR 00E0
ENCODING 224
SWIDTH 464 0
DWIDTH 39 0
BBX 28 54 5 0
BITMAP
07FFFE00
07FFFE00
07FFFE00
07FFFE00
00000000
00000000
00000000
00000000
00000000
00000000
00000000
00000000
FFFFFE00
FFFFFF80
FFFFFFC0
FFFFFFE0
FFFFFFE0
00000FF0
000007F0
000003F0
000003F0
000003F0
000003F0
000003F0
000003F0
000003F0
000003F0
000003F0
07FFFFF0
1FFFFFF0
3FFFFFF0
7FFFFFF0
7F0003F0
FE0003F0
FC0003F0
FC0003F0
FC0003F0
FC0003F0
FC0003F0
FC0003F0
FC0003F0
FC0003F0
FC0003F0
FC0003F0
FC0003F0
FC0003F0
FC0003F0
FE0003F0
FF0003F0
7FFFFFF0
7FFFFFF0
3FFFFFF0
1FFFFFF0
07FFFFF0
ENDCHAR
STARTCHAR 00E1
ENCODING 225
SWIDTH 464 0
DWIDTH 39 0
BBX 28 59 5 0
BITMAP
07800380
07800380
07800380
07800380
07800380
07C00780
07E00F80
03FFFF00
03FFFF00
01FFFE00
007FF800
00000000
00000000
00000000
00000000
00000000
00000000
FFFFFE00
FFFFFF80
FFFFFFC0
FFFFFFE0
FFFFFFE0
00000FF0
000007F0
000003F0
000003F0
000003F0
000003F0
000003F0
000003F0
000003F0
000003F0
000003F0
07FFFFF0
1FFFFFF0
3FFFFFF0
7FFFFFF0
7F0003F0
FE0003F0
FC0003F0
FC0003F0
FC0003F0
FC0003F0
FC0003F0
FC0003F0
FC0003F0
FC0003F0
FC0003F0
FC0003F0
FC0003F0
FC0003F0
FC0003F0
FE0003F0
FF0003F0
7FFFFFF0
7FFFFFF0
3FFFFFF0
1FFFFFF0
07FFFFF0
ENDCHAR
STARTCHAR 00E2
ENCODING 226
SWIDTH 464 0
DWIDTH 39 0
BBX 29 56 5 0
BITMAP
03E03E00
03E03E00
03E03E00
03E03E00
03E03E00
03E03E00
00000000
00000000
00000000
00000000
00000000
00000000
00000000
00000000
FFFFFF00
FFFFFFC0
FFFFFFE0
FFFFFFF0
FFFFFFF0
000007F8
000003F8
000001F8
000001F8
000001F8
000001F8
000001F8
000001F8
000001F8
000001F8
000001F8
07FFFFF8
1FFFFFF8
3FFFFFF8
7FFFFFF8
7F0001F8
FE0001F8
FC0001F8
FC0001F8
FC0001F8
FC0001F8
FC0001F8
FC0001F8
FC0001F8
FC0001F8
FC0001F8
FC0001F8
FC0001F8
FC0001F8
FC0001F8
FE0001F8
FF0001F8
7FFFFFF8
7FFFFFF8
3FFFFFF8
1FFFFFF8
07FFFFF8
ENDCHAR
STARTCHAR 00E3
ENCODING 227
SWIDTH 500 0
DWIDTH 42 0
BBX 41 69 1 1
BITMAP
000000FC0000
000001F00000
000003E00000
000007C00000
00000F800000
00001F000000
00003E000000
000078000000
000000000000
000000000000
000000000000
00007F800000
00007F800000
0000FFC00000
0000FFC00000
0000FFC00000
0001FFE00000
0001FFE00000
0001FFE00000
0001F7E00000
0003F7F00000
0003F3F00000
0003E3F00000
0007E3F00000
0007E1F80000
0007E1F80000
000FC1F80000
000FC1FC0000
000FC0FC0000
000F80FC0000
001F80FC0000
001F80FE0000
001F807E0000
003F007E0000
003F007E0000
003F007F0000
003E003F0000
007E003F0000
007E003F8000
007E001F8000
00FC001F8000
00FC001F8000
00FC001FC000
01F8000FC000
01F8000FC000
01F8000FE000
01F8000FE000
03F00007E000
03F00007E000
03F00007F000
07FFFFFFF000
07FFFFFFF000
07FFFFFFF000
07FFFFFFF800
0FE00003F800
0FC00001F800
0FC00001FC00
1FC00001FC00
1FC00001FC00
1F800000FC00
1F800000FE00
3F800000FE00
3F800000FE00
3F0000007E00
7F0000007F00
7F0000007F00
7E0000007F00
FE0000003F80
FE0000003F80
ENDCHAR
STARTCHAR 00E4
ENCODING 228
SWIDTH 464 0
DWIDTH 39 0
BBX 28 59 5 0
BITMAP
07E00000
03E00000
03F00000
01F80000
00FC0000
007C0000
003E0000
001F0000
000F0000
000F8000
0007C000
0003E000
00000000
00000000
00000000
00000000
00000000
FFFFFE00
FFFFFF80
FFFFFFC0
FFFFFFE0
FFFFFFE0
00000FF0
000007F0
000003F0
000003F0
000003F0
000003F0
000003F0
000003F0
000003F0
000003F0
000003F0
07FFFFF0
1FFFFFF0
3FFFFFF0
7FFFFFF0
7F0003F0
FE0003F0
FC0003F0
FC0003F0
FC0003F0
FC0003F0
FC0003F0
FC0003F0
FC0003F0
FC0003F0
FC0003F0
FC0003F0
FC0003F0
FC0003F0
FC0003F0
FE0003F0
FF0003F0
7FFFFFF0
7FFFFFF0
3FFFFFF0
1FFFFFF0
07FFFFF0
ENDCHAR
STARTCHAR 00E5
ENCODING 229
SWIDTH 464 0
DWIDTH 39 0
BBX 26 59 5 0
BITMAP
0F8001C0
1FE001C0
3FF801C0
7FFC01C0
7FFE01C0
FE1F03C0
FE07C7C0
FC03FF80
FC03FF80
FC01FF80
FC007F00
FC003E00
00000000
00000000
00000000
00000000
00000000
FFFFF800
FFFFFE00
FFFFFF00
FFFFFF80
FFFFFF80
000007C0
000003C0
000001C0
000001C0
000001C0
000001C0
000001C0
000001C0
000001C0
000001C0
000001C0
07FFFFC0
1FFFFFC0
3FFFFFC0
7FFFFFC0
7F0001C0
FE0001C0
FC0001C0
FC0001C0
FC0001C0
FC0001C0
FC0001C0
FC0001C0
FC0001C0
FC0001C0
FC0001C0
FC0001C0
FC0001C0
FC0001C0
FC0001C0
FE0001C0
FF0001C0
7FFFFFC0
7FFFFFC0
3FFFFFC0
1FFFFFC0
07FFFFC0
ENDCHAR
STARTCHAR 00E6
ENCODING 230
SWIDTH 714 0
DWIDTH 60 0
BBX 50 42 5 0
BITMAP
FFFFFC07FFF800
FFFFFF1FFFFE00
FFFFFFBFFFFF00
FFFFFFFFFFFF80
FFFFFFFFFFFF80
00000FF8003FC0
000007F8001FC0
000003F0000FC0
000003F0000FC0
000003F0000FC0
000003F0000FC0
000003F0000FC0
000003F0000FC0
000003F0000FC0
000003F0000FC0
000003F0000FC0
07FFFFFFFFFFC0
1FFFFFFFFFFFC0
3FFFFFFFFFFFC0
7FFFFFFFFFFFC0
7F0003F0000000
FE0003F0000000
FC0003F0000000
FC0003F0000000
FC0003F0000000
FC0003F0000000
FC0003F0000000
FC0003F0000000
FC0003F0000000
FC0003F0000000
FC0003F0000000
FC0003F0000000
FC0003F0000000
FC0003F0000000
FC0003F0000000
FE0007F8000000
FF0007FC000000
7FFFFFFFFFFFC0
7FFFFFFFFFFFC0
3FFFFFBFFFFFC0
1FFFFF1FFFFFC0
07FFFC07FFFFC0
ENDCHAR
STARTCHAR 00E7
ENCODING 231
SWIDTH 392 0
DWIDTH 33 0
BBX 23 59 6 0
BITMAP
001E00
003F00
007F80
007F80
00FFC0
00F3E0
01E1E0
03C1F0
03C0F8
078078
0F003C
0F003E
000000
000000
000000
000000
000000
07FFFE
1FFFFE
3FFFFE
7FFFFE
7FFFFE
FF0000
FE0000
FC0000
FC0000
FC0000
FC0000
FC0000
FC0000
FC0000
FC0000
FC0000
FC0000
FC0000
FC0000
FC0000
FC0000
FC0000
FC0000
FC0000
FC0000
FC0000
FC0000
FC0000
FC0000
FC0000
FC0000
FC0000
FC0000
FC0000
FC0000
FE0000
FF0000
7FFFFE
7FFFFE
3FFFFE
1FFFFE
07FFFE
ENDCHAR
STARTCHAR 00E8
ENCODING 232
SWIDTH 452 0
DWIDTH 38 0
BBX 28 59 6 0
BITMAP
07E00000
03F00000
01F00000
00F80000
00FC0000
007E0000
003E0000
001F0000
000F8000
0007C000
0003C000
0001E000
00000000
00000000
00000000
00000000
00000000
07FFFE00
1FFFFF80
3FFFFFC0
7FFFFFE0
7FFFFFE0
FE0007F0
FE0007F0
FC0003F0
FC0003F0
FC0003F0
FC0003F0
FC0003F0
FC0003F0
FC0003F0
FC0003F0
FC0003F0
FFFFFFF0
FFFFFFF0
FFFFFFF0
FFFFFFF0
FC000000
FC000000
FC000000
FC000000
FC000000
FC000000
FC000000
FC000000
FC000000
FC000000
FC000000
FC000000
FC000000
FC000000
FC000000
FE000000
FF000000
7FFFFFF0
7FFFFFF0
3FFFFFF0
1FFFFFF0
07FFFFF0
ENDCHAR
STARTCHAR 00E9
ENCODING 233
SWIDTH 452 0
DWIDTH 38 0
BBX 28 59 6 0
BITMAP
00003F80
00007F00
0000FE00
0000FC00
0001F800
0003F000
0007E000
000FC000
000F8000
001F0000
003E0000
007C0000
00000000
00000000
00000000
00000000
00000000
07FFFE00
1FFFFF80
3FFFFFC0
7FFFFFE0
7FFFFFE0
FE0007F0
FE0007F0
FC0003F0
FC0003F0
FC0003F0
FC0003F0
FC0003F0
FC0003F0
FC0003F0
FC0003F0
FC0003F0
FFFFFFF0
FFFFFFF0
FFFFFFF0
FFFFFFF0
FC000000
FC000000
FC000000
FC000000
FC000000
FC000000
FC000000
FC000000
FC000000
FC000000
FC000000
FC000000
FC000000
FC000000
FC000000
FE000000
FF000000
7FFFFFF0
7FFFFFF0
3FFFFFF0
1FFFFFF0
07FFFFF0
ENDCHAR
STARTCHAR 00EA
ENCODING 234
SWIDTH 452 0
DWIDTH 38 0
BBX 26 59 6 0
BITMAP
000F8000
001F8000
003FC000
007FE000
007FF000
00F9F000
01F0F800
01E07C00
03E07C00
07C03E00
0F801F00
0F000F80
00000000
00000000
00000000
00000000
00000000
07FFF800
1FFFFE00
3FFFFF00
7FFFFF80
7FFFFF80
FE0007C0
FE0007C0
FC0003C0
FC0003C0
FC0003C0
FC0003C0
FC0003C0
FC0003C0
FC0003C0
FC0003C0
FC0003C0
FFFFFFC0
FFFFFFC0
FFFFFFC0
FFFFFFC0
FC000000
FC000000
FC000000
FC000000
FC000000
FC000000
FC000000
FC000000
FC000000
FC000000
FC000000
FC000000
FC000000
FC000000
FC000000
FE000000
FF000000
7FFFFFC0
7FFFFFC0
3FFFFFC0
1FFFFFC0
07FFFFC0
ENDCHAR
STARTCHAR 00EB
ENCODING 235
SWIDTH 452 0
DWIDTH 38 0
BBX 27 56 6 0
BITMAP
03E07C00
03E07C00
03E07C00
03E07C00
03E07C00
03E07C00
00000000
00000000
00000000
00000000
00000000
00000000
00000000
00000000
07FFFC00
1FFFFF00
3FFFFF80
7FFFFFC0
7FFFFFC0
FE000FE0
FE000FE0
FC0007E0
FC0007E0
FC0007E0
FC0007E0
FC0007E0
FC0007E0
FC0007E0
FC0007E0
FC0007E0
FFFFFFE0
FFFFFFE0
FFFFFFE0
FFFFFFE0
FC000000
FC000000
FC000000
FC000000
FC000000
FC000000
FC000000
FC000000
FC000000
FC000000
FC000000
FC000000
FC000000
FC000000
FC000000
FE000000
FF000000
7FFFFFE0
7FFFFFE0
3FFFFFE0
1FFFFFE0
07FFFFE0
ENDCHAR
STARTCHAR 00EC
ENCODING 236
SWIDTH 202 0
DWIDTH 17 0
BBX 16 59 -3 0
BITMAP
FC00
7E00
3F00
1F80
0FC0
07C0
03E0
01F0
01F8
00FC
007E
003F
0000
0000
0000
0000
0000
01FE
01FE
01FE
01FE
01FE
01FE
01FE
01FE
01FE
01FE
01FE
01FE
01FE
01FE
01FE
01FE
01FE
01FE
01FE
01FE
01FE
01FE
01FE
01FE
01FE
01FE
01FE
01FE
01FE
01FE
01FE
01FE
01FE
01FE
01FE
01FE
01FE
01FE
01FE
01FE
01FE
01FE
ENDCHAR
STARTCHAR 00ED
ENCODING 237
SWIDTH 202 0
DWIDTH 17 0
BBX 15 59 4 0
BITMAP
007E
00FC
01F8
01F0
03E0
07C0
0F80
0F80
1F00
3E00
7C00
F800
0000
0000
0000
0000
0000
3F00
3F00
3F00
3F00
3F00
3F00
3F00
3F00
3F00
3F00
3F00
3F00
3F00
3F00
3F00
3F00
3F00
3F00
3F00
3F00
3F00
3F00
3F00
3F00
3F00
3F00
3F00
3F00
3F00
3F00
3F00
3F00
3F00
3F00
3F00
3F00
3F00
3F00
3F00
3F00
3F00
3F00
ENDCHAR
STARTCHAR 00EE
ENCODING 238
SWIDTH 202 0
DWIDTH 17 0
BBX 21 59 -2 0
BITMAP
00FC00
00FC00
01FE00
03FF00
07DF00
07CF80
0F8780
1F03C0
3E03E0
3C01E0
7C00F0
F80078
000000
000000
000000
000000
000000
00FC00
00FC00
00FC00
00FC00
00FC00
00FC00
00FC00
00FC00
00FC00
00FC00
00FC00
00FC00
00FC00
00FC00
00FC00
00FC00
00FC00
00FC00
00FC00
00FC00
00FC00
00FC00
00FC00
00FC00
00FC00
00FC00
00FC00
00FC00
00FC00
00FC00
00FC00
00FC00
00FC00
00FC00
00FC00
00FC00
00FC00
00FC00
00FC00
00FC00
00FC00
00FC00
ENDCHAR
STARTCHAR 00EF
ENCODING 239
SWIDTH 202 0
DWIDTH 17 0
BBX 17 56 0 0
BITMAP
F80F80
F80F80
F80F80
F80F80
F80F80
F80F80
000000
000000
000000
000000
000000
000000
000000
000000
03F000
03F000
03F000
03F000
03F000
03F000
03F000
03F000
03F000
03F000
03F000
03F000
03F000
03F000
03F000
03F000
03F000
03F000
03F000
03F000
03F000
03F000
03F000
03F000
03F000
03F000
03F000
03F000
03F000
03F000
03F000
03F000
03F000
03F000
03F000
03F000
03F000
03F000
03F000
03F000
03F000
03F000
ENDCHAR
STARTCHAR 00F0
ENCODING 240
SWIDTH 511 0
DWIDTH 43 0
BBX 30 58 7 1
BITMAP
7F000000
3F800000
1FC02000
0FE0F000
07F1F800
03FBF000
01FFC000
00FF8000
007F0000
00FF8000
01FFC000
07EFE000
0FCFF000
0787F800
0603FC00
0001FC00
0000FE00
00007F00
00003F80
00001FC0
00000FE0
000007F0
000003F8
000001F8
000000FC
07FFFFFC
1FFFFFFC
3FFFFFFC
7FFFFFFC
7FFFFFFC
FF0000FC
FE0000FC
FC0000FC
FC0000FC
FC0000FC
FC0000FC
FC0000FC
FC0000FC
FC0000FC
FC0000FC
FC0000FC
FC0000FC
FC0000FC
FC0000FC
FC0000FC
FC0000FC
FC0000FC
FC0000FC
FC0000FC
FC0000FC
FC0000FC
FE0001FC
FF8007FC
7FFFFFF8
7FFFFFF8
3FFFFFF0
1FFFFFE0
07FFFF80
ENDCHAR
STARTCHAR 00F1
ENCODING 241
SWIDTH 464 0
DWIDTH 39 0
BBX 28 59 6 0
BITMAP
0F8003F0
1FE003F0
3FF003F0
7FF803F0
7FFC03F0
FE0E07F0
FE0787F0
FC03FFE0
FC01FFE0
FC00FFE0
FC003FC0
FC001F00
00000000
00000000
00000000
00000000
00000000
FFFFFE00
FFFFFF80
FFFFFFC0
FFFFFFE0
FFFFFFE0
FC000FF0
FC0007F0
FC0003F0
FC0003F0
FC0003F0
FC0003F0
FC0003F0
FC0003F0
FC0003F0
FC0003F0
FC0003F0
FC0003F0
FC0003F0
FC0003F0
FC0003F0
FC0003F0
FC0003F0
FC0003F0
FC0003F0
FC0003F0
FC0003F0
FC0003F0
FC0003F0
FC0003F0
FC0003F0
FC0003F0
FC0003F0
FC0003F0
FC0003F0
FC0003F0
FC0003F0
FC0003F0
FC0003F0
FC0003F0
FC0003F0
FC0003F0
FC0003F0
ENDCHAR
STARTCHAR 00F2
ENCODING 242
SWIDTH 464 0
DWIDTH 39 0
BBX 28 59 6 0
BITMAP
07E00000
03F00000
01F80000
00F80000
007C0000
007E0000
003E0000
001F0000
000F8000
0007C000
0003C000
0001E000
00000000
00000000
00000000
00000000
00000000
07FFFE00
1FFFFF80
3FFFFFC0
7FFFFFE0
7FFFFFE0
FF000FF0
FE0007F0
FC0003F0
FC0003F0
FC0003F0
FC0003F0
FC0003F0
FC0003F0
FC0003F0
FC0003F0
FC0003F0
FC0003F0
FC0003F0
FC0003F0
FC0003F0
FC0003F0
FC0003F0
FC0003F0
FC0003F0
FC0003F0
FC0003F0
FC0003F0
FC0003F0
FC0003F0
FC0003F0
FC0003F0
FC0003F0
FC0003F0
FC0003F0
FC0003F0
FE0007F0
FF0007F0
7FFFFFE0
7FFFFFE0
3FFFFFC0
1FFFFF80
07FFFE00
ENDCHAR
STARTCHAR 00F3
ENCODING 243
SWIDTH 464 0
DWIDTH 39 0
BBX 28 59 6 0
BITMAP
00003F00
00007E00
0000FC00
0001F800
0001F000
0003E000
0007C000
000F8000
001F8000
001F0000
003E0000
007C0000
00000000
00000000
00000000
00000000
00000000
07FFFE00
1FFFFF80
3FFFFFC0
7FFFFFE0
7FFFFFE0
FF000FF0
FE0007F0
FC0003F0
FC0003F0
FC0003F0
FC0003F0
FC0003F0
FC0003F0
FC0003F0
FC0003F0
FC0003F0
FC0003F0
FC0003F0
FC0003F0
FC0003F0
FC0003F0
FC0003F0
FC0003F0
FC0003F0
FC0003F0
FC0003F0
FC0003F0
FC0003F0
FC0003F0
FC0003F0
FC0003F0
FC0003F0
FC0003F0
FC0003F0
FC0003F0
FE0007F0
FF0007F0
7FFFFFE0
7FFFFFE0
3FFFFFC0
1FFFFF80
07FFFE00
ENDCHAR
STARTCHAR 00F4
ENCODING 244
SWIDTH 464 0
DWIDTH 39 0
BBX 29 59 6 0
BITMAP
000F8000
001FC000
003FE000
003FE000
007DF000
00F8F800
00F0F800
01F07C00
03E03E00
03C01F00
07800F00
0F000F80
00000000
00000000
00000000
00000000
00000000
07FFFF00
1FFFFFC0
3FFFFFE0
7FFFFFF0
7FFFFFF0
FF0007F8
FE0003F8
FC0001F8
FC0001F8
FC0001F8
FC0001F8
FC0001F8
FC0001F8
FC0001F8
FC0001F8
FC0001F8
FC0001F8
FC0001F8
FC0001F8
FC0001F8
FC0001F8
FC0001F8
FC0001F8
FC0001F8
FC0001F8
FC0001F8
FC0001F8
FC0001F8
FC0001F8
FC0001F8
FC0001F8
FC0001F8
FC0001F8
FC0001F8
FC0001F8
FE0003F8
FF0007F8
7FFFFFF0
7FFFFFF0
3FFFFFE0
1FFFFFC0
07FFFF00
ENDCHAR
STARTCHAR 00F5
ENCODING 245
SWIDTH 464 0
DWIDTH 39 0
BBX 28 59 6 0
BITMAP
0F8003F0
1FE003F0
3FF003F0
7FF803F0
7FFC03F0
FE0E07F0
FE0787F0
FC03FFE0
FC01FFE0
FC00FFE0
FC003FC0
FC001F00
00000000
00000000
00000000
00000000
00000000
07FFFE00
1FFFFF80
3FFFFFC0
7FFFFFE0
7FFFFFE0
FF000FF0
FE0007F0
FC0003F0
FC0003F0
FC0003F0
FC0003F0
FC0003F0
FC0003F0
FC0003F0
FC0003F0
FC0003F0
FC0003F0
FC0003F0
FC0003F0
FC0003F0
FC0003F0
FC0003F0
FC0003F0
FC0003F0
FC0003F0
FC0003F0
FC0003F0
FC0003F0
FC0003F0
FC0003F0
FC0003F0
FC0003F0
FC0003F0
FC0003F0
FC0003F0
FE0007F0
FF0007F0
7FFFFFE0
7FFFFFE0
3FFFFFC0
1FFFFF80
07FFFE00
ENDCHAR
STARTCHAR 00F6
ENCODING 246
SWIDTH 464 0
DWIDTH 39 0
BBX 28 56 6 0
BITMAP
03E07C00
03E07C00
03E07C00
03E07C00
03E07C00
03E07C00
00000000
00000000
00000000
00000000
00000000
00000000
00000000
00000000
07FFFE00
1FFFFF80
3FFFFFC0
7FFFFFE0
7FFFFFE0
FF000FF0
FE0007F0
FC0003F0
FC0003F0
FC0003F0
FC0003F0
FC0003F0
FC0003F0
FC0003F0
FC0003F0
FC0003F0
FC0003F0
FC0003F0
FC0003F0
FC0003F0
FC0003F0
FC0003F0
FC0003F0
FC0003F0
FC0003F0
FC0003F0
FC0003F0
FC0003F0
FC0003F0
FC0003F0
FC0003F0
FC0003F0
FC0003F0
FC0003F0
FC0003F0
FE0007F0
FF0007F0
7FFFFFE0
7FFFFFE0
3FFFFFC0
1FFFFF80
07FFFE00
ENDCHAR
STARTCHAR 00F7
ENCODING 247
SWIDTH 464 0
DWIDTH 39 0
BBX 31 33 4 8
BITMAP
000FC000
000FC000
000FC000
000FC000
000FC000
00000000
00000000
00000000
00000000
00000000
00000000
00000000
00000000
00000000
FFFFFFFE
FFFFFFFE
FFFFFFFE
FFFFFFFE
FFFFFFFE
00000000
00000000
00000000
00000000
00000000
00000000
00000000
00000000
00000000
000FC000
000FC000
000FC000
000FC000
000FC000
ENDCHAR
STARTCHAR 00F8
ENCODING 248
SWIDTH 464 0
DWIDTH 39 0
BBX 38 42 1 0
BITMAP
003FFFF03C
00FFFFFC78
01FFFFFEF0
03FFFFFFE0
03FFFFFFE0
07F8007FC0
07F0003F80
07E0001F80
07E0001F80
07E0003F80
07E0007F80
07E0007F80
07E000FF80
07E001FF80
07E003DF80
07E0039F80
07E0079F80
07E00F1F80
07E01E1F80
07E03C1F80
07E0381F80
07E0781F80
07E0F01F80
07E1E01F80
07E1C01F80
07E3C01F80
07E7801F80
07EF001F80
07FE001F80
07FC001F80
07FC001F80
07F8001F80
07F0001F80
07E0001F80
07E0001F80
07F0003F80
0FF8003F80
0FFFFFFF00
1FFFFFFF00
3DFFFFFE00
78FFFFFC00
F83FFFF000
ENDCHAR
STARTCHAR 00F9
ENCODING 249
SWIDTH 464 0
DWIDTH 39 0
BBX 28 59 6 0
BITMAP
0FC00000
07E00000
03F00000
01F80000
00F80000
007C0000
003E0000
003E0000
001F0000
000F8000
0007C000
0003C000
00000000
00000000
00000000
00000000
00000000
FC0003F0
FC0003F0
FC0003F0
FC0003F0
FC0003F0
FC0003F0
FC0003F0
FC0003F0
FC0003F0
FC0003F0
FC0003F0
FC0003F0
FC0003F0
FC0003F0
FC0003F0
FC0003F0
FC0003F0
FC0003F0
FC0003F0
FC0003F0
FC0003F0
FC0003F0
FC0003F0
FC0003F0
FC0003F0
FC0003F0
FC0003F0
FC0003F0
FC0003F0
FC0003F0
FC0003F0
FC0003F0
FC0003F0
FC0003F0
FC0003F0
FE0003F0
FF0003F0
7FFFFFF0
7FFFFFF0
3FFFFFF0
1FFFFFF0
07FFFFF0
ENDCHAR
STARTCHAR 00FA
ENCODING 250
SWIDTH 464 0
DWIDTH 39 0
BBX 28 59 6 0
BITMAP
00003F00
00007E00
0000FC00
0000F800
0001F000
0003F000
0007E000
0007C000
000F8000
001F0000
003E0000
007C0000
00000000
00000000
00000000
00000000
00000000
FC0003F0
FC0003F0
FC0003F0
FC0003F0
FC0003F0
FC0003F0
FC0003F0
FC0003F0
FC0003F0
FC0003F0
FC0003F0
FC0003F0
FC0003F0
FC0003F0
FC0003F0
FC0003F0
FC0003F0
FC0003F0
FC0003F0
FC0003F0
FC0003F0
FC0003F0
FC0003F0
FC0003F0
FC0003F0
FC0003F0
FC0003F0
FC0003F0
FC0003F0
FC0003F0
FC0003F0
FC0003F0
FC0003F0
FC0003F0
FC0003F0
FE0003F0
FF0003F0
7FFFFFF0
7FFFFFF0
3FFFFFF0
1FFFFFF0
07FFFFF0
ENDCHAR
STARTCHAR 00FB
ENCODING 251
SWIDTH 464 0
DWIDTH 39 0
BBX 29 59 6 0
BITMAP
000F8000
001FC000
003FE000
003FE000
007DF000
00F8F800
00F0F800
01F07C00
03E03E00
03C01F00
07800F00
0F000F80
00000000
00000000
00000000
00000000
00000000
FC0001F8
FC0001F8
FC0001F8
FC0001F8
FC0001F8
FC0001F8
FC0001F8
FC0001F8
FC0001F8
FC0001F8
FC0001F8
FC0001F8
FC0001F8
FC0001F8
FC0001F8
FC0001F8
FC0001F8
FC0001F8
FC0001F8
FC0001F8
FC0001F8
FC0001F8
FC0001F8
FC0001F8
FC0001F8
FC0001F8
FC0001F8
FC0001F8
FC0001F8
FC0001F8
FC0001F8
FC0001F8
FC0001F8
FC0001F8
FC0001F8
FE0001F8
FF0001F8
7FFFFFF8
7FFFFFF8
3FFFFFF8
1FFFFFF8
07FFFFF8
ENDCHAR
STARTCHAR 00FC
ENCODING 252
SWIDTH 464 0
DWIDTH 39 0
BBX 28 56 6 0
BITMAP
03E07C00
03E07C00
03E07C00
03E07C00
03E07C00
03E07C00
00000000
00000000
00000000
00000000
00000000
00000000
00000000
00000000
FC0003F0
FC0003F0
FC0003F0
FC0003F0
FC0003F0
FC0003F0
FC0003F0
FC0003F0
FC0003F0
FC0003F0
FC0003F0
FC0003F0
FC0003F0
FC0003F0
FC0003F0
FC0003F0
FC0003F0
FC0003F0
FC0003F0
FC0003F0
FC0003F0
FC0003F0
FC0003F0
FC0003F0
FC0003F0
FC0003F0
FC0003F0
FC0003F0
FC0003F0
FC0003F0
FC0003F0
FC0003F0
FC0003F0
FC0003F0
FC0003F0
FE0003F0
FF0003F0
7FFFFFF0
7FFFFFF0
3FFFFFF0
1FFFFFF0
07FFFFF0
ENDCHAR
STARTCHAR 00FD
ENCODING 253
SWIDTH 404 0
DWIDTH 34 0
BBX 32 76 1 -17
BITMAP
000007C0
00000FC0
00001F80
00003F00
00003E00
00007C00
0000F800
0000F000
0001E000
0003E000
0007C000
00078000
00000000
00000000
00000000
00000000
00000000
FE00007F
FE00007F
7E00007E
7E00007E
7F0000FE
3F0000FC
3F0000FC
3F0000FC
1F8001F8
1F8001F8
1F8001F8
1F8003F0
0FC003F0
0FC003F0
0FC003F0
07C007E0
07E007E0
07E007E0
07E007C0
03E00FC0
03F00FC0
03F00F80
01F00F80
01F01F80
01F81F00
00F81F00
00F83F00
00F83E00
00FC3E00
007C3E00
007C7E00
007C7C00
003E7C00
003E7C00
003EF800
001FF800
001FF800
001FF000
001FF000
000FF000
000FE000
000FE000
0007E000
0007E000
000FC000
000FC000
000FC000
001F8000
001F8000
001F8000
003F0000
003F0000
003F0000
007E0000
007E0000
007E0000
007C0000
00FC0000
00FC0000
ENDCHAR
STARTCHAR 00FF
ENCODING 255
SWIDTH 404 0
DWIDTH 34 0
BBX 32 73 1 -17
BITMAP
00F80F80
00F80F80
00F80F80
00F80F80
00F80F80
00F80F80
00000000
00000000
00000000
00000000
00000000
00000000
00000000
00000000
FE00003F
FE00003F
7E00003E
7F00007E
7F00007E
3F00007C
3F00007C
3F8000FC
1F8000F8
1F8000F8
1F8000F8
0FC001F8
0FC001F0
0FC001F0
0FC003F0
07E003E0
07E003E0
07E003E0
03F007C0
03F007C0
03F007C0
01F00FC0
01F80F80
01F80F80
00F80F80
00F81F00
00FC1F00
007C1F00
007C1E00
007C3E00
007E3E00
003E3E00
003E7C00
003F7C00
001F7C00
001F7800
001FF800
000FF800
000FF000
000FF000
0007F000
0007F000
0007E000
0007E000
0007E000
000FC000
000FC000
000FC000
001F8000
001F8000
001F8000
003F0000
003F0000
003F0000
007F0000
007E0000
007E0000
00FE0000
00FC0000
ENDCHAR
STARTCHAR 0100
ENCODING 256
SWIDTH 500 0
DWIDTH 42 0
BBX 41 75 1 -16
BITMAP
00007F800000
0000FF800000
0000FFC00000
0000FFC00000
0001FFC00000
0001FFC00000
0001FFE00000
0001F7E00000
0003F7E00000
0003F7E00000
0003E3F00000
0007E3F00000
0007E3F00000
0007E3F00000
0007C1F80000
000FC1F80000
000FC1F80000
000FC0FC0000
000F80FC0000
001F80FC0000
001F80FC0000
001F007E0000
003F007E0000
003F007E0000
003F007E0000
003E003F0000
007E003F0000
007E003F0000
007C001F8000
00FC001F8000
00FC001F8000
00FC001F8000
00F8000FC000
01F8000FC000
01F8000FC000
01F80007C000
01F00007E000
03F00007E000
03F00007E000
03FFFFFFF000
07FFFFFFF000
07FFFFFFF000
07FFFFFFF000
07E00001F800
0FC00001F800
0FC00001F800
0FC00001F800
1FC00001FC00
1F800000FC00
1F800000FC00
1F800000FE00
3F800000FE00
3F8000007E00
3F0000007E00
7F0000007F00
7F0000007F00
7F0000007F00
7E0000003F00
FE0000003F80
FE0000003F80
000000003E00
00000000F800
00000003E000
0000000F8000
0000001E0000
0000003E0000
0000007C0000
0000007C0000
0000007C0000
0000007C0000
0000007E0000
0000007FFF80
0000003FFF80
0000003FFF80
0000000FFF80
ENDCHAR
STARTCHAR 0101
ENCODING 257
SWIDTH 464 0
DWIDTH 39 0
BBX 28 59 5 -17
BITMAP
FFFFFE00
FFFFFF80
FFFFFFC0
FFFFFFE0
FFFFFFE0
00000FF0
000007F0
000003F0
000003F0
000003F0
000003F0
000003F0
000003F0
000003F0
000003F0
000003F0
07FFFFF0
1FFFFFF0
3FFFFFF0
7FFFFFF0
7F0003F0
7E0003F0
FC0003F0
FC0003F0
FC0003F0
FC0003F0
FC0003F0
FC0003F0
FC0003F0
FC0003F0
FC0003F0
FC0003F0
FC0003F0
FC0003F0
FC0003F0
FE0003F0
FF0003F0
FFFFFFF0
7FFFFFF0
7FFFFFF0
7FFFFFF0
3FFFFFF0
1FFFFFF0
03FFFFF0
00000FC0
00003F00
0000F800
0001F000
0003C000
00078000
00078000
000F8000
000F8000
000F8000
000FC000
0007FFF0
0007FFF0
0003FFF0
0000FFF0
ENDCHAR
STARTCHAR 0102
ENCODING 258
SWIDTH 500 0
DWIDTH 42 0
BBX 41 69 1 1
BITMAP
00003E000000
00007F000000
0000FF800000
0001F7C00000
0003E3E00000
0007C1F00000
000F00F80000
001E003C0000
000000000000
000000000000
000000000000
00007F800000
0000FF800000
0000FFC00000
0000FFC00000
0000FFC00000
0001FFC00000
0001FFE00000
0001F7E00000
0003F7E00000
0003F7F00000
0003F3F00000
0007E3F00000
0007E3F00000
0007E3F80000
0007C1F80000
000FC1F80000
000FC1F80000
000FC1FC0000
001F80FC0000
001F80FC0000
001F80FE0000
001F807E0000
003F007E0000
003F007E0000
003F007F0000
007E003F0000
007E003F0000
007E003F8000
007E003F8000
00FC001F8000
00FC001F8000
00FC001FC000
01FC001FC000
01F8000FC000
01F8000FC000
01F8000FE000
03F80007E000
03F00007E000
03F00007F000
07FFFFFFF000
07FFFFFFF000
07FFFFFFF000
07FFFFFFF800
0FE00003F800
0FE00003F800
0FC00001FC00
1FC00001FC00
1FC00001FC00
1FC00000FC00
3F800000FE00
3F800000FE00
3F800000FE00
3F0000007E00
7F0000007F00
7F0000007F00
7F0000007F00
FE0000003F80
FE0000003F80
ENDCHAR
STARTCHAR 0103
ENCODING 259
SWIDTH 464 0
DWIDTH 39 0
BBX 28 59 5 0
BITMAP
000F8000
001F8000
003FC000
003FE000
007FE000
00F9F000
00F0F800
01E07C00
03E07C00
03C03E00
07801F00
0F000F00
00000000
00000000
00000000
00000000
00000000
FFFFFE00
FFFFFF80
FFFFFFC0
FFFFFFE0
FFFFFFE0
00000FF0
000007F0
000003F0
000003F0
000003F0
000003F0
000003F0
000003F0
000003F0
000003F0
000003F0
07FFFFF0
1FFFFFF0
3FFFFFF0
7FFFFFF0
7F0003F0
FE0003F0
FC0003F0
FC0003F0
FC0003F0
FC0003F0
FC0003F0
FC0003F0
FC0003F0
FC0003F0
FC0003F0
FC0003F0
FC0003F0
FC0003F0
FC0003F0
FE0003F0
FF0003F0
7FFFFFF0
7FFFFFF0
3FFFFFF0
1FFFFFF0
07FFFFF0
ENDCHAR
STARTCHAR 0104
ENCODING 260
SWIDTH 500 0
DWIDTH 42 0
BBX 41 71 1 0
BITMAP
0003FFE00000
000FFFF80000
000FFFF80000
001F007C0000
001E003C0000
001E003C0000
001E003C0000
001F007C0000
000FFFF80000
0003FFE00000
000000000000
000000000000
0000FF800000
0000FF800000
0000FFC00000
0000FFC00000
0001FFC00000
0001FFC00000
0001FFE00000
0003F7E00000
0003F7E00000
0003F7E00000
0003E7F00000
0007E3F00000
0007E3F00000
0007E3F80000
0007C3F80000
000FC1F80000
000FC1F80000
000FC1FC0000
001F80FC0000
001F80FC0000
001F80FC0000
001F00FE0000
003F007E0000
003F007E0000
003F007F0000
007E007F0000
007E003F0000
007E003F0000
007E003F8000
00FC003F8000
00FC001F8000
00FC001F8000
01F8001FC000
01F8000FC000
01F8000FC000
01F8000FE000
03F0000FE000
03F00007E000
03F00007E000
07F00007F000
07FFFFFFF000
07FFFFFFF000
07FFFFFFF000
0FFFFFFFF800
0FC00003F800
0FC00001F800
0FC00001FC00
1FC00001FC00
1F800001FC00
1F800000FC00
3F800000FE00
3F800000FE00
3F000000FE00
3F0000007F00
7F0000007F00
7F0000007F00
7E0000007F00
FE0000003F80
FE0000003F80
ENDCHAR
STARTCHAR 0105
ENCODING 261
SWIDTH 464 0
DWIDTH 39 0
BBX 28 60 5 0
BITMAP
00FFF000
03FFFC00
03FFFC00
07C03E00
07801E00
07801E00
07801E00
07801E00
07801E00
07C03E00
03FFFC00
03FFFC00
00FFF000
00000000
00000000
00000000
00000000
00000000
FFFFFE00
FFFFFF80
FFFFFFC0
FFFFFFE0
FFFFFFE0
00000FF0
000007F0
000003F0
000003F0
000003F0
000003F0
000003F0
000003F0
000003F0
000003F0
000003F0
07FFFFF0
1FFFFFF0
3FFFFFF0
7FFFFFF0
7F0003F0
FE0003F0
FC0003F0
FC0003F0
FC0003F0
FC0003F0
FC0003F0
FC0003F0
FC0003F0
FC0003F0
FC0003F0
FC0003F0
FC0003F0
FC0003F0
FC0003F0
FE0003F0
FF0003F0
7FFFFFF0
7FFFFFF0
3FFFFFF0
1FFFFFF0
07FFFFF0
ENDCHAR
STARTCHAR 0106
ENCODING 262
SWIDTH 476 0
DWIDTH 40 0
BBX 31 70 6 0
BITMAP
00F000F8
007801F0
003E03E0
001F07C0
000F9F80
0007FF00
0003FC00
0001F800
0000F000
00000000
00000000
07FFFFFE
1FFFFFFE
3FFFFFFE
7FFFFFFE
7FFFFFFE
FF80000E
FE000000
FC000000
FC000000
FC000000
FC000000
FC000000
FC000000
FC000000
FC000000
FC000000
FC000000
FC000000
FC000000
FC000000
FC000000
FC000000
FC000000
FC000000
FC000000
FC000000
FC000000
FC000000
FC000000
FC000000
FC000000
FC000000
FC000000
FC000000
FC000000
FC000000
FC000000
FC000000
FC000000
FC000000
FC000000
FC000000
FC000000
FC000000
FC000000
FC000000
FC000000
FC000000
FC000000
FC000000
FC000000
FC000000
FE000000
FFC0000E
7FFFFFFE
7FFFFFFE
3FFFFFFE
1FFFFFFE
07FFFFFE
ENDCHAR
STARTCHAR 0107
ENCODING 263
SWIDTH 392 0
DWIDTH 33 0
BBX 25 59 6 0
BITMAP
0F800780
07800F00
03C01F00
03E03E00
01F07C00
00F87800
00F8F800
007DF000
003FE000
003FE000
001FC000
000F8000
00000000
00000000
00000000
00000000
00000000
07FFFF80
1FFFFF80
3FFFFF80
7FFFFF80
7FFFFF80
FF000000
FE000000
FC000000
FC000000
FC000000
FC000000
FC000000
FC000000
FC000000
FC000000
FC000000
FC000000
FC000000
FC000000
FC000000
FC000000
FC000000
FC000000
FC000000
FC000000
FC000000
FC000000
FC000000
FC000000
FC000000
FC000000
FC000000
FC000000
FC000000
FC000000
FE000000
FF000000
7FFFFF80
7FFFFF80
3FFFFF80
1FFFFF80
07FFFF80
ENDCHAR
STARTCHAR 0108
ENCODING 264
SWIDTH 476 0
DWIDTH 40 0
BBX 30 68 6 0
BITMAP
0007E000
0007E000
0007E000
0007E000
0007E000
00000000
00000000
00000000
00000000
07FFFFFC
1FFFFFFC
3FFFFFFC
7FFFFFFC
7FFFFFFC
FF80001C
FE000000
FC000000
FC000000
FC000000
FC000000
FC000000
FC000000
FC000000
FC000000
FC000000
FC000000
FC000000
FC000000
FC000000
FC000000
FC000000
FC000000
FC000000
FC000000
FC000000
FC000000
FC000000
FC000000
FC000000
FC000000
FC000000
FC000000
FC000000
FC000000
FC000000
FC000000
FC000000
FC000000
FC000000
FC000000
FC000000
FC000000
FC000000
FC000000
FC000000
FC000000
FC000000
FC000000
FC000000
FC000000
FC000000
FE000000
FF80001C
7FFFFFFC
7FFFFFFC
3FFFFFFC
1FFFFFFC
07FFFFFC
ENDCHAR
STARTCHAR 0109
ENCODING 265
SWIDTH 392 0
DWIDTH 33 0
BBX 22 54 6 0
BITMAP
007E00
007E00
007E00
007E00
007E00
007E00
000000
000000
000000
000000
000000
000000
07FFFC
1FFFFC
3FFFFC
7FFFFC
7FFFFC
FF0000
FE0000
FC0000
FC0000
FC0000
FC0000
FC0000
FC0000
FC0000
FC0000
FC0000
FC0000
FC0000
FC0000
FC0000
FC0000
FC0000
FC0000
FC0000
FC0000
FC0000
FC0000
FC0000
FC0000
FC0000
FC0000
FC0000
FC0000
FC0000
FC0000
FE0000
FF0000
7FFFFC
7FFFFC
3FFFFC
1FFFFC
07FFFC
ENDCHAR
STARTCHAR 010A
ENCODING 266
SWIDTH 547 0
DWIDTH 46 0
BBX 34 70 6 0
BITMAP
03E003E000
01F007C000
00F80F8000
007C1F0000
003E3E0000
001FFC0000
000FF80000
0007F00000
0003E00000
0000000000
0000000000
FFFFFFF800
FFFFFFFE00
FFFFFFFF00
FFFFFFFF80
FFFFFFFF80
FC0000FFC0
FC00001FC0
FC00000FC0
FC00000FC0
FC00000FC0
FC00000FC0
FC00000FC0
FC00000FC0
FC00000FC0
FC00000FC0
FC00000FC0
FC00000FC0
FC00000FC0
FC00000FC0
FC00000FC0
FC00000FC0
FC00000FC0
FC00000FC0
FC00000FC0
FC00000FC0
FC00000FC0
FC00000FC0
FC00000FC0
FC00000FC0
FC00000FC0
FC00000FC0
FC00000FC0
FC00000FC0
FC00000FC0
FC00000FC0
FC00000FC0
FC00000FC0
FC00000FC0
FC00000FC0
FC00000FC0
FC00000FC0
FC00000FC0
FC00000FC0
FC00000FC0
FC00000FC0
FC00000FC0
FC00000FC0
FC00000FC0
FC00000FC0
FC00000FC0
FC00000FC0
FC00000FC0
FC00001FC0
FC0000FFC0
FFFFFFFF80
FFFFFFFF80
FFFFFFFF00
FFFFFFFE00
FFFFFFF800
ENDCHAR
STARTCHAR 010B
ENCODING 267
SWIDTH 476 0
DWIDTH 40 0
BBX 32 70 6 0
BITMAP
000003F0
000007C0
00000F80
00001F00
00003E00
00007C00
0000F000
0001E000
0003C000
00000000
00000000
07FFFFFF
1FFFFFFF
3FFFFFFF
7FFFFFFF
7FFFFFFF
FFC00007
FE000000
FC000000
FC000000
FC000000
FC000000
FC000000
FC000000
FC000000
FC000000
FC000000
FC000000
FC000000
FC000000
FC000000
FC000000
FC000000
FC000000
FC000000
FC000000
FC000000
FC000000
FC000000
FC000000
FC000000
FC000000
FC000000
FC000000
FC000000
FC000000
FC000000
FC000000
FC000000
FC000000
FC000000
FC000000
FC000000
FC000000
FC000000
FC000000
FC000000
FC000000
FC000000
FC000000
FC000000
FC000000
FC000000
FE000000
FFC00007
7FFFFFFF
7FFFFFFF
3FFFFFFF
1FFFFFFF
07FFFFFF
ENDCHAR
STARTCHAR 010C
ENCODING 268
SWIDTH 476 0
DWIDTH 40 0
BBX 32 76 6 -17
BITMAP
07FFFFFF
1FFFFFFF
3FFFFFFF
7FFFFFFF
7FFFFFFF
FFC00003
FE000000
FC000000
FC000000
FC000000
FC000000
FC000000
FC000000
FC000000
FC000000
FC000000
FC000000
FC000000
FC000000
FC000000
FC000000
FC000000
FC000000
FC000000
FC000000
FC000000
FC000000
FC000000
FC000000
FC000000
FC000000
FC000000
FC000000
FC000000
FC000000
FC000000
FC000000
FC000000
FC000000
FC000000
FC000000
FC000000
FC000000
FC000000
FC000000
FC000000
FC000000
FC000000
FC000000
FC000000
FC000000
FC000000
FE000000
FFC00003
7FFFFFFF
7FFFFFFF
3FFFFFFF
1FFFFFFF
07FFFFFF
0000F000
0000F000
0000E000
0001FF80
0001FFC0
0003FFE0
000003F0
000001F0
000001F0
000001F0
000001F0
000001F0
000001F0
000007F0
001FFFE0
001FFFC0
001FFF00
ENDCHAR
STARTCHAR 010D
ENCODING 269
SWIDTH 392 0
DWIDTH 33 0
BBX 22 59 6 -17
BITMAP
07FFFC
1FFFFC
3FFFFC
7FFFFC
7FFFFC
FF0000
FE0000
FC0000
FC0000
FC0000
FC0000
FC0000
FC0000
FC0000
FC0000
FC0000
FC0000
FC0000
FC0000
FC0000
FC0000
FC0000
FC0000
FC0000
FC0000
FC0000
FC0000
FC0000
FC0000
FC0000
FC0000
FC0000
FC0000
FC0000
FC0000
FE0000
FF0000
7FFFFC
7FFFFC
3FFFFC
1FFFFC
07FFFC
001C00
001800
003800
003FC0
003FE0
003FF0
0001F8
0000F8
0000F8
0000F8
0000F8
0000F8
0000F8
0001F8
01FFF0
01FFF0
01FFC0
ENDCHAR
STARTCHAR 010E
ENCODING 270
SWIDTH 547 0
DWIDTH 46 0
BBX 34 68 6 0
BITMAP
01FFFF8000
01FFFF8000
01FFFF8000
01FFFF8000
0000000000
0000000000
0000000000
0000000000
0000000000
FFFFFFF800
FFFFFFFE00
FFFFFFFF00
FFFFFFFF80
FFFFFFFF80
FC0000FFC0
FC00001FC0
FC00000FC0
FC00000FC0
FC00000FC0
FC00000FC0
FC00000FC0
FC00000FC0
FC00000FC0
FC00000FC0
FC00000FC0
FC00000FC0
FC00000FC0
FC00000FC0
FC00000FC0
FC00000FC0
FC00000FC0
FC00000FC0
FC00000FC0
FC00000FC0
FC00000FC0
FC00000FC0
FC00000FC0
FC00000FC0
FC00000FC0
FC00000FC0
FC00000FC0
FC00000FC0
FC00000FC0
FC00000FC0
FC00000FC0
FC00000FC0
FC00000FC0
FC00000FC0
FC00000FC0
FC00000FC0
FC00000FC0
FC00000FC0
FC00000FC0
FC00000FC0
FC00000FC0
FC00000FC0
FC00000FC0
FC00000FC0
FC00000FC0
FC00000FC0
FC00000FC0
FC00001FC0
FC0000FFC0
FFFFFFFF80
FFFFFFFF80
FFFFFFFF00
FFFFFFFE00
FFFFFFF800
ENDCHAR
STARTCHAR 010F
ENCODING 271
SWIDTH 464 0
DWIDTH 39 0
BBX 32 58 6 1
BITMAP
000003F0
000003F0
000003F0
000003F0
0003FFFF
0003FFFF
0003FFFF
0003FFFF
000003F0
000003F0
000003F0
000003F0
000003F0
000003F0
000003F0
000003F0
07FFFFF0
1FFFFFF0
3FFFFFF0
7FFFFFF0
7FFFFFF0
FF0003F0
FE0003F0
FC0003F0
FC0003F0
FC0003F0
FC0003F0
FC0003F0
FC0003F0
FC0003F0
FC0003F0
FC0003F0
FC0003F0
FC0003F0
FC0003F0
FC0003F0
FC0003F0
FC0003F0
FC0003F0
FC0003F0
FC0003F0
FC0003F0
FC0003F0
FC0003F0
FC0003F0
FC0003F0
FC0003F0
FC0003F0
FC0003F0
FC0003F0
FC0003F0
FE0003F0
FF0003F0
7FFFFFF0
7FFFFFF0
3FFFFFF0
1FFFFFF0
07FFFFF0
ENDCHAR
STARTCHAR 0111
ENCODING 273
SWIDTH 464 0
DWIDTH 39 0
BBX 28 58 6 1
BITMAP
000003F0
000003F0
000003F0
000003F0
0FFFFFF0
0FFFFFF0
0FFFFFF0
0FFFFFF0
000003F0
000003F0
000003F0
000003F0
000003F0
000003F0
000003F0
000003F0
07FFFFF0
1FFFFFF0
3FFFFFF0
7FFFFFF0
7FFFFFF0
FF0003F0
FE0003F0
FC0003F0
FC0003F0
FC0003F0
FC0003F0
FC0003F0
FC0003F0
FC0003F0
FC0003F0
FC0003F0
FC0003F0
FC0003F0
FC0003F0
FC0003F0
FC0003F0
FC0003F0
FC0003F0
FC0003F0
FC0003F0
FC0003F0
FC0003F0
FC0003F0
FC0003F0
FC0003F0
FC0003F0
FC0003F0
FC0003F0
FC0003F0
FC0003F0
FE0003F0
FF0003F0
7FFFFFF0
7FFFFFF0
3FFFFFF0
1FFFFFF0
07FFFFF0
ENDCHAR
STARTCHAR 0112
ENCODING 274
SWIDTH 476 0
DWIDTH 40 0
BBX 32 68 6 0
BITMAP
00FFFFC0
00FFFFC0
00FFFFC0
00FFFFC0
00000000
00000000
00000000
00000000
00000000
FFFFFFFC
FFFFFFFC
FFFFFFFC
FFFFFFFC
FFFFFFFC
FC000000
FC000000
FC000000
FC000000
FC000000
FC000000
FC000000
FC000000
FC000000
FC000000
FC000000
FC000000
FC000000
FC000000
FC000000
FC000000
FC000000
FC000000
FC000000
FC000000
FC000000
FFFFFFC0
FFFFFFC0
FFFFFFC0
FFFFFFC0
FFFFFFC0
FC000000
FC000000
FC000000
FC000000
FC000000
FC000000
FC000000
FC000000
FC000000
FC000000
FC000000
FC000000
FC000000
FC000000
FC000000
FC000000
FC000000
FC000000
FC000000
FC000000
FC000000
FC000000
FC000001
FFFFFFFF
FFFFFFFF
FFFFFFFF
FFFFFFFF
FFFFFFFF
ENDCHAR
STARTCHAR 0113
ENCODING 275
SWIDTH 452 0
DWIDTH 38 0
BBX 28 54 6 0
BITMAP
03FFFF00
03FFFF00
03FFFF00
03FFFF00
00000000
00000000
00000000
00000000
00000000
00000000
00000000
00000000
07FFFE00
1FFFFF80
3FFFFFC0
7FFFFFE0
7FFFFFE0
FE0007F0
FE0007F0
FC0003F0
FC0003F0
FC0003F0
FC0003F0
FC0003F0
FC0003F0
FC0003F0
FC0003F0
FC0003F0
FFFFFFF0
FFFFFFF0
FFFFFFF0
FFFFFFF0
FC000000
FC000000
FC000000
FC000000
FC000000
FC000000
FC000000
FC000000
FC000000
FC000000
FC000000
FC000000
FC000000
FC000000
FC000000
FE000000
FE000000
7FFFFF00
7FFFFF00
3FFFFF00
1FFFFF00
07FFFF00
ENDCHAR
STARTCHAR 0114
ENCODING 276
SWIDTH 476 0
DWIDTH 40 0
BBX 32 69 6 1
BITMAP
03C003C0
03C003C0
03C003C0
03E003C0
03F007C0
01FFFF80
00FFFF00
003FFC00
00000000
00000000
FFFFFFFC
FFFFFFFC
FFFFFFFC
FFFFFFFC
FFFFFFFC
FC000004
FC000000
FC000000
FC000000
FC000000
FC000000
FC000000
FC000000
FC000000
FC000000
FC000000
FC000000
FC000000
FC000000
FC000000
FC000000
FC000000
FC000000
FC000000
FC000000
FC000000
FFFFFFC0
FFFFFFC0
FFFFFFC0
FFFFFFC0
FFFFFFC0
FC000000
FC000000
FC000000
FC000000
FC000000
FC000000
FC000000
FC000000
FC000000
FC000000
FC000000
FC000000
FC000000
FC000000
FC000000
FC000000
FC000000
FC000000
FC000000
FC000000
FC000000
FC000000
FC000001
FFFFFFFF
FFFFFFFF
FFFFFFFF
FFFFFFFF
FFFFFFFF
ENDCHAR
STARTCHAR 0115
ENCODING 277
SWIDTH 452 0
DWIDTH 38 0
BBX 27 59 6 0
BITMAP
0C000600
0C000600
0C000600
0C000600
0C000600
0E000E00
0F001E00
07FFFC00
07FFFC00
03FFF800
00FFE000
00000000
00000000
00000000
00000000
00000000
00000000
07FFFC00
1FFFFF00
3FFFFF80
7FFFFFC0
7FFFFFC0
FE000FE0
FE000FE0
FC0007E0
FC0007E0
FC0007E0
FC0007E0
FC0007E0
FC0007E0
FC0007E0
FC0007E0
FC0007E0
FFFFFFE0
FFFFFFE0
FFFFFFE0
FFFFFFE0
FC000000
FC000000
FC000000
FC000000
FC000000
FC000000
FC000000
FC000000
FC000000
FC000000
FC000000
FC000000
FC000000
FC000000
FC000000
FE000000
FF000000
7FFFFFE0
7FFFFFE0
3FFFFFE0
1FFFFFE0
07FFFFE0
ENDCHAR
STARTCHAR 0116
ENCODING 278
SWIDTH 476 0
DWIDTH 40 0
BBX 33 68 6 0
BITMAP
0003F00000
0003F00000
0003F00000
0003F00000
0003F00000
0000000000
0000000000
0000000000
0000000000
FFFFFFFF00
FFFFFFFF00
FFFFFFFF00
FFFFFFFF00
FFFFFFFF00
FC00000100
FC00000000
FC00000000
FC00000000
FC00000000
FC00000000
FC00000000
FC00000000
FC00000000
FC00000000
FC00000000
FC00000000
FC00000000
FC00000000
FC00000000
FC00000000
FC00000000
FC00000000
FC00000000
FC00000000
FC00000000
FFFFFFE000
FFFFFFE000
FFFFFFE000
FFFFFFE000
FFFFFFE000
FC00000000
FC00000000
FC00000000
FC00000000
FC00000000
FC00000000
FC00000000
FC00000000
FC00000000
FC00000000
FC00000000
FC00000000
FC00000000
FC00000000
FC00000000
FC00000000
FC00000000
FC00000000
FC00000000
FC00000000
FC00000000
FC00000000
FC00000000
FFFFFFFF80
FFFFFFFF80
FFFFFFFF80
FFFFFFFF80
FFFFFFFF80
ENDCHAR
STARTCHAR 0117
ENCODING 279
SWIDTH 452 0
DWIDTH 38 0
BBX 28 54 6 0
BITMAP
000FC000
000FC000
000FC000
000FC000
000FC000
000FC000
00000000
00000000
00000000
00000000
00000000
00000000
07FFFE00
1FFFFF80
3FFFFFC0
7FFFFFE0
7FFFFFE0
FE0007F0
FE0007F0
FC0003F0
FC0003F0
FC0003F0
FC0003F0
FC0003F0
FC0003F0
FC0003F0
FC0003F0
FC0003F0
FFFFFFF0
FFFFFFF0
FFFFFFF0
FFFFFFF0
FC000000
FC000000
FC000000
FC000000
FC000000
FC000000
FC000000
FC000000
FC000000
FC000000
FC000000
FC000000
FC000000
FC000000
FC000000
FE000000
FF000000
7FFFFFF0
7FFFFFF0
3FFFFFF0
1FFFFFF0
07FFFFF0
ENDCHAR
STARTCHAR 0118
ENCODING 280
SWIDTH 476 0
DWIDTH 40 0
BBX 30 76 6 -17
BITMAP
FFFFFFF8
FFFFFFF8
FFFFFFF8
FFFFFFF8
FFFFFFF8
FC000008
FC000000
FC000000
FC000000
FC000000
FC000000
FC000000
FC000000
FC000000
FC000000
FC000000
FC000000
FC000000
FC000000
FC000000
FC000000
FC000000
FC000000
FC000000
FC000000
FC000000
FFFFFF00
FFFFFF00
FFFFFF00
FFFFFF00
FFFFFF00
FC000000
FC000000
FC000000
FC000000
FC000000
FC000000
FC000000
FC000000
FC000000
FC000000
FC000000
FC000000
FC000000
FC000000
FC000000
FC000000
FC000000
FC000000
FC000000
FC000000
FC000000
FC000000
FC000000
FFFFFFFC
FFFFFFFC
FFFFFFFC
FFFFFFFC
FFFFFFFC
FFFFFFFC
FFFFFFFC
000001E0
00000F80
00003E00
0000F800
0001E000
0003E000
0007C000
0007C000
0007C000
0007C000
0007E000
0007FFF0
0003FFF0
0003FFF0
0000FFF0
ENDCHAR
STARTCHAR 0119
ENCODING 281
SWIDTH 452 0
DWIDTH 38 0
BBX 28 59 6 -17
BITMAP
07FFFE00
1FFFFF80
3FFFFFC0
7FFFFFE0
7FFFFFE0
FE0007F0
FE0007F0
FC0003F0
FC0003F0
FC0003F0
FC0003F0
FC0003F0
FC0003F0
FC0003F0
FC0003F0
FC0003F0
FFFFFFF0
FFFFFFF0
FFFFFFF0
FFFFFFF0
FC000000
FC000000
FC000000
FC000000
FC000000
FC000000
FC000000
FC000000
FC000000
FC000000
FC000000
FC000000
FC000000
FC000000
FC000000
FE000000
FF000000
FFFFFFF0
FFFFFFF0
7FFFFFF0
7FFFFFF0
3FFFFFF0
1FFFFFF0
07FFFFF0
00000F00
00007C00
0001E000
00078000
001F0000
003E0000
007C0000
007C0000
007C0000
007C0000
007E0000
007FFF80
003FFF80
003FFF80
000FFF80
ENDCHAR
STARTCHAR 011A
ENCODING 282
SWIDTH 476 0
DWIDTH 40 0
BBX 32 70 6 0
BITMAP
07C003C0
03E00780
01F80F00
00FC1E00
007E7C00
003FF800
000FF000
0007F000
0003E000
00000000
00000000
FFFFFFFC
FFFFFFFC
FFFFFFFC
FFFFFFFC
FFFFFFFC
FC000004
FC000000
FC000000
FC000000
FC000000
FC000000
FC000000
FC000000
FC000000
FC000000
FC000000
FC000000
FC000000
FC000000
FC000000
FC000000
FC000000
FC000000
FC000000
FC000000
FC000000
FFFFFFE0
FFFFFFE0
FFFFFFE0
FFFFFFE0
FFFFFFE0
FC000000
FC000000
FC000000
FC000000
FC000000
FC000000
FC000000
FC000000
FC000000
FC000000
FC000000
FC000000
FC000000
FC000000
FC000000
FC000000
FC000000
FC000000
FC000000
FC000000
FC000000
FC000000
FC000001
FFFFFFFF
FFFFFFFF
FFFFFFFF
FFFFFFFF
FFFFFFFF
ENDCHAR
STARTCHAR 011B
ENCODING 283
SWIDTH 452 0
DWIDTH 38 0
BBX 26 59 6 0
BITMAP
0F800F80
07801F00
07C01E00
03E03E00
01F07C00
00F0F800
00F8F800
007DF000
003FE000
003FC000
001FC000
000F8000
00000000
00000000
00000000
00000000
00000000
07FFF800
1FFFFE00
3FFFFF00
7FFFFF80
7FFFFF80
FE0007C0
FE0007C0
FC0003C0
FC0003C0
FC0003C0
FC0003C0
FC0003C0
FC0003C0
FC0003C0
FC0003C0
FC0003C0
FFFFFFC0
FFFFFFC0
FFFFFFC0
FFFFFFC0
FC000000
FC000000
FC000000
FC000000
FC000000
FC000000
FC000000
FC000000
FC000000
FC000000
FC000000
FC000000
FC000000
FC000000
FC000000
FE000000
FF000000
7FFFFFC0
7FFFFFC0
3FFFFFC0
1FFFFFC0
07FFFFC0
ENDCHAR
STARTCHAR 011C
ENCODING 284
SWIDTH 547 0
DWIDTH 46 0
BBX 34 70 6 0
BITMAP
0001F80000
0003FC0000
0007FE0000
0007FF0000
000F1F0000
001E078000
003C03C000
007801E000
00F000F000
0000000000
0000000000
07FFFFFFC0
1FFFFFFFC0
3FFFFFFFC0
7FFFFFFFC0
7FFFFFFFC0
FFC00001C0
FE00000000
FC00000000
FC00000000
FC00000000
FC00000000
FC00000000
FC00000000
FC00000000
FC00000000
FC00000000
FC00000000
FC00000000
FC00000000
FC00000000
FC00000000
FC00000000
FC00000000
FC00000000
FC00000000
FC00000000
FC007FFFC0
FC007FFFC0
FC007FFFC0
FC007FFFC0
FC007FFFC0
FC00000FC0
FC00000FC0
FC00000FC0
FC00000FC0
FC00000FC0
FC00000FC0
FC00000FC0
FC00000FC0
FC00000FC0
FC00000FC0
FC00000FC0
FC00000FC0
FC00000FC0
FC00000FC0
FC00000FC0
FC00000FC0
FC00000FC0
FC00000FC0
FC00000FC0
FC00000FC0
FC00000FC0
FE00001FC0
FFC000FFC0
7FFFFFFF80
7FFFFFFF80
3FFFFFFF00
1FFFFFFE00
07FFFFF800
ENDCHAR
STARTCHAR 011D
ENCODING 285
SWIDTH 464 0
DWIDTH 39 0
BBX 29 76 6 -17
BITMAP
0007C000
000FE000
001FE000
001FF000
003EF800
007CFC00
00F87C00
00F03E00
01F01F00
03E00F00
03C00F80
078007C0
00000000
00000000
00000000
00000000
00000000
07FFFFF8
1FFFFFF8
3FFFFFF8
7FFFFFF8
7FFFFFF8
FF0001F8
FE0001F8
FC0001F8
FC0001F8
FC0001F8
FC0001F8
FC0001F8
FC0001F8
FC0001F8
FC0001F8
FC0001F8
FC0001F8
FC0001F8
FC0001F8
FC0001F8
FC0001F8
FC0001F8
FC0001F8
FC0001F8
FC0001F8
FC0001F8
FC0001F8
FC0001F8
FC0001F8
FC0001F8
FC0001F8
FC0001F8
FC0001F8
FC0001F8
FC0001F8
FE0001F8
FF0001F8
7FFFFFF8
7FFFFFF8
3FFFFFF8
1FFFFFF8
07FFFFF8
000001F8
000001F8
000001F8
000001F8
000001F8
000001F8
000001F8
000001F8
000001F8
000001F8
000003F8
000007F8
FFFFFFF0
FFFFFFF0
FFFFFFE0
FFFFFFC0
FFFFFE00
ENDCHAR
STARTCHAR 011E
ENCODING 286
SWIDTH 547 0
DWIDTH 46 0
BBX 34 69 6 1
BITMAP
01E001E000
01E001E000
01E001E000
01F001E000
01F803E000
00FFFFC000
007FFF8000
001FFE0000
0000000000
0000000000
07FFFFFFC0
1FFFFFFFC0
3FFFFFFFC0
7FFFFFFFC0
7FFFFFFFC0
FFC00001C0
FE00000000
FC00000000
FC00000000
FC00000000
FC00000000
FC00000000
FC00000000
FC00000000
FC00000000
FC00000000
FC00000000
FC00000000
FC00000000
FC00000000
FC00000000
FC00000000
FC00000000
FC00000000
FC00000000
FC00000000
FC00FFFFC0
FC00FFFFC0
FC00FFFFC0
FC00FFFFC0
FC00FFFFC0
FC00000FC0
FC00000FC0
FC00000FC0
FC00000FC0
FC00000FC0
FC00000FC0
FC00000FC0
FC00000FC0
FC00000FC0
FC00000FC0
FC00000FC0
FC00000FC0
FC00000FC0
FC00000FC0
FC00000FC0
FC00000FC0
FC00000FC0
FC00000FC0
FC00000FC0
FC00000FC0
FC00000FC0
FE00001FC0
FFC000FFC0
7FFFFFFF80
7FFFFFFF80
3FFFFFFF00
1FFFFFFE00
07FFFFF800
ENDCHAR
STARTCHAR 011F
ENCODING 287
SWIDTH 464 0
DWIDTH 39 0
BBX 28 76 6 -17
BITMAP
0C000300
0C000300
0C000300
0C000300
0C000300
0E000700
0F000F00
07FFFE00
07FFFE00
03FFFC00
00FFF000
00000000
00000000
00000000
00000000
00000000
00000000
07FFFFF0
1FFFFFF0
3FFFFFF0
7FFFFFF0
7FFFFFF0
FF0003F0
FE0003F0
FC0003F0
FC0003F0
FC0003F0
FC0003F0
FC0003F0
FC0003F0
FC0003F0
FC0003F0
FC0003F0
FC0003F0
FC0003F0
FC0003F0
FC0003F0
FC0003F0
FC0003F0
FC0003F0
FC0003F0
FC0003F0
FC0003F0
FC0003F0
FC0003F0
FC0003F0
FC0003F0
FC0003F0
FC0003F0
FC0003F0
FC0003F0
FC0003F0
FE0003F0
FF0003F0
7FFFFFF0
7FFFFFF0
3FFFFFF0
3FFFFFF0
0FFFFFF0
000003F0
000003F0
000003F0
000003F0
000003F0
000003F0
000003F0
000003F0
000003F0
000003F0
000007F0
00000FF0
FFFFFFE0
FFFFFFE0
FFFFFFC0
FFFFFF80
FFFFFC00
ENDCHAR
STARTCHAR 0120
ENCODING 288
SWIDTH 547 0
DWIDTH 46 0
BBX 34 68 6 0
BITMAP
0001F80000
0001F80000
0001F80000
0001F80000
0001F80000
0000000000
0000000000
0000000000
0000000000
07FFFFFFC0
1FFFFFFFC0
3FFFFFFFC0
7FFFFFFFC0
7FFFFFFFC0
FFC00001C0
FE00000000
FC00000000
FC00000000
FC00000000
FC00000000
FC00000000
FC00000000
FC00000000
FC00000000
FC00000000
FC00000000
FC00000000
FC00000000
FC00000000
FC00000000
FC00000000
FC00000000
FC00000000
FC00000000
FC00000000
FC01FFFFC0
FC01FFFFC0
FC01FFFFC0
FC01FFFFC0
FC01FFFFC0
FC00000FC0
FC00000FC0
FC00000FC0
FC00000FC0
FC00000FC0
FC00000FC0
FC00000FC0
FC00000FC0
FC00000FC0
FC00000FC0
FC00000FC0
FC00000FC0
FC00000FC0
FC00000FC0
FC00000FC0
FC00000FC0
FC00000FC0
FC00000FC0
FC00000FC0
FC00000FC0
FC00000FC0
FE00001FC0
FFC000FFC0
7FFFFFFF80
7FFFFFFF80
3FFFFFFF00
1FFFFFFE00
07FFFFF800
ENDCHAR
STARTCHAR 0121
ENCODING 289
SWIDTH 464 0
DWIDTH 39 0
BBX 28 71 6 -17
BITMAP
001F8000
001F8000
001F8000
001F8000
001F8000
001F8000
00000000
00000000
00000000
00000000
00000000
00000000
07FFFFF0
1FFFFFF0
3FFFFFF0
7FFFFFF0
7FFFFFF0
FF0003F0
FE0003F0
FC0003F0
FC0003F0
FC0003F0
FC0003F0
FC0003F0
FC0003F0
FC0003F0
FC0003F0
FC0003F0
FC0003F0
FC0003F0
FC0003F0
FC0003F0
FC0003F0
FC0003F0
FC0003F0
FC0003F0
FC0003F0
FC0003F0
FC0003F0
FC0003F0
FC0003F0
FC0003F0
FC0003F0
FC0003F0
FC0003F0
FC0003F0
FC0003F0
FE0003F0
FF0003F0
7FFFFFF0
7FFFFFF0
3FFFFFF0
1FFFFFF0
07FFFFF0
000003F0
000003F0
000003F0
000003F0
000003F0
000003F0
000003F0
000003F0
000003F0
000003F0
000007F0
00000FF0
FFFFFFE0
FFFFFFE0
FFFFFFC0
FFFFFF80
FFFFFC00
ENDCHAR
STARTCHAR 0122
ENCODING 290
SWIDTH 547 0
DWIDTH 46 0
BBX 34 77 6 -18
BITMAP
07FFFFFFC0
1FFFFFFFC0
3FFFFFFFC0
7FFFFFFFC0
7FFFFFFFC0
FFC00001C0
FE00000000
FC00000000
FC00000000
FC00000000
FC00000000
FC00000000
FC00000000
FC00000000
FC00000000
FC00000000
FC00000000
FC00000000
FC00000000
FC00000000
FC00000000
FC00000000
FC00000000
FC00000000
FC00000000
FC00000000
FC003FFFC0
FC003FFFC0
FC003FFFC0
FC003FFFC0
FC003FFFC0
FC00000FC0
FC00000FC0
FC00000FC0
FC00000FC0
FC00000FC0
FC00000FC0
FC00000FC0
FC00000FC0
FC00000FC0
FC00000FC0
FC00000FC0
FC00000FC0
FC00000FC0
FC00000FC0
FC00000FC0
FC00000FC0
FC00000FC0
FC00000FC0
FC00000FC0
FC00000FC0
FC00000FC0
FE00001FC0
FFC000FFC0
7FFFFFFF80
7FFFFFFF80
3FFFFFFF00
1FFFFFFE00
07FFFFF800
0000000000
0000000000
0000000000
00003F0000
00003F0000
00003F0000
00003F0000
00003F0000
00003F0000
00003F0000
00007E0000
00007C0000
0000FC0000
0000F80000
0001F80000
0001F00000
0001F00000
0003E00000
ENDCHAR
STARTCHAR 0123
ENCODING 291
SWIDTH 464 0
DWIDTH 39 0
BBX 28 78 6 -17
BITMAP
00003800
00007800
00007800
0000F800
0000F800
0001F800
0001F000
0003F000
0003F000
0003F000
0003F000
0003F000
0003F000
0003F000
00000000
00000000
00000000
00000000
07FFFFF0
1FFFFFF0
3FFFFFF0
7FFFFFF0
7FFFFFF0
FF0003F0
FE0003F0
FC0003F0
FC0003F0
FC0003F0
FC0003F0
FC0003F0
FC0003F0
FC0003F0
FC0003F0
FC0003F0
FC0003F0
FC0003F0
FC0003F0
FC0003F0
FC0003F0
FC0003F0
FC0003F0
FC0003F0
FC0003F0
FC0003F0
FC0003F0
FC0003F0
FC0003F0
FC0003F0
FC0003F0
FC0003F0
FC0003F0
FC0003F0
FC0003F0
FE0003F0
FF0003F0
7FFFFFF0
7FFFFFF0
3FFFFFF0
1FFFFFF0
03FFFFF0
000003F0
000003F0
000003F0
000003F0
000003F0
000003F0
000003F0
000003F0
000003F0
000003F0
000007F0
80000FF0
FFFFFFF0
FFFFFFE0
FFFFFFE0
FFFFFFC0
FFFFFF80
FFFFFC00
ENDCHAR
STARTCHAR 0124
ENCODING 292
SWIDTH 547 0
DWIDTH 46 0
BBX 34 69 6 1
BITMAP
0001F00000
0003F80000
0007FC0000
000FBE0000
001F1F0000
003E0F8000
007807C000
00F001E000
0000000000
0000000000
0000000000
FC00000FC0
FC00000FC0
FC00000FC0
FC00000FC0
FC00000FC0
FC00000FC0
FC00000FC0
FC00000FC0
FC00000FC0
FC00000FC0
FC00000FC0
FC00000FC0
FC00000FC0
FC00000FC0
FC00000FC0
FC00000FC0
FC00000FC0
FC00000FC0
FC00000FC0
FC00000FC0
FC00000FC0
FC00000FC0
FC00000FC0
FC00000FC0
FC00000FC0
FFFFFFFFC0
FFFFFFFFC0
FFFFFFFFC0
FFFFFFFFC0
FFFFFFFFC0
FC00000FC0
FC00000FC0
FC00000FC0
FC00000FC0
FC00000FC0
FC00000FC0
FC00000FC0
FC00000FC0
FC00000FC0
FC00000FC0
FC00000FC0
FC00000FC0
FC00000FC0
FC00000FC0
FC00000FC0
FC00000FC0
FC00000FC0
FC00000FC0
FC00000FC0
FC00000FC0
FC00000FC0
FC00000FC0
FC00000FC0
FC00000FC0
FC00000FC0
FC00000FC0
FC00000FC0
FC00000FC0
ENDCHAR
STARTCHAR 0125
ENCODING 293
SWIDTH 464 0
DWIDTH 39 0
BBX 30 70 4 0
BITMAP
00F80000
01FC0000
03FE0000
07FF0000
0F9F8000
1F07C000
3E03E000
7801E000
F000F000
00000000
00000000
3F000000
3F000000
3F000000
3F000000
3F000000
3F000000
3F000000
3F000000
3F000000
3F000000
3F000000
3F000000
3F000000
3F000000
3F000000
3F000000
3F000000
3FFFFF80
3FFFFFE0
3FFFFFF0
3FFFFFF8
3FFFFFF8
3F0003FC
3F0001FC
3F0000FC
3F0000FC
3F0000FC
3F0000FC
3F0000FC
3F0000FC
3F0000FC
3F0000FC
3F0000FC
3F0000FC
3F0000FC
3F0000FC
3F0000FC
3F0000FC
3F0000FC
3F0000FC
3F0000FC
3F0000FC
3F0000FC
3F0000FC
3F0000FC
3F0000FC
3F0000FC
3F0000FC
3F0000FC
3F0000FC
3F0000FC
3F0000FC
3F0000FC
3F0000FC
3F0000FC
3F0000FC
3F0000FC
3F0000FC
3F0000FC
ENDCHAR
STARTCHAR 0126
ENCODING 294
SWIDTH 547 0
DWIDTH 46 0
BBX 43 58 2 1
BITMAP
0FC00000FC00
0FC00000FC00
0FC00000FC00
0FC00000FC00
FFFFFFFFFFE0
FFFFFFFFFFE0
FFFFFFFFFFE0
FFFFFFFFFFE0
0FC00000FC00
0FC00000FC00
0FC00000FC00
0FC00000FC00
0FC00000FC00
0FC00000FC00
0FC00000FC00
0FC00000FC00
0FC00000FC00
0FC00000FC00
0FC00000FC00
0FC00000FC00
0FC00000FC00
0FC00000FC00
0FC00000FC00
0FC00000FC00
0FC00000FC00
0FFFFFFFFC00
0FFFFFFFFC00
0FFFFFFFFC00
0FFFFFFFFC00
0FFFFFFFFC00
0FC00000FC00
0FC00000FC00
0FC00000FC00
0FC00000FC00
0FC00000FC00
0FC00000FC00
0FC00000FC00
0FC00000FC00
0FC00000FC00
0FC00000FC00
0FC00000FC00
0FC00000FC00
0FC00000FC00
0FC00000FC00
0FC00000FC00
0FC00000FC00
0FC00000FC00
0FC00000FC00
0FC00000FC00
0FC00000FC00
0FC00000FC00
0FC00000FC00
0FC00000FC00
0FC00000FC00
0FC00000FC00
0FC00000FC00
0FC00000FC00
0FC00000FC00
ENDCHAR
STARTCHAR 0127
ENCODING 295
SWIDTH 464 0
DWIDTH 39 0
BBX 32 58 2 1
BITMAP
0FC00000
0FC00000
0FC00000
0FC00000
FFFFC000
FFFFC000
FFFFC000
FFFFC000
0FC00000
0FC00000
0FC00000
0FC00000
0FC00000
0FC00000
0FC00000
0FC00000
0FFFFFE0
0FFFFFF8
0FFFFFFC
0FFFFFFE
0FFFFFFE
0FC000FF
0FC0007F
0FC0003F
0FC0003F
0FC0003F
0FC0003F
0FC0003F
0FC0003F
0FC0003F
0FC0003F
0FC0003F
0FC0003F
0FC0003F
0FC0003F
0FC0003F
0FC0003F
0FC0003F
0FC0003F
0FC0003F
0FC0003F
0FC0003F
0FC0003F
0FC0003F
0FC0003F
0FC0003F
0FC0003F
0FC0003F
0FC0003F
0FC0003F
0FC0003F
0FC0003F
0FC0003F
0FC0003F
0FC0003F
0FC0003F
0FC0003F
0FC0003F
ENDCHAR
STARTCHAR 0128
ENCODING 296
SWIDTH 226 0
DWIDTH 19 0
BBX 25 69 -3 0
BITMAP
0FC00380
3FF00380
7FF80380
707E0380
F01F8780
E00FFF00
E003FE00
E000FC00
00000000
00000000
007E0000
007E0000
007E0000
007E0000
007E0000
007E0000
007E0000
007E0000
007E0000
007E0000
007E0000
007E0000
007E0000
007E0000
007E0000
007E0000
007E0000
007E0000
007E0000
007E0000
007E0000
007E0000
007E0000
007E0000
007E0000
007E0000
007E0000
007E0000
007E0000
007E0000
007E0000
007E0000
007E0000
007E0000
007E0000
007E0000
007E0000
007E0000
007E0000
007E0000
007E0000
007E0000
007E0000
007E0000
007E0000
007E0000
007E0000
007E0000
007E0000
007E0000
007E0000
007E0000
007E0000
007E0000
007E0000
007E0000
007E0000
007E0000
007E0000
ENDCHAR
STARTCHAR 0129
ENCODING 297
SWIDTH 202 0
DWIDTH 17 0
BBX 25 59 -4 0
BITMAP
0F800380
1FE00380
3FF00380
7FF80380
7FFC0380
F07E0780
F03F8780
E01FFF00
E00FFF00
E007FF00
E001FE00
E000F800
00000000
00000000
00000000
00000000
00000000
003F0000
003F0000
003F0000
003F0000
003F0000
003F0000
003F0000
003F0000
003F0000
003F0000
003F0000
003F0000
003F0000
003F0000
003F0000
003F0000
003F0000
003F0000
003F0000
003F0000
003F0000
003F0000
003F0000
003F0000
003F0000
003F0000
003F0000
003F0000
003F0000
003F0000
003F0000
003F0000
003F0000
003F0000
003F0000
003F0000
003F0000
003F0000
003F0000
003F0000
003F0000
003F0000
ENDCHAR
STARTCHAR 012A
ENCODING 298
SWIDTH 226 0
DWIDTH 19 0
BBX 18 68 1 0
BITMAP
FFFFC0
FFFFC0
FFFFC0
FFFFC0
000000
000000
000000
000000
000000
03F000
03F000
03F000
03F000
03F000
03F000
03F000
03F000
03F000
03F000
03F000
03F000
03F000
03F000
03F000
03F000
03F000
03F000
03F000
03F000
03F000
03F000
03F000
03F000
03F000
03F000
03F000
03F000
03F000
03F000
03F000
03F000
03F000
03F000
03F000
03F000
03F000
03F000
03F000
03F000
03F000
03F000
03F000
03F000
03F000
03F000
03F000
03F000
03F000
03F000
03F000
03F000
03F000
03F000
03F000
03F000
03F000
03F000
03F000
ENDCHAR
STARTCHAR 012B
ENCODING 299
SWIDTH 202 0
DWIDTH 17 0
BBX 18 54 0 0
BITMAP
FFFFC0
FFFFC0
FFFFC0
FFFFC0
000000
000000
000000
000000
000000
000000
000000
000000
03F000
03F000
03F000
03F000
03F000
03F000
03F000
03F000
03F000
03F000
03F000
03F000
03F000
03F000
03F000
03F000
03F000
03F000
03F000
03F000
03F000
03F000
03F000
03F000
03F000
03F000
03F000
03F000
03F000
03F000
03F000
03F000
03F000
03F000
03F000
03F000
03F000
03F000
03F000
03F000
03F000
03F000
ENDCHAR
STARTCHAR 012C
ENCODING 300
SWIDTH 226 0
DWIDTH 19 0
BBX 19 69 0 1
BITMAP
F001E0
F001E0
F001E0
F001E0
F803E0
7FFFC0
3FFF80
1FFF00
000000
000000
03F000
03F000
03F000
03F000
03F000
03F000
03F000
03F000
03F000
03F000
03F000
03F000
03F000
03F000
03F000
03F000
03F000
03F000
03F000
03F000
03F000
03F000
03F000
03F000
03F000
03F000
03F000
03F000
03F000
03F000
03F000
03F000
03F000
03F000
03F000
03F000
03F000
03F000
03F000
03F000
03F000
03F000
03F000
03F000
03F000
03F000
03F000
03F000
03F000
03F000
03F000
03F000
03F000
03F000
03F000
03F000
03F000
03F000
03F000
ENDCHAR
STARTCHAR 012D
ENCODING 301
SWIDTH 202 0
DWIDTH 17 0
BBX 20 59 -1 0
BITMAP
F000F0
F000F0
F000F0
F000F0
F000F0
F801F0
FC03F0
7FFFE0
7FFFE0
3FFFC0
0FFF00
000000
000000
000000
000000
000000
000000
01F800
01F800
01F800
01F800
01F800
01F800
01F800
01F800
01F800
01F800
01F800
01F800
01F800
01F800
01F800
01F800
01F800
01F800
01F800
01F800
01F800
01F800
01F800
01F800
01F800
01F800
01F800
01F800
01F800
01F800
01F800
01F800
01F800
01F800
01F800
01F800
01F800
01F800
01F800
01F800
01F800
01F800
ENDCHAR
STARTCHAR 012E
ENCODING 302
SWIDTH 226 0
DWIDTH 19 0
BBX 14 74 -2 -17
BITMAP
00FC
00FC
00FC
00FC
00FC
00FC
00FC
00FC
00FC
00FC
00FC
00FC
00FC
00FC
00FC
00FC
00FC
00FC
00FC
00FC
00FC
00FC
00FC
00FC
00FC
00FC
00FC
00FC
00FC
00FC
00FC
00FC
00FC
00FC
00FC
00FC
00FC
00FC
00FC
00FC
00FC
00FC
00FC
00FC
00FC
00FC
00FC
00FC
00FC
00FC
00FC
00FC
00FC
00FC
00FC
00FC
00FC
00FC
00FC
01F0
07C0
0F00
3E00
7C00
7800
F800
F800
F800
F800
FC00
FFFC
7FFC
7FFC
1FFC
ENDCHAR
STARTCHAR 012F
ENCODING 303
SWIDTH 202 0
DWIDTH 17 0
BBX 14 71 1 -17
BITMAP
07E0
07E0
07E0
07E0
07E0
07E0
0000
0000
0000
0000
0000
0000
07E0
07E0
07E0
07E0
07E0
07E0
07E0
07E0
07E0
07E0
07E0
07E0
07E0
07E0
07E0
07E0
07E0
07E0
07E0
07E0
07E0
07E0
07E0
07E0
07E0
07E0
07E0
07E0
07E0
07E0
07E0
07E0
07E0
07E0
07E0
07E0
07E0
07E0
07E0
07E0
07E0
07E0
07E0
07E0
0FC0
1F00
3E00
7C00
F800
F000
F000
F000
F000
F000
F800
FFFC
FFFC
7FFC
1FFC
ENDCHAR
STARTCHAR 0130
ENCODING 304
SWIDTH 226 0
DWIDTH 19 0
BBX 6 68 6 0
BITMAP
FC
FC
FC
FC
FC
00
00
00
00
FC
FC
FC
FC
FC
FC
FC
FC
FC
FC
FC
FC
FC
FC
FC
FC
FC
FC
FC
FC
FC
FC
FC
FC
FC
FC
FC
FC
FC
FC
FC
FC
FC
FC
FC
FC
FC
FC
FC
FC
FC
FC
FC
FC
FC
FC
FC
FC
FC
FC
FC
FC
FC
FC
FC
FC
FC
FC
FC
ENDCHAR
STARTCHAR 0131
ENCODING 305
SWIDTH 202 0
DWIDTH 17 0
BBX 6 42 6 0
BITMAP
FC
FC
FC
FC
FC
FC
FC
FC
FC
FC
FC
FC
FC
FC
FC
FC
FC
FC
FC
FC
FC
FC
FC
FC
FC
FC
FC
FC
FC
FC
FC
FC
FC
FC
FC
FC
FC
FC
FC
FC
FC
FC
ENDCHAR
STARTCHAR 0132
ENCODING 306
SWIDTH 488 0
DWIDTH 41 0
BBX 29 59 6 0
BITMAP
FC0003F8
FC0003F8
FC0003F8
FC0003F8
FC0003F8
FC0003F8
FC0003F8
FC0003F8
FC0003F8
FC0003F8
FC0003F8
FC0003F8
FC0003F8
FC0003F8
FC0003F8
FC0003F8
FC0003F8
FC0003F8
FC0003F8
FC0003F8
FC0003F8
FC0003F8
FC0003F8
FC0003F8
FC0003F8
FC0003F8
FC0003F8
FC0003F8
FC0003F8
FC0003F8
FC0003F8
FC0003F8
FC0003F8
FC0003F8
FC0003F8
FC0003F8
FC0003F8
FC0003F8
FC0003F8
FC0003F8
FC0003F8
FC0003F8
FC0003F8
FC0003F8
FC0003F8
FC0003F8
FC0003F8
FC0003F8
FC0003F8
FC0003F8
FC0003F8
FC0003F0
FC0007F0
FC601FF0
FC7FFFF0
FC7FFFE0
FC7FFFE0
FC7FFF80
FC7FFE00
ENDCHAR
STARTCHAR 0133
ENCODING 307
SWIDTH 416 0
DWIDTH 35 0
BBX 24 71 6 -17
BITMAP
FC003F
FC003F
FC003F
FC003F
FC003F
FC003F
000000
000000
000000
000000
000000
000000
FC003F
FC003F
FC003F
FC003F
FC003F
FC003F
FC003F
FC003F
FC003F
FC003F
FC003F
FC003F
FC003F
FC003F
FC003F
FC003F
FC003F
FC003F
FC003F
FC003F
FC003F
FC003F
FC003F
FC003F
FC003F
FC003F
FC003F
FC003F
FC003F
FC003F
FC003F
FC003F
FC003F
FC003F
FC003F
FC003F
FC003F
FC003F
FC003F
FC003F
FC003F
FC003F
00003F
00003F
00003F
00003E
00003E
00007E
00007E
00007E
00007E
00007E
00007E
0000FC
0000FC
0000FC
0000FC
0001F8
0001F8
ENDCHAR
STARTCHAR 0134
ENCODING 308
SWIDTH 333 0
DWIDTH 28 0
BBX 27 70 1 0
BITMAP
0003E000
0007F000
000FF800
001FFC00
003E3E00
007C1F00
00780F80
00F007C0
01E003E0
00000000
00000000
0003F000
0003F000
0003F000
0003F000
0003F000
0003F000
0003F000
0003F000
0003F000
0003F000
0003F000
0003F000
0003F000
0003F000
0003F000
0003F000
0003F000
0003F000
0003F000
0003F000
0003F000
0003F000
0003F000
0003F000
0003F000
0003F000
0003F000
0003F000
0003F000
0003F000
0003F000
0003F000
0003F000
0003F000
0003F000
0003F000
0003F000
0003F000
0003F000
0003F000
0003F000
0003F000
0003F000
0003F000
0003F000
0003F000
0003F000
0003F000
0003F000
0003F000
0003F000
0003F000
0007F000
C03FF000
FFFFE000
FFFFE000
FFFFC000
FFFF8000
FFFE0000
ENDCHAR
STARTCHAR 0135
ENCODING 309
SWIDTH 202 0
DWIDTH 17 0
BBX 20 76 -1 -16
BITMAP
01F000
01F800
03FC00
07FC00
07BE00
0F9F00
1F0F80
3E0F80
3C07C0
7C03E0
F801E0
F000F0
000000
000000
000000
000000
000000
01F800
01F800
01F800
01F800
01F800
01F800
01F800
01F800
01F800
01F800
01F800
01F800
01F800
01F800
01F800
01F800
01F800
01F800
01F800
01F800
01F800
01F800
01F800
01F800
01F800
01F800
01F800
01F800
01F800
01F800
01F800
01F800
01F800
01F800
01F800
01F800
01F800
01F800
01F800
01F800
01F800
01F800
01F800
01F800
01F800
01F800
01F800
01F800
01F800
03F000
03F000
03F000
03F000
03F000
07F000
07E000
07E000
07E000
0FC000
ENDCHAR
STARTCHAR 0136
ENCODING 310
SWIDTH 523 0
DWIDTH 44 0
BBX 36 76 6 -17
BITMAP
FC00000FE0
FC00001FC0
FC00001FC0
FC00003F80
FC00003F80
FC00003F00
FC00007F00
FC00007E00
FC0000FE00
FC0000FE00
FC0001FC00
FC0001FC00
FC0003F800
FC0003F800
FC0007F000
FC0007F000
FC000FE000
FC000FE000
FC000FC000
FC001FC000
FC001F8000
FC003F8000
FC003F8000
FC007F0000
FC00FE0000
FFFFFE0000
FFFFF80000
FFFFF00000
FFFFFC0000
FFFFFE0000
FC00FF0000
FC007F0000
FC003F8000
FC003F8000
FC001FC000
FC001FC000
FC001FE000
FC000FE000
FC000FE000
FC0007F000
FC0007F000
FC0003F800
FC0003F800
FC0001FC00
FC0001FC00
FC0000FE00
FC0000FE00
FC0000FF00
FC00007F00
FC00007F00
FC00003F80
FC00003F80
FC00001FC0
FC00001FC0
FC00000FE0
FC00000FE0
FC00000FF0
FC000007F0
0000000000
0000000000
0000000000
0003F00000
0003F00000
0003F00000
0003F00000
0003F00000
0003F00000
0003F00000
0003E00000
0007E00000
0007C00000
0007C00000
000FC00000
000F800000
001F800000
001F000000
ENDCHAR
STARTCHAR 0137
ENCODING 311
SWIDTH 440 0
DWIDTH 37 0
BBX 30 77 6 -17
BITMAP
FC000000
FC000000
FC000000
FC000000
FC000000
FC000000
FC000000
FC000000
FC000000
FC000000
FC000000
FC000000
FC000000
FC000000
FC000000
FC000000
FC000000
FC0001F8
FC0003F0
FC0003F0
FC0007E0
FC0007E0
FC000FE0
FC000FC0
FC001FC0
FC001F80
FC003F80
FC003F00
FC007F00
FC007E00
FC00FE00
FC00FC00
FC01FC00
FFFFF800
FFFFF000
FFFFF000
FFFFF800
FFFFF800
FC01FC00
FC00FC00
FC00FE00
FC007E00
FC007F00
FC003F00
FC003F00
FC003F80
FC001F80
FC001FC0
FC000FC0
FC000FC0
FC000FE0
FC0007E0
FC0007F0
FC0003F0
FC0003F8
FC0003F8
FC0001F8
FC0001FC
FC0000FC
00000000
00000000
00000000
0007E000
0007E000
0007E000
0007E000
0007E000
0007E000
0007E000
000FC000
000FC000
001F8000
001F8000
003F0000
003F0000
003E0000
007E0000
ENDCHAR
STARTCHAR 0139
ENCODING 313
SWIDTH 452 0
DWIDTH 38 0
BBX 31 70 6 0
BITMAP
003E0000
007C0000
00F80000
01F00000
03E00000
07800000
1F000000
3E000000
7C000000
00000000
00000000
FC000000
FC000000
FC000000
FC000000
FC000000
FC000000
FC000000
FC000000
FC000000
FC000000
FC000000
FC000000
FC000000
FC000000
FC000000
FC000000
FC000000
FC000000
FC000000
FC000000
FC000000
FC000000
FC000000
FC000000
FC000000
FC000000
FC000000
FC000000
FC000000
FC000000
FC000000
FC000000
FC000000
FC000000
FC000000
FC000000
FC000000
FC000000
FC000000
FC000000
FC000000
FC000000
FC000000
FC000000
FC000000
FC000000
FC000000
FC000000
FC000000
FC000000
FC000000
FC000000
FC000000
FC000002
FFFFFFFE
FFFFFFFE
FFFFFFFE
FFFFFFFE
FFFFFFFE
ENDCHAR
STARTCHAR 013A
ENCODING 314
SWIDTH 202 0
DWIDTH 17 0
BBX 15 70 6 0
BITMAP
007E
00FC
01F0
03E0
07C0
0F80
1F00
7C00
F800
0000
0000
FC00
FC00
FC00
FC00
FC00
FC00
FC00
FC00
FC00
FC00
FC00
FC00
FC00
FC00
FC00
FC00
FC00
FC00
FC00
FC00
FC00
FC00
FC00
FC00
FC00
FC00
FC00
FC00
FC00
FC00
FC00
FC00
FC00
FC00
FC00
FC00
FC00
FC00
FC00
FC00
FC00
FC00
FC00
FC00
FC00
FC00
FC00
FC00
FC00
FC00
FC00
FC00
FC00
FC00
FC00
FC00
FC00
FC00
FC00
ENDCHAR
STARTCHAR 013B
ENCODING 315
SWIDTH 452 0
DWIDTH 38 0
BBX 33 77 6 -18
BITMAP
FC00000000
FC00000000
FC00000000
FC00000000
FC00000000
FC00000000
FC00000000
FC00000000
FC00000000
FC00000000
FC00000000
FC00000000
FC00000000
FC00000000
FC00000000
FC00000000
FC00000000
FC00000000
FC00000000
FC00000000
FC00000000
FC00000000
FC00000000
FC00000000
FC00000000
FC00000000
FC00000000
FC00000000
FC00000000
FC00000000
FC00000000
FC00000000
FC00000000
FC00000000
FC00000000
FC00000000
FC00000000
FC00000000
FC00000000
FC00000000
FC00000000
FC00000000
FC00000000
FC00000000
FC00000000
FC00000000
FC00000000
FC00000000
FC00000000
FC00000000
FC00000000
FC00000000
FC00000000
FC00000080
FFFFFFFF80
FFFFFFFF80
FFFFFFFF80
FFFFFFFF80
FFFFFFFF80
0000000000
0000000000
0000000000
0001F80000
0001F80000
0001F80000
0001F80000
0001F80000
0001F80000
0001F80000
0003F00000
0003F00000
0003E00000
0007E00000
0007C00000
000FC00000
000F800000
000F800000
ENDCHAR
STARTCHAR 013C
ENCODING 316
SWIDTH 202 0
DWIDTH 17 0
BBX 8 77 4 -18
BITMAP
3F
3F
3F
3F
3F
3F
3F
3F
3F
3F
3F
3F
3F
3F
3F
3F
3F
3F
3F
3F
3F
3F
3F
3F
3F
3F
3F
3F
3F
3F
3F
3F
3F
3F
3F
3F
3F
3F
3F
3F
3F
3F
3F
3F
3F
3F
3F
3F
3F
3F
3F
3F
3F
3F
3F
3F
3F
3F
3F
00
00
00
3F
3F
3F
3F
3F
3F
3F
3E
7E
7C
7C
7C
78
78
F0
ENDCHAR
STARTCHAR 013D
ENCODING 317
SWIDTH 452 0
DWIDTH 38 0
BBX 33 59 6 0
BITMAP
FC00780000
FC00780000
FC00780000
FC00700000
FC00700000
FC00700000
FC00700000
FC00700000
FC00700000
FC00700000
FC00700000
FC00700000
FC00700000
FC00700000
FC00000000
FC00000000
FC00000000
FC00000000
FC00000000
FC00000000
FC00000000
FC00000000
FC00000000
FC00000000
FC00000000
FC00000000
FC00000000
FC00000000
FC00000000
FC00000000
FC00000000
FC00000000
FC00000000
FC00000000
FC00000000
FC00000000
FC00000000
FC00000000
FC00000000
FC00000000
FC00000000
FC00000000
FC00000000
FC00000000
FC00000000
FC00000000
FC00000000
FC00000000
FC00000000
FC00000000
FC00000000
FC00000000
FC00000000
FC00000080
FFFFFFFF80
FFFFFFFF80
FFFFFFFF80
FFFFFFFF80
FFFFFFFF80
ENDCHAR
STARTCHAR 013E
ENCODING 318
SWIDTH 238 0
DWIDTH 20 0
BBX 16 59 6 0
BITMAP
FC1F
FC1E
FC1E
FC1E
FC1E
FC1E
FC1E
FC1E
FC1E
FC1E
FC3C
FC3C
FC3C
FC3C
FC00
FC00
FC00
FC00
FC00
FC00
FC00
FC00
FC00
FC00
FC00
FC00
FC00
FC00
FC00
FC00
FC00
FC00
FC00
FC00
FC00
FC00
FC00
FC00
FC00
FC00
FC00
FC00
FC00
FC00
FC00
FC00
FC00
FC00
FC00
FC00
FC00
FC00
FC00
FC00
FC00
FC00
FC00
FC00
FC00
ENDCHAR
STARTCHAR 013F
ENCODING 319
SWIDTH 452 0
DWIDTH 38 0
BBX 31 59 6 0
BITMAP
FC000000
FC000000
FC000000
FC000000
FC000000
FC000000
FC000000
FC000000
FC000000
FC000000
FC000000
FC000000
FC000000
FC000000
FC000000
FC000000
FC000000
FC000000
FC000000
FC000000
FC000000
FC000000
FC000000
FC07E000
FC07E000
FC07E000
FC07E000
FC07E000
FC07E000
FC000000
FC000000
FC000000
FC000000
FC000000
FC000000
FC000000
FC000000
FC000000
FC000000
FC000000
FC000000
FC000000
FC000000
FC000000
FC000000
FC000000
FC000000
FC000000
FC000000
FC000000
FC000000
FC000000
FC000000
FC000002
FFFFFFFE
FFFFFFFE
FFFFFFFE
FFFFFFFE
FFFFFFFE
ENDCHAR
STARTCHAR 0140
ENCODING 320
SWIDTH 238 0
DWIDTH 20 0
BBX 13 59 6 0
BITMAP
FC00
FC00
FC00
FC00
FC00
FC00
FC00
FC00
FC00
FC00
FC00
FC00
FC00
FC00
FC00
FC00
FC00
FC00
FC00
FC00
FC00
FC00
FC00
FCF8
FCF8
FCF8
FCF8
FCF8
FCF8
FC00
FC00
FC00
FC00
FC00
FC00
FC00
FC00
FC00
FC00
FC00
FC00
FC00
FC00
FC00
FC00
FC00
FC00
FC00
FC00
FC00
FC00
FC00
FC00
FC00
FC00
FC00
FC00
FC00
FC00
ENDCHAR
STARTCHAR 0141
ENCODING 321
SWIDTH 464 0
DWIDTH 39 0
BBX 36 59 2 0
BITMAP
07E0000000
07E0000000
07E0000000
07E0000000
07E0000000
07E0000000
07E0000000
07E0000000
07E0000000
07E0000000
07E0000000
07E0000000
07E0000000
07E0000000
07E0008000
07E0018000
07E0038000
07E0078000
07E00F8000
07E03F0000
07E07E0000
07E0FC0000
07E1F80000
07E3F00000
07E7E00000
07EF800000
07FF000000
07FE000000
07FC000000
07F8000000
07F0000000
0FE0000000
1FE0000000
3FE0000000
7FE0000000
FFE0000000
FFE0000000
E7E0000000
C7E0000000
87E0000000
07E0000000
07E0000000
07E0000000
07E0000000
07E0000000
07E0000000
07E0000000
07E0000000
07E0000000
07E0000000
07E0000000
07E0000000
07E0000000
07E0000010
07FFFFFFF0
07FFFFFFF0
07FFFFFFF0
07FFFFFFF0
07FFFFFFF0
ENDCHAR
STARTCHAR 0142
ENCODING 322
SWIDTH 214 0
DWIDTH 18 0
BBX 14 59 2 0
BITMAP
0FC0
0FC0
0FC0
0FC0
0FC0
0FC0
0FC0
0FC0
0FC0
0FC0
0FC0
0FC0
0FC0
0FC0
0FC0
0FC0
0FC0
0FC4
0FC4
0FCC
0FDC
0FFC
0FFC
0FF8
0FF0
0FE0
0FE0
0FC0
0FC0
0FC0
1FC0
3FC0
3FC0
7FC0
FFC0
EFC0
EFC0
CFC0
8FC0
8FC0
0FC0
0FC0
0FC0
0FC0
0FC0
0FC0
0FC0
0FC0
0FC0
0FC0
0FC0
0FC0
0FC0
0FC0
0FC0
0FC0
0FC0
0FC0
0FC0
ENDCHAR
STARTCHAR 0143
ENCODING 323
SWIDTH 559 0
DWIDTH 47 0
BBX 35 70 6 0
BITMAP
000001F000
000003E000
000007C000
00001F8000
00003E0000
00007C0000
0000F80000
0001F00000
0003E00000
0000000000
0000000000
FE000007E0
FF000007E0
FF000007E0
FF800007E0
FF800007E0
FFC00007E0
FFC00007E0
FFC00007E0
FFE00007E0
FFE00007E0
FFF00007E0
FFF00007E0
FDF80007E0
FDF80007E0
FCFC0007E0
FCFC0007E0
FC7E0007E0
FC7E0007E0
FC3E0007E0
FC3F0007E0
FC3F0007E0
FC1F8007E0
FC1F8007E0
FC0FC007E0
FC0FC007E0
FC07E007E0
FC07E007E0
FC03E007E0
FC03F007E0
FC03F007E0
FC01F807E0
FC01F807E0
FC00FC07E0
FC00FC07E0
FC007E07E0
FC007E07E0
FC003F07E0
FC003F07E0
FC001F07E0
FC001F87E0
FC001F87E0
FC000FC7E0
FC000FC7E0
FC0007E7E0
FC0007E7E0
FC0003F7E0
FC0003F7E0
FC0001FFE0
FC0001FFE0
FC0000FFE0
FC0000FFE0
FC0000FFE0
FC00007FE0
FC00007FE0
FC00003FE0
FC00003FE0
FC00001FE0
FC00001FE0
FC00000FE0
ENDCHAR
STARTCHAR 0144
ENCODING 324
SWIDTH 464 0
DWIDTH 39 0
BBX 28 59 6 0
BITMAP
00003F00
00007E00
0000FC00
0000F800
0001F000
0003E000
0007C000
0007C000
000F8000
001F0000
003E0000
003C0000
00000000
00000000
00000000
00000000
00000000
FFFFFE00
FFFFFF80
FFFFFFC0
FFFFFFE0
FFFFFFE0
FC000FF0
FC0007F0
FC0003F0
FC0003F0
FC0003F0
FC0003F0
FC0003F0
FC0003F0
FC0003F0
FC0003F0
FC0003F0
FC0003F0
FC0003F0
FC0003F0
FC0003F0
FC0003F0
FC0003F0
FC0003F0
FC0003F0
FC0003F0
FC0003F0
FC0003F0
FC0003F0
FC0003F0
FC0003F0
FC0003F0
FC0003F0
FC0003F0
FC0003F0
FC0003F0
FC0003F0
FC0003F0
FC0003F0
FC0003F0
FC0003F0
FC0003F0
FC0003F0
ENDCHAR
STARTCHAR 0145
ENCODING 325
SWIDTH 559 0
DWIDTH 47 0
BBX 35 77 6 -18
BITMAP
FE000007E0
FF000007E0
FF000007E0
FF800007E0
FF800007E0
FFC00007E0
FFC00007E0
FFC00007E0
FFE00007E0
FFE00007E0
FFF00007E0
FFF00007E0
FDF80007E0
FDF80007E0
FCFC0007E0
FCFC0007E0
FC7E0007E0
FC7E0007E0
FC3E0007E0
FC3F0007E0
FC3F0007E0
FC1F8007E0
FC1F8007E0
FC0FC007E0
FC0FC007E0
FC07E007E0
FC07E007E0
FC03E007E0
FC03F007E0
FC03F007E0
FC01F807E0
FC01F807E0
FC00FC07E0
FC00FC07E0
FC007E07E0
FC007E07E0
FC003F07E0
FC003F07E0
FC001F07E0
FC001F87E0
FC001F87E0
FC000FC7E0
FC000FC7E0
FC0007E7E0
FC0007E7E0
FC0003F7E0
FC0003F7E0
FC0001FFE0
FC0001FFE0
FC0000FFE0
FC0000FFE0
FC0000FFE0
FC00007FE0
FC00007FE0
FC00003FE0
FC00003FE0
FC00001FE0
FC00001FE0
FC00000FE0
0000000000
0000000000
0000000000
0001F00000
0001F00000
0001F00000
0001F00000
0001F00000
0001F00000
0001F00000
0003F00000
0003E00000
0003E00000
0007C00000
0007C00000
0007C00000
000F800000
000F800000
ENDCHAR
STARTCHAR 0146
ENCODING 326
SWIDTH 464 0
DWIDTH 39 0
BBX 28 60 6 -18
BITMAP
FFFFFE00
FFFFFF80
FFFFFFC0
FFFFFFE0
FFFFFFE0
FC000FF0
FC0007F0
FC0003F0
FC0003F0
FC0003F0
FC0003F0
FC0003F0
FC0003F0
FC0003F0
FC0003F0
FC0003F0
FC0003F0
FC0003F0
FC0003F0
FC0003F0
FC0003F0
FC0003F0
FC0003F0
FC0003F0
FC0003F0
FC0003F0
FC0003F0
FC0003F0
FC0003F0
FC0003F0
FC0003F0
FC0003F0
FC0003F0
FC0003F0
FC0003F0
FC0003F0
FC0003F0
FC0003F0
FC0003F0
FC0003F0
FC0003F0
FC0003F0
00000000
00000000
00000000
0007E000
0007E000
0007E000
0007E000
0007E000
0007E000
0007E000
000FC000
000FC000
001F8000
001F8000
001F0000
003F0000
003E0000
007E0000
ENDCHAR
STARTCHAR 0147
ENCODING 327
SWIDTH 559 0
DWIDTH 47 0
BBX 35 70 6 0
BITMAP
01F001F000
00F803E000
007C07C000
003E0F8000
001F1F0000
000FBE0000
0007FC0000
0003F80000
0001F00000
0000000000
0000000000
FE000007E0
FF000007E0
FF000007E0
FF800007E0
FF800007E0
FF800007E0
FFC00007E0
FFC00007E0
FFE00007E0
FFE00007E0
FFF00007E0
FFF00007E0
FDF80007E0
FDF80007E0
FCFC0007E0
FCFC0007E0
FC7C0007E0
FC7E0007E0
FC7E0007E0
FC3F0007E0
FC3F0007E0
FC1F8007E0
FC1F8007E0
FC0FC007E0
FC0FC007E0
FC07E007E0
FC07E007E0
FC07E007E0
FC03F007E0
FC03F007E0
FC01F807E0
FC01F807E0
FC00FC07E0
FC00FC07E0
FC007E07E0
FC007E07E0
FC007F07E0
FC003F07E0
FC003F07E0
FC001F87E0
FC001F87E0
FC000FC7E0
FC000FC7E0
FC0007E7E0
FC0007E7E0
FC0003F7E0
FC0003F7E0
FC0003FFE0
FC0001FFE0
FC0001FFE0
FC0000FFE0
FC0000FFE0
FC00007FE0
FC00007FE0
FC00003FE0
FC00003FE0
FC00003FE0
FC00001FE0
FC00001FE0
ENDCHAR
STARTCHAR 0148
ENCODING 328
SWIDTH 464 0
DWIDTH 39 0
BBX 28 59 6 0
BITMAP
1F001F00
0F801E00
07803C00
07C07C00
03E0F800
01F0F000
00F1F000
00FBE000
007FC000
003FC000
003F8000
001F0000
00000000
00000000
00000000
00000000
00000000
FFFFFE00
FFFFFF80
FFFFFFC0
FFFFFFE0
FFFFFFE0
FC000FF0
FC0007F0
FC0003F0
FC0003F0
FC0003F0
FC0003F0
FC0003F0
FC0003F0
FC0003F0
FC0003F0
FC0003F0
FC0003F0
FC0003F0
FC0003F0
FC0003F0
FC0003F0
FC0003F0
FC0003F0
FC0003F0
FC0003F0
FC0003F0
FC0003F0
FC0003F0
FC0003F0
FC0003F0
FC0003F0
FC0003F0
FC0003F0
FC0003F0
FC0003F0
FC0003F0
FC0003F0
FC0003F0
FC0003F0
FC0003F0
FC0003F0
FC0003F0
ENDCHAR
STARTCHAR 0149
ENCODING 329
SWIDTH 464 0
DWIDTH 39 0
BBX 28 59 6 0
BITMAP
F8000000
F8000000
F8000000
F8000000
F8000000
F8000000
F8000000
F0000000
F0000000
F0000000
F0000000
F0000000
F0000000
F0000000
00000000
00000000
00000000
FFFFFE00
FFFFFF80
FFFFFFC0
FFFFFFE0
FFFFFFE0
FC000FF0
FC0007F0
FC0003F0
FC0003F0
FC0003F0
FC0003F0
FC0003F0
FC0003F0
FC0003F0
FC0003F0
FC0003F0
FC0003F0
FC0003F0
FC0003F0
FC0003F0
FC0003F0
FC0003F0
FC0003F0
FC0003F0
FC0003F0
FC0003F0
FC0003F0
FC0003F0
FC0003F0
FC0003F0
FC0003F0
FC0003F0
FC0003F0
FC0003F0
FC0003F0
FC0003F0
FC0003F0
FC0003F0
FC0003F0
FC0003F0
FC0003F0
FC0003F0
ENDCHAR
STARTCHAR 014A
ENCODING 330
SWIDTH 559 0
DWIDTH 47 0
BBX 35 71 6 -12
BITMAP
FE000007E0
FF000007E0
FF000007E0
FF800007E0
FF800007E0
FFC00007E0
FFC00007E0
FFC00007E0
FFE00007E0
FFE00007E0
FFF00007E0
FFF00007E0
FDF80007E0
FDF80007E0
FCFC0007E0
FCFC0007E0
FC7E0007E0
FC7E0007E0
FC3E0007E0
FC3F0007E0
FC1F0007E0
FC1F8007E0
FC0F8007E0
FC0FC007E0
FC07C007E0
FC07E007E0
FC03E007E0
FC03F007E0
FC03F007E0
FC01F007E0
FC01F807E0
FC00F807E0
FC00FC07E0
FC007C07E0
FC007E07E0
FC003E07E0
FC003F07E0
FC001F07E0
FC001F07E0
FC000F87E0
FC000F87E0
FC0007C7E0
FC0007C7E0
FC0003E7E0
FC0003E7E0
FC0001F7E0
FC0001F7E0
FC0000FFE0
FC0000FFE0
FC0000FFE0
FC00007FE0
FC00007FE0
FC00003FE0
FC00003FE0
FC00001FE0
FC00001FE0
FC00000FE0
FC00000FE0
FC000007E0
00000007E0
00000007C0
0000000FC0
0000000FC0
0000000F80
0000000F80
0000000F80
0000001F00
0000001F00
0000001E00
0000001E00
0000003E00
ENDCHAR
STARTCHAR 014B
ENCODING 331
SWIDTH 464 0
DWIDTH 39 0
BBX 28 54 6 -12
BITMAP
FFFFFE00
FFFFFF80
FFFFFFC0
FFFFFFE0
FFFFFFE0
FC000FF0
FC0007F0
FC0003F0
FC0003F0
FC0003F0
FC0003F0
FC0003F0
FC0003F0
FC0003F0
FC0003F0
FC0003F0
FC0003F0
FC0003F0
FC0003F0
FC0003F0
FC0003F0
FC0003F0
FC0003F0
FC0003F0
FC0003F0
FC0003F0
FC0003F0
FC0003F0
FC0003F0
FC0003F0
FC0003F0
FC0003F0
FC0003F0
FC0003F0
FC0003F0
FC0003F0
FC0003F0
FC0003F0
FC0003F0
FC0003F0
FC0003F0
FC0003F0
000003F0
000003F0
000007E0
000007E0
000007E0
00000FC0
00000FC0
00000F80
00000F80
00001F80
00001F00
00001F00
ENDCHAR
STARTCHAR 014C
ENCODING 332
SWIDTH 547 0
DWIDTH 46 0
BBX 34 68 6 0
BITMAP
00FFFFC000
00FFFFC000
00FFFFC000
00FFFFC000
0000000000
0000000000
0000000000
0000000000
0000000000
07FFFFF800
1FFFFFFE00
3FFFFFFF00
7FFFFFFF80
7FFFFFFF80
FFC000FFC0
FE00001FC0
FC00000FC0
FC00000FC0
FC00000FC0
FC00000FC0
FC00000FC0
FC00000FC0
FC00000FC0
FC00000FC0
FC00000FC0
FC00000FC0
FC00000FC0
FC00000FC0
FC00000FC0
FC00000FC0
FC00000FC0
FC00000FC0
FC00000FC0
FC00000FC0
FC00000FC0
FC00000FC0
FC00000FC0
FC00000FC0
FC00000FC0
FC00000FC0
FC00000FC0
FC00000FC0
FC00000FC0
FC00000FC0
FC00000FC0
FC00000FC0
FC00000FC0
FC00000FC0
FC00000FC0
FC00000FC0
FC00000FC0
FC00000FC0
FC00000FC0
FC00000FC0
FC00000FC0
FC00000FC0
FC00000FC0
FC00000FC0
FC00000FC0
FC00000FC0
FC00000FC0
FE00001FC0
FFC000FFC0
7FFFFFFF80
7FFFFFFF80
3FFFFFFF00
1FFFFFFE00
07FFFFF800
ENDCHAR
STARTCHAR 014D
ENCODING 333
SWIDTH 464 0
DWIDTH 39 0
BBX 28 54 6 0
BITMAP
07FFFE00
07FFFE00
07FFFE00
07FFFE00
00000000
00000000
00000000
00000000
00000000
00000000
00000000
00000000
07FFFE00
1FFFFF80
3FFFFFC0
7FFFFFE0
7FFFFFE0
FF000FF0
FE0007F0
FC0003F0
FC0003F0
FC0003F0
FC0003F0
FC0003F0
FC0003F0
FC0003F0
FC0003F0
FC0003F0
FC0003F0
FC0003F0
FC0003F0
FC0003F0
FC0003F0
FC0003F0
FC0003F0
FC0003F0
FC0003F0
FC0003F0
FC0003F0
FC0003F0
FC0003F0
FC0003F0
FC0003F0
FC0003F0
FC0003F0
FC0003F0
FC0003F0
FE0007F0
FF0007F0
7FFFFFE0
7FFFFFE0
3FFFFFC0
1FFFFF80
07FFFE00
ENDCHAR
STARTCHAR 014E
ENCODING 334
SWIDTH 547 0
DWIDTH 46 0
BBX 34 69 6 1
BITMAP
01E001E000
01E001E000
01E001E000
01F001E000
01F803E000
00FFFFC000
007FFF8000
001FFE0000
0000000000
0000000000
07FFFFF800
1FFFFFFE00
3FFFFFFF00
7FFFFFFF80
7FFFFFFF80
FFC000FFC0
FE00001FC0
FC00000FC0
FC00000FC0
FC00000FC0
FC00000FC0
FC00000FC0
FC00000FC0
FC00000FC0
FC00000FC0
FC00000FC0
FC00000FC0
FC00000FC0
FC00000FC0
FC00000FC0
FC00000FC0
FC00000FC0
FC00000FC0
FC00000FC0
FC00000FC0
FC00000FC0
FC00000FC0
FC00000FC0
FC00000FC0
FC00000FC0
FC00000FC0
FC00000FC0
FC00000FC0
FC00000FC0
FC00000FC0
FC00000FC0
FC00000FC0
FC00000FC0
FC00000FC0
FC00000FC0
FC00000FC0
FC00000FC0
FC00000FC0
FC00000FC0
FC00000FC0
FC00000FC0
FC00000FC0
FC00000FC0
FC00000FC0
FC00000FC0
FC00000FC0
FC00000FC0
FE00001FC0
FFC000FFC0
7FFFFFFF80
7FFFFFFF80
3FFFFFFF00
1FFFFFFE00
07FFFFF800
ENDCHAR
STARTCHAR 014F
ENCODING 335
SWIDTH 464 0
DWIDTH 39 0
BBX 28 59 6 0
BITMAP
0C000F00
0C000F00
0C000F00
0C000F00
0C000F00
0E001F00
0F003F00
07FFFE00
07FFFE00
03FFFC00
00FFF000
00000000
00000000
00000000
00000000
00000000
00000000
07FFFE00
1FFFFF80
3FFFFFC0
7FFFFFE0
7FFFFFE0
FE001FF0
FE001FF0
FC000FF0
FC000FF0
FC000FF0
FC000FF0
FC000FF0
FC000FF0
FC000FF0
FC000FF0
FC000FF0
FC000FF0
FC000FF0
FC000FF0
FC000FF0
FC000FF0
FC000FF0
FC000FF0
FC000FF0
FC000FF0
FC000FF0
FC000FF0
FC000FF0
FC000FF0
FC000FF0
FC000FF0
FC000FF0
FC000FF0
FC000FF0
FC000FF0
FE000FF0
FE001FF0
7FFFFFE0
7FFFFFE0
3FFFFFC0
1FFFFF80
07FFFE00
ENDCHAR
STARTCHAR 0150
ENCODING 336
SWIDTH 547 0
DWIDTH 46 0
BBX 34 69 6 0
BITMAP
0001F03E00
0003E07C00
0007C0F800
000781F000
000F03E000
001E07C000
003C0F8000
00781F0000
0000000000
0000000000
07FFFFF800
1FFFFFFE00
3FFFFFFF00
7FFFFFFF80
7FFFFFFF80
FFC000FFC0
FE00001FC0
FC00000FC0
FC00000FC0
FC00000FC0
FC00000FC0
FC00000FC0
FC00000FC0
FC00000FC0
FC00000FC0
FC00000FC0
FC00000FC0
FC00000FC0
FC00000FC0
FC00000FC0
FC00000FC0
FC00000FC0
FC00000FC0
FC00000FC0
FC00000FC0
FC00000FC0
FC00000FC0
FC00000FC0
FC00000FC0
FC00000FC0
FC00000FC0
FC00000FC0
FC00000FC0
FC00000FC0
FC00000FC0
FC00000FC0
FC00000FC0
FC00000FC0
FC00000FC0
FC00000FC0
FC00000FC0
FC00000FC0
FC00000FC0
FC00000FC0
FC00000FC0
FC00000FC0
FC00000FC0
FC00000FC0
FC00000FC0
FC00000FC0
FC00000FC0
FC00000FC0
FE00001FC0
FFC000FFC0
7FFFFFFF80
7FFFFFFF80
3FFFFFFF00
1FFFFFFE00
07FFFFF800
ENDCHAR
STARTCHAR 0151
ENCODING 337
SWIDTH 464 0
DWIDTH 39 0
BBX 28 59 6 0
BITMAP
000F81F0
000F03E0
001E03C0
003E07C0
003C0F80
00780F00
00F01E00
00F03E00
01E03C00
03C07800
0380F000
0780F000
00000000
00000000
00000000
00000000
00000000
07FFFE00
1FFFFF80
3FFFFFC0
7FFFFFE0
7FFFFFE0
FF000FF0
FE0007F0
FC0003F0
FC0003F0
FC0003F0
FC0003F0
FC0003F0
FC0003F0
FC0003F0
FC0003F0
FC0003F0
FC0003F0
FC0003F0
FC0003F0
FC0003F0
FC0003F0
FC0003F0
FC0003F0
FC0003F0
FC0003F0
FC0003F0
FC0003F0
FC0003F0
FC0003F0
FC0003F0
FC0003F0
FC0003F0
FC0003F0
FC0003F0
FC0003F0
FE0007F0
FF0007F0
7FFFFFE0
7FFFFFE0
3FFFFFC0
1FFFFF80
07FFFE00
ENDCHAR
STARTCHAR 0152
ENCODING 338
SWIDTH 809 0
DWIDTH 68 0
BBX 59 59 6 0
BITMAP
07FFFFFFFFFFFFC0
1FFFFFFFFFFFFFC0
3FFFFFFFFFFFFFC0
7FFFFFFFFFFFFFC0
7FFFFFFFFFFFFFC0
FFC0000FC00000C0
FE00000FC0000000
FC00000FC0000000
FC00000FC0000000
FC00000FC0000000
FC00000FC0000000
FC00000FC0000000
FC00000FC0000000
FC00000FC0000000
FC00000FC0000000
FC00000FC0000000
FC00000FC0000000
FC00000FC0000000
FC00000FC0000000
FC00000FC0000000
FC00000FC0000000
FC00000FC0000000
FC00000FC0000000
FC00000FC0000000
FC00000FC0000000
FC00000FC0000000
FC00000FFFFFF800
FC00000FFFFFF800
FC00000FFFFFF800
FC00000FFFFFF800
FC00000FFFFFF800
FC00000FC0000000
FC00000FC0000000
FC00000FC0000000
FC00000FC0000000
FC00000FC0000000
FC00000FC0000000
FC00000FC0000000
FC00000FC0000000
FC00000FC0000000
FC00000FC0000000
FC00000FC0000000
FC00000FC0000000
FC00000FC0000000
FC00000FC0000000
FC00000FC0000000
FC00000FC0000000
FC00000FC0000000
FC00000FC0000000
FC00000FC0000000
FC00000FC0000000
FC00000FC0000000
FE00000FC0000000
FFC0000FC0000020
7FFFFFFFFFFFFFE0
7FFFFFFFFFFFFFE0
3FFFFFFFFFFFFFE0
1FFFFFFFFFFFFFE0
07FFFFFFFFFFFFE0
ENDCHAR
STARTCHAR 0153
ENCODING 339
SWIDTH 714 0
DWIDTH 60 0
BBX 49 42 6 0
BITMAP
07FFFC07FFF000
1FFFFF1FFFFC00
3FFFFFBFFFFE00
7FFFFFFFFFFF00
7FFFFFFFFFFF00
FF000FFC007F80
FE0007F8003F80
FC0003F0001F80
FC0003F0001F80
FC0003F0001F80
FC0003F0001F80
FC0003F0001F80
FC0003F0001F80
FC0003F0001F80
FC0003F0001F80
FC0003F0001F80
FC0003FFFFFF80
FC0003FFFFFF80
FC0003FFFFFF80
FC0003FFFFFF80
FC0003F0000000
FC0003F0000000
FC0003F0000000
FC0003F0000000
FC0003F0000000
FC0003F0000000
FC0003F0000000
FC0003F0000000
FC0003F0000000
FC0003F0000000
FC0003F0000000
FC0003F0000000
FC0003F0000000
FC0003F0000000
FC0003F0000000
FE0007F8000000
FF0007FC000000
7FFFFFFFFFFF80
7FFFFFFFFFFF80
3FFFFF3FFFFF80
1FFFFF1FFFFF80
07FFFC07FFFF80
ENDCHAR
STARTCHAR 0154
ENCODING 340
SWIDTH 559 0
DWIDTH 47 0
BBX 37 70 6 0
BITMAP
00000F8000
00001F0000
00003E0000
00007C0000
0001F00000
0003E00000
0007C00000
000F800000
001F000000
0000000000
0000000000
FFFFFFF800
FFFFFFFE00
FFFFFFFF00
FFFFFFFF80
FFFFFFFF80
FC0000FFC0
FC00001FC0
FC00000FC0
FC00000FC0
FC00000FC0
FC00000FC0
FC00000FC0
FC00000FC0
FC00000FC0
FC00000FC0
FC00000FC0
FC00000FC0
FC00000FC0
FC00000FC0
FC00000FC0
FC00000FC0
FC00000FC0
FC00000FC0
FC00000FC0
FC00001FC0
FC00003FC0
FFFFFFFF80
FFFFFFFF80
FFFFFFFF00
FFFFFFFE00
FFFFFFFC00
FC000FC000
FC0007E000
FC0007E000
FC0003F000
FC0003F000
FC0003F000
FC0001F800
FC0001F800
FC0001F800
FC0000FC00
FC0000FC00
FC0000FE00
FC00007E00
FC00007E00
FC00003F00
FC00003F00
FC00003F80
FC00001F80
FC00001F80
FC00001FC0
FC00000FC0
FC00000FC0
FC00000FE0
FC000007E0
FC000007F0
FC000007F0
FC000003F0
FC000003F8
ENDCHAR
STARTCHAR 0155
ENCODING 341
SWIDTH 297 0
DWIDTH 25 0
BBX 20 59 6 0
BITMAP
0003F0
0007E0
0007C0
000F80
001F00
003F00
007E00
007C00
00F800
01F000
03E000
07C000
000000
000000
000000
000000
000000
FC7FE0
FCFFE0
FDFFE0
FFFFE0
FFFFE0
FFC060
FE0000
FE0000
FC0000
FC0000
FC0000
FC0000
FC0000
FC0000
FC0000
FC0000
FC0000
FC0000
FC0000
FC0000
FC0000
FC0000
FC0000
FC0000
FC0000
FC0000
FC0000
FC0000
FC0000
FC0000
FC0000
FC0000
FC0000
FC0000
FC0000
FC0000
FC0000
FC0000
FC0000
FC0000
FC0000
FC0000
ENDCHAR
STARTCHAR 0156
ENCODING 342
SWIDTH 559 0
DWIDTH 47 0
BBX 37 77 6 -18
BITMAP
FFFFFFF800
FFFFFFFE00
FFFFFFFF00
FFFFFFFF80
FFFFFFFF80
FC0000FFC0
FC00001FC0
FC00000FC0
FC00000FC0
FC00000FC0
FC00000FC0
FC00000FC0
FC00000FC0
FC00000FC0
FC00000FC0
FC00000FC0
FC00000FC0
FC00000FC0
FC00000FC0
FC00000FC0
FC00000FC0
FC00000FC0
FC00000FC0
FC00000FC0
FC00001FC0
FC00003FC0
FFFFFFFF80
FFFFFFFF80
FFFFFFFF00
FFFFFFFE00
FFFFFFFC00
FC0003E000
FC0003E000
FC0003E000
FC0001F000
FC0001F000
FC0001F800
FC0000F800
FC0000F800
FC0000FC00
FC00007C00
FC00007C00
FC00007E00
FC00007E00
FC00003F00
FC00003F00
FC00003F00
FC00001F80
FC00001F80
FC00001F80
FC00000FC0
FC00000FC0
FC00000FE0
FC000007E0
FC000007E0
FC000007F0
FC000003F0
FC000003F0
FC000003F8
0000000000
0000000000
0000000000
0000FC0000
0000FC0000
0000FC0000
0000FC0000
0000FC0000
0000FC0000
0000FC0000
0001F80000
0001F80000
0003F00000
0003F00000
0003E00000
0007E00000
0007C00000
0007C00000
ENDCHAR
STARTCHAR 0157
ENCODING 343
SWIDTH 297 0
DWIDTH 25 0
BBX 22 60 3 -18
BITMAP
1F8FFC
1F9FFC
1FBFFC
1FFFFC
1FFFFC
1FF80C
1FC000
1FC000
1F8000
1F8000
1F8000
1F8000
1F8000
1F8000
1F8000
1F8000
1F8000
1F8000
1F8000
1F8000
1F8000
1F8000
1F8000
1F8000
1F8000
1F8000
1F8000
1F8000
1F8000
1F8000
1F8000
1F8000
1F8000
1F8000
1F8000
1F8000
1F8000
1F8000
1F8000
1F8000
1F8000
1F8000
000000
000000
000000
1F8000
1F8000
1F8000
1F8000
1F8000
1F8000
1F8000
3F0000
3F0000
3E0000
7E0000
7E0000
7C0000
7C0000
F80000
ENDCHAR
STARTCHAR 0158
ENCODING 344
SWIDTH 559 0
DWIDTH 47 0
BBX 37 70 6 0
BITMAP
03C00FC000
01E01F8000
00F03F0000
00787E0000
007CFC0000
003FF80000
001FE00000
000FC00000
0007800000
0000000000
0000000000
FFFFFFF800
FFFFFFFE00
FFFFFFFF00
FFFFFFFF80
FFFFFFFF80
FC0000FFC0
FC00001FC0
FC00000FC0
FC00000FC0
FC00000FC0
FC00000FC0
FC00000FC0
FC00000FC0
FC00000FC0
FC00000FC0
FC00000FC0
FC00000FC0
FC00000FC0
FC00000FC0
FC00000FC0
FC00000FC0
FC00000FC0
FC00000FC0
FC00000FC0
FC00001FC0
FC00003FC0
FFFFFFFF80
FFFFFFFF80
FFFFFFFF00
FFFFFFFE00
FFFFFFF800
FC001F0000
FC001F8000
FC000F8000
FC000FC000
FC0007C000
FC0007E000
FC0007E000
FC0003E000
FC0003F000
FC0001F000
FC0001F800
FC0001F800
FC0000FC00
FC0000FC00
FC00007E00
FC00007E00
FC00003F00
FC00003F00
FC00003F80
FC00001F80
FC00001F80
FC00000FC0
FC00000FC0
FC00000FE0
FC000007E0
FC000007F0
FC000003F0
FC000003F8
ENDCHAR
STARTCHAR 0159
ENCODING 345
SWIDTH 297 0
DWIDTH 25 0
BBX 23 59 4 0
BITMAP
7C003E
3E007C
3E00F8
1F00F8
0F81F0
07C3E0
07C7C0
03EF80
01FF80
01FF00
00FE00
007C00
000000
000000
000000
000000
000000
FE3FF8
FE7FF8
FEFFF8
FFFFF8
FFFFF8
FFE008
FF8000
FF0000
FE0000
FE0000
FE0000
FE0000
FE0000
FE0000
FE0000
FE0000
FE0000
FE0000
FE0000
FE0000
FE0000
FE0000
FE0000
FE0000
FE0000
FE0000
FE0000
FE0000
FE0000
FE0000
FE0000
FE0000
FE0000
FE0000
FE0000
FE0000
FE0000
FE0000
FE0000
FE0000
FE0000
FE0000
ENDCHAR
STARTCHAR 015A
ENCODING 346
SWIDTH 500 0
DWIDTH 42 0
BBX 31 70 5 0
BITMAP
00001F80
00003E00
00007C00
0000F800
0001F000
0003E000
0007C000
000F0000
001E0000
00000000
00000000
07FFFFFE
1FFFFFFE
3FFFFFFE
7FFFFFFE
7FFFFFFE
FFC0000E
FE000000
FC000000
FC000000
FC000000
FC000000
FC000000
FC000000
FC000000
FC000000
FC000000
FC000000
FE000000
7F000000
7F800000
3FC00000
3FE00000
1FF80000
0FFC0000
03FE0000
01FF0000
00FFC000
007FE000
003FF000
000FF800
0007FC00
0003FF00
0001FF80
00007FC0
00003FE0
00001FF0
00000FF8
000007FC
000001FC
000000FE
000000FE
0000007E
0000007E
0000007E
0000007E
0000007E
0000007E
0000007E
0000007E
0000007E
0000007E
0000007E
000000FE
E00003FE
FFFFFFFC
FFFFFFFC
FFFFFFF8
FFFFFFF0
FFFFFFC0
ENDCHAR
STARTCHAR 015B
ENCODING 347
SWIDTH 404 0
DWIDTH 34 0
BBX 27 59 4 0
BITMAP
00003F80
00007F00
0000FE00
0001FC00
0001F800
0003F000
0007E000
000FC000
000F8000
001F0000
003E0000
007C0000
00000000
00000000
00000000
00000000
00000000
03FFFFE0
1FFFFFE0
3FFFFFE0
7FFFFFE0
7FFFFFE0
FF000000
FE000000
FC000000
FC000000
FC000000
FC000000
FC000000
FE000000
7F000000
7F800000
3FE00000
1FF00000
0FFC0000
07FF0000
01FFC000
00FFE000
003FF800
000FFE00
0007FF00
0001FF80
00007FC0
00003FC0
00000FE0
00000FE0
000007E0
000007E0
000007E0
000007E0
000007E0
000007E0
00000FE0
00001FE0
FFFFFFC0
FFFFFFC0
FFFFFF80
FFFFFF00
FFFFFC00
ENDCHAR
STARTCHAR 015C
ENCODING 348
SWIDTH 500 0
DWIDTH 42 0
BBX 31 70 5 0
BITMAP
0007C000
000FE000
001FF000
003EF800
007C7C00
00F83E00
01F01F00
01E00780
03C003C0
00000000
00000000
07FFFFFE
1FFFFFFE
3FFFFFFE
7FFFFFFE
7FFFFFFE
FFC0000E
FE000000
FC000000
FC000000
FC000000
FC000000
FC000000
FC000000
FC000000
FC000000
FC000000
FC000000
FE000000
7F000000
7F800000
3FC00000
3FE00000
1FF80000
0FFC0000
03FE0000
01FF0000
00FFC000
007FE000
003FF000
000FF800
0007FC00
0003FF00
0001FF80
00007FC0
00003FE0
00001FF0
00000FF8
000007FC
000001FC
000000FE
000000FE
0000007E
0000007E
0000007E
0000007E
0000007E
0000007E
0000007E
0000007E
0000007E
0000007E
0000007E
000000FE
E00003FE
FFFFFFFC
FFFFFFFC
FFFFFFF8
FFFFFFF0
FFFFFFC0
ENDCHAR
STARTCHAR 015D
ENCODING 349
SWIDTH 404 0
DWIDTH 34 0
BBX 24 59 4 0
BITMAP
001F00
003F00
007F80
007FC0
00FBE0
01F3E0
03E1F0
03C0F8
07C078
0F807C
1F003E
1E001F
000000
000000
000000
000000
000000
07FFFE
1FFFFE
3FFFFE
7FFFFE
7FFFFE
FE0000
FE0000
FC0000
FC0000
FC0000
FC0000
FC0000
FE0000
FE0000
7F8000
7FC000
3FE000
1FF800
07FC00
03FE00
00FF80
003FC0
001FF0
0007F8
0003FC
0000FC
00003E
00001E
00001E
00000E
00000E
00000E
00000E
00000E
00000E
00001E
00003E
FFFFFC
FFFFFC
FFFFF8
FFFFF0
FFFFC0
ENDCHAR
STARTCHAR 015E
ENCODING 350
SWIDTH 500 0
DWIDTH 42 0
BBX 31 76 5 -17
BITMAP
07FFFFFE
1FFFFFFE
3FFFFFFE
7FFFFFFE
7FFFFFFE
FFC0000E
FE000000
FC000000
FC000000
FC000000
FC000000
FC000000
FC000000
FC000000
FC000000
FC000000
FC000000
FE000000
7F000000
7F800000
3FC00000
3FE00000
1FF80000
0FFC0000
03FE0000
01FF0000
00FFC000
007FE000
003FF000
000FF800
0007FC00
0003FF00
0001FF80
00007FC0
00003FE0
00001FF0
00000FF8
000007FC
000001FC
000000FE
000000FE
0000007E
0000007E
0000007E
0000007E
0000007E
0000007E
0000007E
0000007E
0000007E
0000007E
0000007E
000000FE
E00003FE
FFFFFFFC
FFFFFFFC
FFFFFFF8
FFFFFFF0
FFFFFFC0
00070000
000F0000
000F0000
000FF800
001FFC00
001FFE00
00003F00
00001F00
00001F00
00001F00
00001F00
00001F00
00001F00
00007F00
00FFFE00
00FFFC00
01FFF800
ENDCHAR
STARTCHAR 015F
ENCODING 351
SWIDTH 404 0
DWIDTH 34 0
BBX 27 59 4 -17
BITMAP
03FFFFE0
1FFFFFE0
3FFFFFE0
7FFFFFE0
7FFFFFE0
FF000000
FE000000
FC000000
FC000000
FC000000
FC000000
FC000000
FE000000
FF000000
7F800000
7FE00000
3FF00000
1FFC0000
07FF0000
01FFC000
00FFE000
003FF800
000FFE00
0007FF00
0001FF80
00007FC0
00003FC0
00000FE0
00000FE0
000007E0
000007E0
000007E0
000007E0
000007E0
000007E0
00000FE0
00001FE0
FFFFFFC0
FFFFFFC0
FFFFFF80
FFFFFF00
FFFFFC00
003C0000
003C0000
00380000
007FE000
007FF000
007FF800
0000FC00
00007C00
00007C00
00007C00
00007C00
00007C00
00007C00
0001FC00
03FFF800
07FFF000
07FFE000
ENDCHAR
STARTCHAR 0160
ENCODING 352
SWIDTH 500 0
DWIDTH 42 0
BBX 31 70 5 0
BITMAP
03C003C0
01F00780
00F80F00
007C3E00
003E7C00
001FF800
000FF000
0007E000
0003C000
00000000
00000000
07FFFFFE
1FFFFFFE
3FFFFFFE
7FFFFFFE
7FFFFFFE
FFC0000E
FE000000
FC000000
FC000000
FC000000
FC000000
FC000000
FC000000
FC000000
FC000000
FC000000
FC000000
FE000000
7F000000
7F800000
3FC00000
3FE00000
1FF80000
0FFC0000
03FE0000
01FF0000
00FFC000
007FE000
003FF000
000FF800
0007FC00
0003FF00
0001FF80
00007FC0
00003FE0
00001FF0
00000FF8
000007FC
000001FC
000000FE
000000FE
0000007E
0000007E
0000007E
0000007E
0000007E
0000007E
0000007E
0000007E
0000007E
0000007E
0000007E
000000FE
E00003FE
FFFFFFFC
FFFFFFFC
FFFFFFF8
FFFFFFF0
FFFFFFC0
ENDCHAR
STARTCHAR 0161
ENCODING 353
SWIDTH 404 0
DWIDTH 34 0
BBX 26 59 4 0
BITMAP
1F001F00
0F001E00
07803E00
07C07C00
03E0F800
01F1F000
01F1F000
00FBE000
007FC000
003F8000
003F8000
001F0000
00000000
00000000
00000000
00000000
00000000
07FFFE00
1FFFFE00
3FFFFE00
7FFFFE00
7FFFFE00
FE000000
FE000000
FC000000
FC000000
FC000000
FC000000
FC000000
FE000000
7F000000
7F800000
3FE00000
3FF00000
1FFC0000
07FE0000
03FF8000
00FFE000
003FF000
001FFC00
0007FE00
0003FF00
0000FF80
00003F80
00001FC0
00001FC0
00000FC0
00000FC0
00000FC0
00000FC0
00000FC0
00000FC0
00001FC0
00003FC0
FFFFFF80
FFFFFF80
FFFFFF00
FFFFFE00
FFFFF800
ENDCHAR
STARTCHAR 0162
ENCODING 354
SWIDTH 464 0
DWIDTH 39 0
BBX 33 77 2 -18
BITMAP
FFFFFFFF80
FFFFFFFF80
FFFFFFFF80
FFFFFFFF80
FFFFFFFF80
C003F00180
0003F00000
0003F00000
0003F00000
0003F00000
0003F00000
0003F00000
0003F00000
0003F00000
0003F00000
0003F00000
0003F00000
0003F00000
0003F00000
0003F00000
0003F00000
0003F00000
0003F00000
0003F00000
0003F00000
0003F00000
0003F00000
0003F00000
0003F00000
0003F00000
0003F00000
0003F00000
0003F00000
0003F00000
0003F00000
0003F00000
0003F00000
0003F00000
0003F00000
0003F00000
0003F00000
0003F00000
0003F00000
0003F00000
0003F00000
0003F00000
0003F00000
0003F00000
0003F00000
0003F00000
0003F00000
0003F00000
0003F00000
0003F00000
0003F00000
0003F00000
0003F00000
0003F00000
0003F00000
0000000000
0000000000
0000000000
0003F00000
0003F00000
0003F00000
0003F00000
0003F00000
0003F00000
0003F00000
0003E00000
0003E00000
0007C00000
0007C00000
0007C00000
0007800000
0007800000
0007000000
ENDCHAR
STARTCHAR 0163
ENCODING 355
SWIDTH 297 0
DWIDTH 25 0
BBX 17 71 6 -17
BITMAP
0C0000
1C0000
7C0000
FC0000
FC0000
FC0000
FC0000
FC0000
FC0000
FC0000
FC0000
FFFF80
FFFF80
FFFF80
FFFF80
FFFF80
FC0000
FC0000
FC0000
FC0000
FC0000
FC0000
FC0000
FC0000
FC0000
FC0000
FC0000
FC0000
FC0000
FC0000
FC0000
FC0000
FC0000
FC0000
FC0000
FC0000
FC0000
FC0000
FC0000
FC0000
FC0000
FC0000
FC0000
FC0000
FC0000
FC0000
FE0000
FF0000
7FFF80
7FFF80
3FFF80
1FFF80
07FF80
000000
000000
000000
01F800
01F800
01F800
01F800
01F800
01F800
01F800
03F000
03F000
03E000
03E000
07C000
07C000
078000
0F8000
ENDCHAR
STARTCHAR 0164
ENCODING 356
SWIDTH 464 0
DWIDTH 39 0
BBX 35 70 2 0
BITMAP
01F001F000
00F803E000
007C07C000
003E1F0000
001F3E0000
000FFC0000
0007F80000
0003F00000
0001E00000
0000000000
0000000000
FFFFFFFFE0
FFFFFFFFE0
FFFFFFFFE0
FFFFFFFFE0
FFFFFFFFE0
C003F000E0
0003F00000
0003F00000
0003F00000
0003F00000
0003F00000
0003F00000
0003F00000
0003F00000
0003F00000
0003F00000
0003F00000
0003F00000
0003F00000
0003F00000
0003F00000
0003F00000
0003F00000
0003F00000
0003F00000
0003F00000
0003F00000
0003F00000
0003F00000
0003F00000
0003F00000
0003F00000
0003F00000
0003F00000
0003F00000
0003F00000
0003F00000
0003F00000
0003F00000
0003F00000
0003F00000
0003F00000
0003F00000
0003F00000
0003F00000
0003F00000
0003F00000
0003F00000
0003F00000
0003F00000
0003F00000
0003F00000
0003F00000
0003F00000
0003F00000
0003F00000
0003F00000
0003F00000
0003F00000
ENDCHAR
STARTCHAR 0165
ENCODING 357
SWIDTH 297 0
DWIDTH 25 0
BBX 19 59 6 0
BITMAP
000780
000780
000780
000780
000780
000780
0C0780
3C0780
7C0780
FC0780
FC0780
FC0780
FC0780
FC0780
FC0000
FC0000
FC0000
FFFFE0
FFFFE0
FFFFE0
FFFFE0
FFFFE0
FC0000
FC0000
FC0000
FC0000
FC0000
FC0000
FC0000
FC0000
FC0000
FC0000
FC0000
FC0000
FC0000
FC0000
FC0000
FC0000
FC0000
FC0000
FC0000
FC0000
FC0000
FC0000
FC0000
FC0000
FC0000
FC0000
FC0000
FC0000
FC0000
FC0000
FE0000
FF0000
7FFFE0
7FFFE0
3FFFE0
1FFFE0
03FFE0
ENDCHAR
STARTCHAR 0166
ENCODING 358
SWIDTH 464 0
DWIDTH 39 0
BBX 33 59 5 0
BITMAP
FFFFFFFF80
FFFFFFFF80
FFFFFFFF80
FFFFFFFF80
FFFFFFFF80
C00FC00380
000FC00000
000FC00000
000FC00000
000FC00000
000FC00000
000FC00000
000FC00000
000FC00000
000FC00000
000FC00000
000FC00000
000FC00000
000FC00000
000FC00000
000FC00000
000FC00000
000FC00000
000FC00000
000FC00000
000FC00000
000FC00000
000FC00000
000FC00000
000FC00000
000FC00000
000FC00000
FFFFFFFC00
FFFFFFFC00
FFFFFFFC00
FFFFFFFC00
FFFFFFFC00
000FC00000
000FC00000
000FC00000
000FC00000
000FC00000
000FC00000
000FC00000
000FC00000
000FC00000
000FC00000
000FC00000
000FC00000
000FC00000
000FC00000
000FC00000
000FC00000
000FC00000
000FC00000
000FC00000
000FC00000
000FC00000
000FC00000
ENDCHAR
STARTCHAR 0167
ENCODING 359
SWIDTH 297 0
DWIDTH 25 0
BBX 24 53 -1 1
BITMAP
001800
003800
00F800
01F800
01F800
01F800
01F800
01F800
01F800
01F800
01F800
01FFFF
01FFFF
01FFFF
01FFFF
01FFFF
01F800
01F800
01F800
01F800
01F800
01F800
01F800
01F800
01F800
01F800
FFFFFF
FFFFFF
FFFFFF
FFFFFF
FFFFFF
01F800
01F800
01F800
01F800
01F800
01F800
01F800
01F800
01F800
01F800
01F800
01F800
01F800
01F800
01F800
01FC00
01FE00
00FFFF
00FFFF
007FFF
003FFF
000FFF
ENDCHAR
STARTCHAR 0168
ENCODING 360
SWIDTH 547 0
DWIDTH 46 0
BBX 34 69 6 0
BITMAP
00FC001C00
03FF001C00
07FFC01C00
0707E01C00
0F01F83C00
0E00FFF800
0E003FF000
0E000FE000
0000000000
0000000000
FE00001FC0
FE00001FC0
FE00001FC0
FE00001FC0
FE00001FC0
FE00001FC0
FE00001FC0
FE00001FC0
FE00001FC0
FE00001FC0
FE00001FC0
FE00001FC0
FE00001FC0
FE00001FC0
FE00001FC0
FE00001FC0
FE00001FC0
FE00001FC0
FE00001FC0
FE00001FC0
FE00001FC0
FE00001FC0
FE00001FC0
FE00001FC0
FE00001FC0
FE00001FC0
FE00001FC0
FE00001FC0
FE00001FC0
FE00001FC0
FE00001FC0
FE00001FC0
FE00001FC0
FE00001FC0
FE00001FC0
FE00001FC0
FE00001FC0
FE00001FC0
FE00001FC0
FE00001FC0
FE00001FC0
FE00001FC0
FE00001FC0
FE00001FC0
FE00001FC0
FE00001FC0
FE00001FC0
FE00001FC0
FE00001FC0
FE00001FC0
FE00001FC0
FE00001FC0
FF00003FC0
FFC000FFC0
7FFFFFFF80
7FFFFFFF80
3FFFFFFF00
1FFFFFFE00
07FFFFF800
ENDCHAR
STARTCHAR 0169
ENCODING 361
SWIDTH 464 0
DWIDTH 39 0
BBX 28 59 6 0
BITMAP
0F8003F0
1FE003F0
3FF003F0
7FF803F0
7FFC03F0
FE0E07F0
FE0787F0
FC03FFE0
FC01FFE0
FC00FFE0
FC003FC0
FC001F00
00000000
00000000
00000000
00000000
00000000
FC0003F0
FC0003F0
FC0003F0
FC0003F0
FC0003F0
FC0003F0
FC0003F0
FC0003F0
FC0003F0
FC0003F0
FC0003F0
FC0003F0
FC0003F0
FC0003F0
FC0003F0
FC0003F0
FC0003F0
FC0003F0
FC0003F0
FC0003F0
FC0003F0
FC0003F0
FC0003F0
FC0003F0
FC0003F0
FC0003F0
FC0003F0
FC0003F0
FC0003F0
FC0003F0
FC0003F0
FC0003F0
FC0003F0
FC0003F0
FC0003F0
FE0003F0
FF0003F0
7FFFFFF0
7FFFFFF0
3FFFFFF0
1FFFFFF0
07FFFFF0
ENDCHAR
STARTCHAR 016A
ENCODING 362
SWIDTH 547 0
DWIDTH 46 0
BBX 34 68 6 0
BITMAP
00FFFFC000
00FFFFC000
00FFFFC000
00FFFFC000
0000000000
0000000000
0000000000
0000000000
0000000000
FC00000FC0
FC00000FC0
FC00000FC0
FC00000FC0
FC00000FC0
FC00000FC0
FC00000FC0
FC00000FC0
FC00000FC0
FC00000FC0
FC00000FC0
FC00000FC0
FC00000FC0
FC00000FC0
FC00000FC0
FC00000FC0
FC00000FC0
FC00000FC0
FC00000FC0
FC00000FC0
FC00000FC0
FC00000FC0
FC00000FC0
FC00000FC0
FC00000FC0
FC00000FC0
FC00000FC0
FC00000FC0
FC00000FC0
FC00000FC0
FC00000FC0
FC00000FC0
FC00000FC0
FC00000FC0
FC00000FC0
FC00000FC0
FC00000FC0
FC00000FC0
FC00000FC0
FC00000FC0
FC00000FC0
FC00000FC0
FC00000FC0
FC00000FC0
FC00000FC0
FC00000FC0
FC00000FC0
FC00000FC0
FC00000FC0
FC00000FC0
FC00000FC0
FC00000FC0
FE00001FC0
FFC000FFC0
7FFFFFFF80
7FFFFFFF80
3FFFFFFF00
1FFFFFFE00
07FFFFF800
ENDCHAR
STARTCHAR 016B
ENCODING 363
SWIDTH 464 0
DWIDTH 39 0
BBX 28 54 6 0
BITMAP
07FFFE00
07FFFE00
07FFFE00
07FFFE00
00000000
00000000
00000000
00000000
00000000
00000000
00000000
00000000
FC0003F0
FC0003F0
FC0003F0
FC0003F0
FC0003F0
FC0003F0
FC0003F0
FC0003F0
FC0003F0
FC0003F0
FC0003F0
FC0003F0
FC0003F0
FC0003F0
FC0003F0
FC0003F0
FC0003F0
FC0003F0
FC0003F0
FC0003F0
FC0003F0
FC0003F0
FC0003F0
FC0003F0
FC0003F0
FC0003F0
FC0003F0
FC0003F0
FC0003F0
FC0003F0
FC0003F0
FC0003F0
FC0003F0
FC0003F0
FC0003F0
FE0003F0
FF0003F0
7FFFFFF0
7FFFFFF0
3FFFFFF0
1FFFFFF0
07FFFFF0
ENDCHAR
STARTCHAR 016C
ENCODING 364
SWIDTH 547 0
DWIDTH 46 0
BBX 34 69 6 1
BITMAP
01E001E000
01E001E000
01E001E000
01F001E000
01F803E000
00FFFFC000
007FFF8000
001FFE0000
0000000000
0000000000
FC00000FC0
FC00000FC0
FC00000FC0
FC00000FC0
FC00000FC0
FC00000FC0
FC00000FC0
FC00000FC0
FC00000FC0
FC00000FC0
FC00000FC0
FC00000FC0
FC00000FC0
FC00000FC0
FC00000FC0
FC00000FC0
FC00000FC0
FC00000FC0
FC00000FC0
FC00000FC0
FC00000FC0
FC00000FC0
FC00000FC0
FC00000FC0
FC00000FC0
FC00000FC0
FC00000FC0
FC00000FC0
FC00000FC0
FC00000FC0
FC00000FC0
FC00000FC0
FC00000FC0
FC00000FC0
FC00000FC0
FC00000FC0
FC00000FC0
FC00000FC0
FC00000FC0
FC00000FC0
FC00000FC0
FC00000FC0
FC00000FC0
FC00000FC0
FC00000FC0
FC00000FC0
FC00000FC0
FC00000FC0
FC00000FC0
FC00000FC0
FC00000FC0
FC00000FC0
FE00001FC0
FFC000FFC0
7FFFFFFF80
7FFFFFFF80
3FFFFFFF00
1FFFFFFE00
07FFFFF800
ENDCHAR
STARTCHAR 016D
ENCODING 365
SWIDTH 464 0
DWIDTH 39 0
BBX 28 59 6 0
BITMAP
0C000F00
0C000F00
0C000F00
0C000F00
0C000F00
0E001F00
0F003F00
07FFFE00
07FFFE00
03FFFC00
00FFF000
00000000
00000000
00000000
00000000
00000000
00000000
FC000FF0
FC000FF0
FC000FF0
FC000FF0
FC000FF0
FC000FF0
FC000FF0
FC000FF0
FC000FF0
FC000FF0
FC000FF0
FC000FF0
FC000FF0
FC000FF0
FC000FF0
FC000FF0
FC000FF0
FC000FF0
FC000FF0
FC000FF0
FC000FF0
FC000FF0
FC000FF0
FC000FF0
FC000FF0
FC000FF0
FC000FF0
FC000FF0
FC000FF0
FC000FF0
FC000FF0
FC000FF0
FC000FF0
FC000FF0
FC000FF0
FE000FF0
FE000FF0
7FFFFFF0
7FFFFFF0
3FFFFFF0
1FFFFFF0
07FFFFF0
ENDCHAR
STARTCHAR 016E
ENCODING 366
SWIDTH 547 0
DWIDTH 46 0
BBX 34 71 6 0
BITMAP
001FFF0000
007FFFC000
007FFFC000
00F803E000
00F001E000
00F001E000
00F001E000
00F803E000
007FFFC000
001FFF0000
0000000000
0000000000
FC00000FC0
FC00000FC0
FC00000FC0
FC00000FC0
FC00000FC0
FC00000FC0
FC00000FC0
FC00000FC0
FC00000FC0
FC00000FC0
FC00000FC0
FC00000FC0
FC00000FC0
FC00000FC0
FC00000FC0
FC00000FC0
FC00000FC0
FC00000FC0
FC00000FC0
FC00000FC0
FC00000FC0
FC00000FC0
FC00000FC0
FC00000FC0
FC00000FC0
FC00000FC0
FC00000FC0
FC00000FC0
FC00000FC0
FC00000FC0
FC00000FC0
FC00000FC0
FC00000FC0
FC00000FC0
FC00000FC0
FC00000FC0
FC00000FC0
FC00000FC0
FC00000FC0
FC00000FC0
FC00000FC0
FC00000FC0
FC00000FC0
FC00000FC0
FC00000FC0
FC00000FC0
FC00000FC0
FC00000FC0
FC00000FC0
FC00000FC0
FC00000FC0
FC00000FC0
FE00001FC0
FFC000FFC0
7FFFFFFF80
7FFFFFFF80
3FFFFFFF00
1FFFFFFE00
07FFFFF800
ENDCHAR
STARTCHAR 016F
ENCODING 367
SWIDTH 464 0
DWIDTH 39 0
BBX 28 60 6 0
BITMAP
00FFF000
03FFFC00
03FFFC00
07C03E00
07801E00
07801E00
07801E00
07801E00
07801E00
07C03E00
03FFFC00
03FFFC00
00FFF000
00000000
00000000
00000000
00000000
00000000
FC0003F0
FC0003F0
FC0003F0
FC0003F0
FC0003F0
FC0003F0
FC0003F0
FC0003F0
FC0003F0
FC0003F0
FC0003F0
FC0003F0
FC0003F0
FC0003F0
FC0003F0
FC0003F0
FC0003F0
FC0003F0
FC0003F0
FC0003F0
FC0003F0
FC0003F0
FC0003F0
FC0003F0
FC0003F0
FC0003F0
FC0003F0
FC0003F0
FC0003F0
FC0003F0
FC0003F0
FC0003F0
FC0003F0
FC0003F0
FC0003F0
FE0003F0
FF0003F0
7FFFFFF0
7FFFFFF0
3FFFFFF0
1FFFFFF0
07FFFFF0
ENDCHAR
STARTCHAR 0170
ENCODING 368
SWIDTH 547 0
DWIDTH 46 0
BBX 32 69 6 0
BITMAP
0000F81C
0001F038
0003E070
0007C0F0
000F01E0
001E03C0
003C0780
00780F00
00000000
00000000
FC00000F
FC00000F
FC00000F
FC00000F
FC00000F
FC00000F
FC00000F
FC00000F
FC00000F
FC00000F
FC00000F
FC00000F
FC00000F
FC00000F
FC00000F
FC00000F
FC00000F
FC00000F
FC00000F
FC00000F
FC00000F
FC00000F
FC00000F
FC00000F
FC00000F
FC00000F
FC00000F
FC00000F
FC00000F
FC00000F
FC00000F
FC00000F
FC00000F
FC00000F
FC00000F
FC00000F
FC00000F
FC00000F
FC00000F
FC00000F
FC00000F
FC00000F
FC00000F
FC00000F
FC00000F
FC00000F
FC00000F
FC00000F
FC00000F
FC00000F
FC00000F
FC00000F
FE00001F
FFC000FF
7FFFFFFE
7FFFFFFE
3FFFFFFC
1FFFFFF8
07FFFFE0
ENDCHAR
STARTCHAR 0171
ENCODING 369
SWIDTH 464 0
DWIDTH 39 0
BBX 28 59 6 0
BITMAP
000F81F0
000F03E0
001E03C0
003E07C0
003C0F80
00780F00
00F01E00
00F03E00
01E03C00
03C07800
0380F000
0780F000
00000000
00000000
00000000
00000000
00000000
FC0003F0
FC0003F0
FC0003F0
FC0003F0
FC0003F0
FC0003F0
FC0003F0
FC0003F0
FC0003F0
FC0003F0
FC0003F0
FC0003F0
FC0003F0
FC0003F0
FC0003F0
FC0003F0
FC0003F0
FC0003F0
FC0003F0
FC0003F0
FC0003F0
FC0003F0
FC0003F0
FC0003F0
FC0003F0
FC0003F0
FC0003F0
FC0003F0
FC0003F0
FC0003F0
FC0003F0
FC0003F0
FC0003F0
FC0003F0
FC0003F0
FE0003F0
FF0003F0
7FFFFFF0
7FFFFFF0
3FFFFFF0
1FFFFFF0
07FFFFF0
ENDCHAR
STARTCHAR 0172
ENCODING 370
SWIDTH 547 0
DWIDTH 46 0
BBX 34 76 6 -17
BITMAP
FC00000FC0
FC00000FC0
FC00000FC0
FC00000FC0
FC00000FC0
FC00000FC0
FC00000FC0
FC00000FC0
FC00000FC0
FC00000FC0
FC00000FC0
FC00000FC0
FC00000FC0
FC00000FC0
FC00000FC0
FC00000FC0
FC00000FC0
FC00000FC0
FC00000FC0
FC00000FC0
FC00000FC0
FC00000FC0
FC00000FC0
FC00000FC0
FC00000FC0
FC00000FC0
FC00000FC0
FC00000FC0
FC00000FC0
FC00000FC0
FC00000FC0
FC00000FC0
FC00000FC0
FC00000FC0
FC00000FC0
FC00000FC0
FC00000FC0
FC00000FC0
FC00000FC0
FC00000FC0
FC00000FC0
FC00000FC0
FC00000FC0
FC00000FC0
FC00000FC0
FC00000FC0
FC00000FC0
FC00000FC0
FC00000FC0
FC00000FC0
FC00000FC0
FC00000FC0
FE00001FC0
FFC000FFC0
FFFFFFFFC0
FFFFFFFFC0
7FFFFFFF80
7FFFFFFF80
3FFFFFFF00
1FFFFFFE00
03FFFFF800
00000F0000
00003C0000
0000F00000
0003E00000
0007800000
000F800000
001F000000
001F000000
001F000000
001F000000
001F800000
001FFF8000
000FFF8000
000FFF8000
0003FF8000
ENDCHAR
STARTCHAR 0173
ENCODING 371
SWIDTH 464 0
DWIDTH 39 0
BBX 28 59 6 -17
BITMAP
FC0003F0
FC0003F0
FC0003F0
FC0003F0
FC0003F0
FC0003F0
FC0003F0
FC0003F0
FC0003F0
FC0003F0
FC0003F0
FC0003F0
FC0003F0
FC0003F0
FC0003F0
FC0003F0
FC0003F0
FC0003F0
FC0003F0
FC0003F0
FC0003F0
FC0003F0
FC0003F0
FC0003F0
FC0003F0
FC0003F0
FC0003F0
FC0003F0
FC0003F0
FC0003F0
FC0003F0
FC0003F0
FC0003F0
FC0003F0
FC0003F0
FE0003F0
FF0003F0
FFFFFFF0
FFFFFFF0
7FFFFFF0
7FFFFFF0
3FFFFFF0
1FFFFFF0
03FFFFF0
00000FC0
00003F00
0000F800
0001F000
0003C000
00078000
000F8000
000F8000
000F8000
000F8000
000FC000
0007FFF0
0007FFF0
0003FFF0
0001FFF0
ENDCHAR
STARTCHAR 0174
ENCODING 372
SWIDTH 761 0
DWIDTH 64 0
BBX 61 70 2 0
BITMAP
0000000F80000000
0000001FC0000000
0000003FE0000000
0000007DF0000000
000000F8F8000000
000001F07C000000
000003E03E000000
000007C01F000000
00000F800F800000
0000000000000000
0000000000000000
FC00000FC00001F8
FE00000FC00001F8
7E00001FC00001F0
7E00001FC00003F0
7E00001FC00003F0
7E00001FE00003F0
7F00001FE00003F0
3F00003FE00007E0
3F00003FE00007E0
3F00003FE00007E0
3F80003FF00007E0
1F80003DF00007C0
1F80007DF0000FC0
1F80007DF0000FC0
1F80007DF0000FC0
0FC0007DF8000F80
0FC00078F8001F80
0FC000F8F8001F80
0FC000F8F8001F80
0FE000F8F8001F00
07E000F8FC003F00
07E000F07C003F00
07E001F07C003F00
07E001F07C003F00
03F001F07C003E00
03F001F07E007E00
03F001E07E007E00
03F003E03E007E00
01F803E03E007C00
01F803E03E00FC00
01F803E03F00FC00
01F803C03F00FC00
01F807C01F00F800
00FC07C01F00F800
00FC07C01F01F800
00FC07C01F81F800
00FC07801F81F000
007E0F800F81F000
007E0F800F83F000
007E0F800F83F000
007E0F800FC3E000
003E0F000FC3E000
003F1F0007C3E000
003F1F0007C7E000
003F1F0007C7E000
003F1F0007E7C000
001F9E0007E7C000
001FBE0003EFC000
001FBE0003EFC000
001FBE0003EF8000
000FBE0003EF8000
000FFC0003FF8000
000FFC0001FF8000
000FFC0001FF0000
0007FC0001FF0000
0007FC0001FF0000
0007F80001FF0000
0007F80000FE0000
0003F80000FE0000
ENDCHAR
STARTCHAR 0175
ENCODING 373
SWIDTH 642 0
DWIDTH 54 0
BBX 50 59 2 0
BITMAP
000001F0000000
000003F8000000
000003F8000000
000007FC000000
00000FBE000000
00000F1F000000
00001E1F000000
00003E0F800000
00007C07C00000
00007803C00000
0000F003E00000
0001F001F00000
00000000000000
00000000000000
00000000000000
00000000000000
00000000000000
FE0003F8000FC0
FE0003F8000FC0
7E0003F8001F80
7E0003FC001F80
7F0003FC001F80
7F0007FC001F80
3F0007FC001F00
3F0007FC003F00
3F8007BE003F00
1F8007BE003F00
1F800FBE003E00
1F800FBE007E00
1FC00FBE007E00
0FC00F1E007C00
0FC00F1F007C00
0FC01F1F007C00
0FE01F1F00FC00
07E01F1F00F800
07E01E0F00F800
07E01E0F80F800
03F03E0F81F800
03F03E0F81F000
03F03E0F81F000
03F03C0781F000
01F83C07C3F000
01F87C07C3E000
01F87C07C3E000
01F87C07C3E000
00FC7803C3E000
00FC7803E7C000
00FCF803E7C000
007CF803E7C000
007EF003E7C000
007EF001EF8000
007EF001FF8000
003FF001FF8000
003FF001FF0000
003FE001FF0000
001FE000FF0000
001FE000FF0000
001FE000FE0000
001FE000FE0000
ENDCHAR
STARTCHAR 0176
ENCODING 374
SWIDTH 523 0
DWIDTH 44 0
BBX 43 70 0 0
BITMAP
00001F000000
00003F800000
00007FC00000
0000FFE00000
0001F1F00000
0003E0F80000
0007C07C0000
000F803E0000
001F001F0000
000000000000
000000000000
FE0000000FE0
FF0000000FE0
7F0000001FC0
3F8000001FC0
3F8000003F80
1FC000003F00
1FE000007F00
0FE00000FE00
0FF00000FE00
07F00001FC00
03F80001FC00
03F80003F800
01FC0003F800
01FC0007F000
00FE0007F000
00FF000FE000
007F000FC000
003F801FC000
003F801F8000
001FC03F8000
001FC03F0000
000FE07F0000
000FE07E0000
0007F0FE0000
0003F9FC0000
0003F9FC0000
0001FFF80000
0001FFF00000
0000FFF00000
00007FE00000
00007FE00000
00003FC00000
00003FC00000
00001F800000
00001F800000
00001F800000
00001F800000
00001F800000
00001F800000
00001F800000
00001F800000
00001F800000
00001F800000
00001F800000
00001F800000
00001F800000
00001F800000
00001F800000
00001F800000
00001F800000
00001F800000
00001F800000
00001F800000
00001F800000
00001F800000
00001F800000
00001F800000
00001F800000
00001F800000
ENDCHAR
STARTCHAR 0177
ENCODING 375
SWIDTH 404 0
DWIDTH 34 0
BBX 32 76 1 -17
BITMAP
0003E000
0007F000
0007F000
000FF800
001F7C00
001E3E00
003C3E00
007C1F00
00F80F80
00F00780
01E007C0
03E003E0
00000000
00000000
00000000
00000000
00000000
FE00003F
FE00003F
7F00003E
7F00007E
7F00007E
3F00007C
3F80007C
3F8000FC
1F8000FC
1F8000F8
1FC000F8
0FC001F8
0FC001F0
0FE001F0
0FE001F0
07E003E0
07E003E0
07F003E0
03F007E0
03F007C0
03F007C0
01F807C0
01F80F80
01F80F80
00F80F80
00FC0F80
00FC1F00
00FC1F00
007E1F00
007E1E00
007E3E00
003E3E00
003F3C00
003F7C00
001F7C00
001F7C00
001FF800
000FF800
000FF800
000FF000
000FF000
0007F000
0003F000
0007E000
0007E000
0007E000
000FC000
000FC000
000FC000
001F8000
001F8000
001F8000
003F8000
003F0000
003F0000
007F0000
007E0000
007E0000
00FE0000
ENDCHAR
STARTCHAR 0178
ENCODING 376
SWIDTH 523 0
DWIDTH 44 0
BBX 45 68 0 0
BITMAP
0003E03E0000
0003E03E0000
0003E03E0000
0003E03E0000
0003E03E0000
000000000000
000000000000
000000000000
000000000000
FF00000003F8
7F00000007F0
3F8000000FE0
3F8000000FE0
1FC000001FC0
1FC000001FC0
0FE000003F80
0FF000007F00
07F000007F00
07F80000FE00
03F80000FE00
01FC0001FC00
01FC0001FC00
00FE0003F800
00FE0007F000
007F0007F000
007F000FE000
003F800FE000
003F801FC000
001FC01F8000
000FC03F8000
000FE07F0000
0007E07F0000
0007F0FE0000
0003F8FC0000
0003F9FC0000
0001FDF80000
0001FFF80000
0000FFF00000
00007FF00000
00007FE00000
00003FC00000
00003FC00000
00001F800000
00001F800000
00001F800000
00001F800000
00001F800000
00001F800000
00001F800000
00001F800000
00001F800000
00001F800000
00001F800000
00001F800000
00001F800000
00001F800000
00001F800000
00001F800000
00001F800000
00001F800000
00001F800000
00001F800000
00001F800000
00001F800000
00001F800000
00001F800000
00001F800000
00001F800000
ENDCHAR
STARTCHAR 0179
ENCODING 377
SWIDTH 500 0
DWIDTH 42 0
BBX 35 70 4 0
BITMAP
000003E000
000007C000
00000F8000
00003F0000
00007C0000
0000F80000
0001F00000
0003E00000
0007C00000
0000000000
0000000000
FFFFFFFFE0
FFFFFFFFE0
FFFFFFFFE0
FFFFFFFFC0
FFFFFFFFC0
E000001F80
0000001F80
0000003F00
0000003F00
0000007E00
0000007E00
000000FC00
000000FC00
000001F800
000001F800
000003F000
000007F000
000007E000
00000FC000
00000FC000
00001F8000
00001F8000
00003F0000
00003F0000
00007E0000
00007E0000
0000FC0000
0000FC0000
0001F80000
0003F80000
0003F00000
0007F00000
0007E00000
000FE00000
000FC00000
001F800000
001F800000
003F000000
003F000000
007E000000
007E000000
00FC000000
01FC000000
01F8000000
03F8000000
03F0000000
07F0000000
07E0000000
0FE0000000
0FC0000000
1F80000000
1F80000000
3F00000000
3F00000020
7FFFFFFFE0
FFFFFFFFE0
FFFFFFFFE0
FFFFFFFFE0
FFFFFFFFE0
ENDCHAR
STARTCHAR 017A
ENCODING 378
SWIDTH 404 0
DWIDTH 34 0
BBX 28 59 3 0
BITMAP
00003F00
00007E00
0000FC00
0000F800
0001F000
0003F000
0007E000
000FC000
000F8000
001F0000
003E0000
007C0000
00000000
00000000
00000000
00000000
00000000
FFFFFFF0
FFFFFFF0
FFFFFFF0
FFFFFFE0
FFFFFFE0
00000FC0
00000FC0
00001F80
00001F00
00003F00
00007E00
00007E00
0000FC00
0000F800
0001F800
0003F000
0003F000
0007E000
0007C000
000FC000
001F8000
001F8000
003F0000
003E0000
007E0000
00FC0000
00FC0000
01F80000
01F00000
03F00000
07E00000
07E00000
0FC00000
1F800000
1F800000
3F000000
3F000000
7FFFFFF0
FFFFFFF0
FFFFFFF0
FFFFFFF0
FFFFFFF0
ENDCHAR
STARTCHAR 017B
ENCODING 379
SWIDTH 500 0
DWIDTH 42 0
BBX 35 68 4 0
BITMAP
0001F80000
0001F80000
0001F80000
0001F80000
0001F80000
0000000000
0000000000
0000000000
0000000000
FFFFFFFFE0
FFFFFFFFE0
FFFFFFFFE0
FFFFFFFFC0
FFFFFFFFC0
E000000F80
0000001F80
0000001F00
0000003F00
0000003E00
0000007E00
000000FC00
000000FC00
000001F800
000001F800
000003F000
000003F000
000007E000
000007C000
00000FC000
00000F8000
00001F8000
00003F0000
00003F0000
00007E0000
00007E0000
0000FC0000
0000FC0000
0001F80000
0001F80000
0003F00000
0003F00000
0007E00000
000FE00000
000FC00000
001F800000
001F800000
003F000000
003F000000
007E000000
007E000000
00FC000000
00FC000000
01F8000000
03F8000000
03F0000000
07F0000000
07E0000000
0FE0000000
0FC0000000
1F80000000
1F80000000
3F00000000
3F00000020
7FFFFFFFE0
FFFFFFFFE0
FFFFFFFFE0
FFFFFFFFE0
FFFFFFFFE0
ENDCHAR
STARTCHAR 017C
ENCODING 380
SWIDTH 404 0
DWIDTH 34 0
BBX 28 54 3 0
BITMAP
001F8000
001F8000
001F8000
001F8000
001F8000
001F8000
00000000
00000000
00000000
00000000
00000000
00000000
FFFFFFF0
FFFFFFF0
FFFFFFF0
FFFFFFE0
FFFFFFE0
000007C0
00000FC0
00001F80
00001F00
00003F00
00007E00
00007E00
0000FC00
0000F800
0001F800
0003F000
0003F000
0007E000
0007C000
000FC000
001F8000
001F8000
003F0000
003E0000
007E0000
00FC0000
00FC0000
01F80000
01F00000
03F00000
07E00000
07E00000
0FC00000
1F800000
1F800000
3F000000
3F000000
7FFFFFF0
FFFFFFF0
FFFFFFF0
FFFFFFF0
FFFFFFF0
ENDCHAR
STARTCHAR 017D
ENCODING 381
SWIDTH 500 0
DWIDTH 42 0
BBX 35 70 4 0
BITMAP
01F000F000
00F803E000
007C07C000
003F0F8000
001F9F0000
000FFE0000
0007FC0000
0003F80000
0001F00000
0000000000
0000000000
FFFFFFFFE0
FFFFFFFFE0
FFFFFFFFE0
FFFFFFFFC0
FFFFFFFFC0
E000001F80
0000001F80
0000003F00
0000003F00
0000007E00
0000007E00
000000FC00
000001FC00
000001F800
000003F800
000003F000
000007F000
000007E000
00000FC000
00000FC000
00001F8000
00001F8000
00003F0000
00003F0000
00007E0000
0000FE0000
0000FC0000
0001FC0000
0001F80000
0003F80000
0003F00000
0007F00000
0007E00000
000FE00000
000FC00000
001F800000
001F800000
003F000000
003F000000
007E000000
00FE000000
00FC000000
01FC000000
01F8000000
03F8000000
03F0000000
07F0000000
07E0000000
0FE0000000
0FC0000000
1F80000000
1F80000000
3F00000000
3F00000020
7FFFFFFFE0
FFFFFFFFE0
FFFFFFFFE0
FFFFFFFFE0
FFFFFFFFE0
ENDCHAR
STARTCHAR 017E
ENCODING 382
SWIDTH 404 0
DWIDTH 34 0
BBX 28 59 3 0
BITMAP
07800780
07C00F00
03E01F00
01E03E00
01F03C00
00F87C00
007CF800
007DF000
003FE000
001FE000
000FC000
000F8000
00000000
00000000
00000000
00000000
00000000
FFFFFFF0
FFFFFFF0
FFFFFFF0
FFFFFFE0
FFFFFFE0
00000FC0
00000FC0
00001F80
00003F00
00003F00
00007E00
00007E00
0000FC00
0001F800
0001F800
0003F000
0003F000
0007E000
000FC000
000FC000
001F8000
001F8000
003F0000
007E0000
007E0000
00FC0000
00FC0000
01F80000
03F00000
03F00000
07E00000
07E00000
0FC00000
1F800000
1F800000
3F000000
3F000000
7FFFFFF0
FFFFFFF0
FFFFFFF0
FFFFFFF0
FFFFFFF0
ENDCHAR
STARTCHAR 0192
ENCODING 402
SWIDTH 297 0
DWIDTH 25 0
BBX 28 76 -3 -17
BITMAP
0000FFF0
0003FFF0
0007FFF0
000FFFF0
000FFFF0
001FE000
001FC000
001F8000
001F8000
001F8000
001F8000
001F8000
001F8000
001F8000
001F8000
001F8000
001F8000
001FFFF0
001FFFF0
001FFFF0
001FFFF0
001FFFF0
001F8000
001F8000
001F8000
001F8000
001F8000
001F8000
001F8000
001F8000
001F8000
001F8000
001F8000
001F8000
001F8000
001F8000
001F8000
001F8000
001F8000
001F8000
001F8000
001F8000
001F8000
001F8000
001F8000
001F8000
001F8000
001F8000
001F8000
001F8000
001F8000
001F8000
001F8000
001F8000
001F8000
001F8000
001F8000
001F8000
001F8000
001F8000
001F8000
001F8000
001F8000
001F8000
001F8000
001F8000
001F8000
001F8000
001F8000
003F8000
007F8000
FFFF0000
FFFF0000
FFFE0000
FFFC0000
FFF00000
ENDCHAR
STARTCHAR 0218
ENCODING 536
SWIDTH 464 0
DWIDTH 39 0
BBX 28 59 5 0
BITMAP
00007E00
0000FC00
0001F800
0001F000
0003E000
0007C000
000FC000
000F8000
001F0000
003E0000
003C0000
00780000
00000000
00000000
00000000
00000000
00000000
FFFFFE00
FFFFFF80
FFFFFFC0
FFFFFFE0
FFFFFFE0
00000FF0
000007F0
000003F0
000003F0
000003F0
000003F0
000003F0
000003F0
000003F0
000003F0
000003F0
07FFFFF0
1FFFFFF0
3FFFFFF0
7FFFFFF0
7F0003F0
FE0003F0
FC0003F0
FC0003F0
FC0003F0
FC0003F0
FC0003F0
FC0003F0
FC0003F0
FC0003F0
FC0003F0
FC0003F0
FC0003F0
FC0003F0
FC0003F0
FE0003F0
FF0003F0
7FFFFFF0
7FFFFFF0
3FFFFFF0
1FFFFFF0
07FFFFF0
ENDCHAR
STARTCHAR 0219
ENCODING 537
SWIDTH 500 0
DWIDTH 42 0
BBX 31 77 5 -18
BITMAP
07FFFFFE
1FFFFFFE
3FFFFFFE
7FFFFFFE
7FFFFFFE
FFC0000E
FE000000
FC000000
FC000000
FC000000
FC000000
FC000000
FC000000
FC000000
FC000000
FC000000
FC000000
FE000000
7F000000
7F800000
3FC00000
3FE00000
1FF80000
0FFC0000
03FE0000
01FF0000
00FFC000
007FE000
003FF000
000FF800
0007FC00
0003FF00
0001FF80
00007FC0
00003FE0
00001FF0
00000FF8
000007FC
000001FC
000000FE
000000FE
0000007E
0000007E
0000007E
0000007E
0000007E
0000007E
0000007E
0000007E
0000007E
0000007E
0000007E
000000FE
E00003FE
FFFFFFFC
FFFFFFFC
FFFFFFF8
FFFFFFF0
FFFFFFC0
00000000
00000000
00000000
0003F000
0003F000
0003F000
0003F000
0003F000
0003F000
0003F000
0007E000
0007E000
0007C000
000FC000
000F8000
001F8000
001F0000
001F0000
ENDCHAR
STARTCHAR 02C6
ENCODING 710
SWIDTH 404 0
DWIDTH 34 0
BBX 21 12 7 47
BITMAP
00F800
01FC00
01FC00
03FE00
07DF00
078F80
0F0F80
1F07C0
3E03E0
3C01E0
7801F0
F800F8
ENDCHAR
STARTCHAR 02C7
ENCODING 711
SWIDTH 404 0
DWIDTH 34 0
BBX 21 12 7 47
BITMAP
F800F8
7800F0
3C01E0
3E03E0
1F07C0
0F8780
0F8F80
07DF00
03FE00
01FC00
01FC00
00F800
ENDCHAR
STARTCHAR 02D8
ENCODING 728
SWIDTH 392 0
DWIDTH 33 0
BBX 20 11 7 48
BITMAP
F000F0
F000F0
F000F0
F000F0
F000F0
F801F0
FC03F0
7FFFE0
7FFFE0
3FFFC0
0FFF00
ENDCHAR
STARTCHAR 02D9
ENCODING 729
SWIDTH 202 0
DWIDTH 17 0
BBX 6 6 6 48
BITMAP
FC
FC
FC
FC
FC
FC
ENDCHAR
STARTCHAR 02DA
ENCODING 730
SWIDTH 380 0
DWIDTH 32 0
BBX 18 13 7 47
BITMAP
1FFE00
7FFF80
7FFF80
F807C0
F003C0
F003C0
F003C0
F003C0
F003C0
F807C0
7FFF80
7FFF80
1FFE00
ENDCHAR
STARTCHAR 02DB
ENCODING 731
SWIDTH 345 0
DWIDTH 29 0
BBX 15 17 7 -17
BITMAP
003E
00F0
03E0
0F80
1E00
7C00
7C00
F800
F800
F800
F800
F800
FC00
FFFE
7FFE
7FFE
1FFE
ENDCHAR
STARTCHAR 02DC
ENCODING 732
SWIDTH 452 0
DWIDTH 38 0
BBX 25 12 7 47
BITMAP
0F800380
1FE00380
3FF00380
7FF80380
7FFC0380
F07E0780
F03F8780
E01FFF00
E00FFF00
E007FF00
E001FE00
E000F800
ENDCHAR
STARTCHAR 02DD
ENCODING 733
SWIDTH 440 0
DWIDTH 37 0
BBX 23 12 7 47
BITMAP
01F03E
01E07C
03C078
07C0F8
0781F0
0F01E0
1F03C0
1E07C0
3C0780
780F00
781E00
F01E00
ENDCHAR
STARTCHAR 0394
ENCODING 916
SWIDTH 500 0
DWIDTH 42 0
BBX 40 59 1 0
BITMAP
00003C0000
00003E0000
00007E0000
00007E0000
00007F0000
0000FF0000
0000FF0000
0000FF8000
0000FF8000
0001FF8000
0001FF8000
0001FFC000
0003FFC000
0003E7C000
0003E7E000
0007E7E000
0007C3E000
0007C3F000
000FC3F000
000FC1F000
000F81F000
000F81F800
001F81F800
001F00F800
001F00FC00
003F00FC00
003E007C00
003E007E00
007E007E00
007E003E00
007C003E00
00FC003F00
00FC003F00
00F8001F00
00F8001F80
01F8001F80
01F0000F80
01F0000FC0
03F0000FC0
03E00007C0
03E00007C0
07E00007E0
07E00007E0
07C00003E0
0FC00003F0
0FC00003F0
0F800001F0
0F800001F8
1F800001F8
1F000000F8
1F000000F8
3F000000FC
3F000000FC
3FFFFFFFFC
7FFFFFFFFE
7FFFFFFFFE
7FFFFFFFFE
FFFFFFFFFF
FFFFFFFFFF
ENDCHAR
STARTCHAR 03A9
ENCODING 937
SWIDTH 523 0
DWIDTH 44 0
BBX 33 59 6 0
BITMAP
07FFFFF000
1FFFFFFC00
3FFFFFFE00
7FFFFFFF00
7FFFFFFF00
FF00007F80
FE00003F80
FC00001F80
FC00001F80
FC00001F80
FC00001F80
FC00001F80
FC00001F80
FC00001F80
FC00001F80
FC00001F80
FC00001F80
FC00001F80
FC00001F80
FC00001F80
FC00001F80
FC00001F80
FC00001F80
FC00001F80
FC00001F80
FC00001F80
FC00001F80
FC00001F80
FC00001F80
FC00001F80
FC00001F80
FC00001F80
FC00001F80
FC00001F80
FC00001F80
FE00003F80
FF00007F80
7FFC1FFF00
7FFC1FFF00
3FFC1FFE00
1FFC1FFC00
0FFC1FF000
003C1E0000
003C1E0000
003C1E0000
003C1E0000
003C1E0000
003C1E0000
003C1E0000
003C1E0000
003C1E0000
003C1E0000
003C1E0000
003C1E0000
FFFC1FFF80
FFFC1FFF80
FFFC1FFF80
FFFC1FFF80
FFFC1FFF80
ENDCHAR
STARTCHAR 03C0
ENCODING 960
SWIDTH 500 0
DWIDTH 42 0
BBX 35 44 3 0
BITMAP
01E0000000
0FFE0000E0
1FFF8000E0
3FFFC000E0
7FFFF000E0
7DFFFC01E0
71FFFE01E0
F1F1FFC3C0
E1F0FFFFC0
E1F03FFF80
E1F01FFF80
E1F007FE00
01F000FC00
01F000FC00
01F000FC00
01F000FC00
01F000FC00
01F000FC00
01F000FC00
01F000FC00
01F000FC00
01F000FC00
01F000FC00
01F000FC00
01F000FC00
01F000FC00
01F000FC00
01F000FC00
01F000FC00
01F000FC00
01F000FC00
01F000FC00
01F000FC00
01F000FC00
01F000FC00
01F000FC00
01F000FC00
01F000FC00
01F000FC00
01F000FC00
01F000FC00
01F000FC00
01F000FC00
01F000FC00
ENDCHAR
STARTCHAR 2013
ENCODING 8211
SWIDTH 464 0
DWIDTH 39 0
BBX 30 5 5 22
BITMAP
FFFFFFFC
FFFFFFFC
FFFFFFFC
FFFFFFFC
FFFFFFFC
ENDCHAR
STARTCHAR 2014
ENCODING 8212
SWIDTH 726 0
DWIDTH 61 0
BBX 51 5 5 22
BITMAP
FFFFFFFFFFFFE0
FFFFFFFFFFFFE0
FFFFFFFFFFFFE0
FFFFFFFFFFFFE0
FFFFFFFFFFFFE0
ENDCHAR
STARTCHAR 2018
ENCODING 8216
SWIDTH 202 0
DWIDTH 17 0
BBX 9 17 5 45
BITMAP
0F80
0F80
1F00
1F00
3F00
3E00
3E00
7E00
7E00
FC00
FC00
FC00
FC00
FC00
FC00
FC00
FC00
ENDCHAR
STARTCHAR 2019
ENCODING 8217
SWIDTH 202 0
DWIDTH 17 0
BBX 9 17 3 42
BITMAP
1F80
1F80
1F80
1F80
1F80
1F80
1F80
1F80
3F00
3F00
3E00
3E00
7E00
7C00
7C00
F800
F800
ENDCHAR
STARTCHAR 201A
ENCODING 8218
SWIDTH 202 0
DWIDTH 17 0
BBX 9 17 3 -12
BITMAP
1F80
1F80
1F80
1F80
1F80
1F80
1F80
1F80
3F00
3F00
3E00
3E00
7E00
7C00
7C00
F800
F800
ENDCHAR
ENDFONT
